<svg xmlns="http://www.w3.org/2000/svg" xmlns:xlink="http://www.w3.org/1999/xlink" width="3000" zoomAndPan="magnify" viewBox="0 0 2250 2250.000011" height="3000" preserveAspectRatio="xMidYMid meet" version="1.0"><defs><clipPath id="e650423797"><path d="M 1911 224.898438 L 1964.464844 224.898438 L 1964.464844 278 L 1911 278 Z M 1911 224.898438 " clip-rule="nonzero"/></clipPath><clipPath id="a7464c4e83"><path d="M 285.210938 224.898438 L 338 224.898438 L 338 278 L 285.210938 278 Z M 285.210938 224.898438 " clip-rule="nonzero"/></clipPath><clipPath id="57d64172eb"><path d="M 1413 723 L 1624 723 L 1624 1904.152344 L 1413 1904.152344 Z M 1413 723 " clip-rule="nonzero"/></clipPath><clipPath id="07216c175a"><path d="M 1151 985 L 1361 985 L 1361 1904.152344 L 1151 1904.152344 Z M 1151 985 " clip-rule="nonzero"/></clipPath><clipPath id="d4116e9af0"><path d="M 888 1248 L 1099 1248 L 1099 1904.152344 L 888 1904.152344 Z M 888 1248 " clip-rule="nonzero"/></clipPath><clipPath id="a2ee1ad017"><path d="M 626 1510 L 837 1510 L 837 1904.152344 L 626 1904.152344 Z M 626 1510 " clip-rule="nonzero"/></clipPath><clipPath id="288b39d203"><path d="M 285.210938 224.898438 L 1964.464844 224.898438 L 1964.464844 1414 L 285.210938 1414 Z M 285.210938 224.898438 " clip-rule="nonzero"/></clipPath></defs><path fill="#000000" d="M 1833.273438 421.6875 C 1870.007812 421.6875 1898.871094 392.824219 1898.871094 356.09375 C 1898.871094 339.035156 1892.308594 321.980469 1879.191406 310.175781 C 1867.382812 297.054688 1851.640625 290.496094 1833.273438 290.496094 C 1797.851562 290.496094 1767.675781 319.359375 1767.675781 356.09375 C 1767.675781 391.511719 1796.539062 421.6875 1833.273438 421.6875 Z M 1833.273438 342.972656 C 1838.519531 342.972656 1841.144531 345.597656 1842.457031 346.910156 C 1843.769531 348.21875 1846.390625 350.84375 1846.390625 356.09375 C 1846.390625 363.964844 1839.832031 369.210938 1833.273438 369.210938 C 1825.402344 369.210938 1820.152344 362.652344 1820.152344 356.09375 C 1820.152344 348.21875 1826.714844 342.972656 1833.273438 342.972656 Z M 1833.273438 342.972656 " fill-opacity="1" fill-rule="nonzero"/><g clip-path="url(#e650423797)"><path fill="#000000" d="M 1964.464844 251.136719 C 1964.464844 251.996094 1964.421875 252.855469 1964.339844 253.710938 C 1964.253906 254.566406 1964.128906 255.414062 1963.960938 256.257812 C 1963.792969 257.101562 1963.585938 257.933594 1963.335938 258.753906 C 1963.085938 259.578125 1962.796875 260.386719 1962.46875 261.179688 C 1962.140625 261.972656 1961.773438 262.75 1961.367188 263.507812 C 1960.960938 264.265625 1960.519531 265 1960.042969 265.714844 C 1959.566406 266.429688 1959.054688 267.121094 1958.507812 267.785156 C 1957.964844 268.449219 1957.386719 269.085938 1956.78125 269.691406 C 1956.171875 270.300781 1955.535156 270.875 1954.871094 271.421875 C 1954.207031 271.964844 1953.519531 272.476562 1952.804688 272.953125 C 1952.089844 273.433594 1951.351562 273.875 1950.59375 274.277344 C 1949.835938 274.683594 1949.0625 275.050781 1948.265625 275.378906 C 1947.472656 275.707031 1946.664062 275.996094 1945.84375 276.246094 C 1945.019531 276.496094 1944.1875 276.703125 1943.34375 276.871094 C 1942.503906 277.039062 1941.652344 277.167969 1940.796875 277.25 C 1939.941406 277.335938 1939.085938 277.375 1938.226562 277.375 C 1937.367188 277.375 1936.511719 277.335938 1935.65625 277.25 C 1934.800781 277.167969 1933.949219 277.039062 1933.109375 276.871094 C 1932.265625 276.703125 1931.433594 276.496094 1930.609375 276.246094 C 1929.789062 275.996094 1928.980469 275.707031 1928.1875 275.378906 C 1927.390625 275.050781 1926.617188 274.683594 1925.859375 274.277344 C 1925.101562 273.875 1924.363281 273.433594 1923.648438 272.953125 C 1922.933594 272.476562 1922.246094 271.964844 1921.582031 271.421875 C 1920.917969 270.875 1920.28125 270.300781 1919.671875 269.691406 C 1919.066406 269.085938 1918.488281 268.449219 1917.945312 267.785156 C 1917.398438 267.121094 1916.886719 266.429688 1916.410156 265.714844 C 1915.933594 265 1915.492188 264.265625 1915.085938 263.507812 C 1914.679688 262.75 1914.3125 261.972656 1913.984375 261.179688 C 1913.65625 260.386719 1913.367188 259.578125 1913.117188 258.753906 C 1912.867188 257.933594 1912.660156 257.101562 1912.492188 256.257812 C 1912.324219 255.414062 1912.199219 254.566406 1912.113281 253.710938 C 1912.03125 252.855469 1911.988281 251.996094 1911.988281 251.136719 C 1911.988281 250.277344 1912.03125 249.421875 1912.113281 248.566406 C 1912.199219 247.710938 1912.324219 246.863281 1912.492188 246.019531 C 1912.660156 245.175781 1912.867188 244.34375 1913.117188 243.523438 C 1913.367188 242.699219 1913.65625 241.890625 1913.984375 241.097656 C 1914.3125 240.304688 1914.679688 239.527344 1915.085938 238.769531 C 1915.492188 238.011719 1915.933594 237.277344 1916.410156 236.5625 C 1916.886719 235.847656 1917.398438 235.15625 1917.945312 234.492188 C 1918.488281 233.828125 1919.066406 233.191406 1919.671875 232.585938 C 1920.28125 231.976562 1920.917969 231.402344 1921.582031 230.855469 C 1922.246094 230.3125 1922.933594 229.800781 1923.648438 229.320312 C 1924.363281 228.84375 1925.101562 228.402344 1925.859375 228 C 1926.617188 227.59375 1927.390625 227.226562 1928.183594 226.898438 C 1928.980469 226.570312 1929.789062 226.28125 1930.609375 226.03125 C 1931.433594 225.78125 1932.265625 225.570312 1933.109375 225.40625 C 1933.949219 225.238281 1934.800781 225.109375 1935.65625 225.027344 C 1936.511719 224.941406 1937.367188 224.898438 1938.226562 224.898438 C 1939.085938 224.898438 1939.941406 224.941406 1940.796875 225.027344 C 1941.652344 225.109375 1942.503906 225.238281 1943.34375 225.40625 C 1944.1875 225.570312 1945.019531 225.78125 1945.84375 226.03125 C 1946.664062 226.28125 1947.472656 226.570312 1948.265625 226.898438 C 1949.0625 227.226562 1949.835938 227.59375 1950.59375 228 C 1951.351562 228.402344 1952.089844 228.84375 1952.804688 229.320312 C 1953.519531 229.800781 1954.207031 230.3125 1954.871094 230.855469 C 1955.535156 231.402344 1956.171875 231.976562 1956.78125 232.585938 C 1957.386719 233.191406 1957.964844 233.828125 1958.507812 234.492188 C 1959.054688 235.15625 1959.566406 235.847656 1960.042969 236.5625 C 1960.519531 237.277344 1960.960938 238.011719 1961.367188 238.769531 C 1961.773438 239.527344 1962.140625 240.304688 1962.46875 241.097656 C 1962.796875 241.890625 1963.085938 242.699219 1963.335938 243.523438 C 1963.585938 244.34375 1963.792969 245.175781 1963.960938 246.019531 C 1964.128906 246.863281 1964.253906 247.710938 1964.339844 248.566406 C 1964.421875 249.421875 1964.464844 250.277344 1964.464844 251.136719 Z M 1964.464844 251.136719 " fill-opacity="1" fill-rule="nonzero"/></g><path fill="#000000" d="M 416.402344 421.6875 C 453.136719 421.6875 482 391.511719 482 356.09375 C 482 319.359375 451.824219 290.496094 416.402344 290.496094 C 398.035156 290.496094 382.292969 297.054688 370.484375 310.175781 C 357.367188 321.980469 350.808594 339.035156 350.808594 356.09375 C 350.808594 392.824219 380.980469 421.6875 416.402344 421.6875 Z M 407.21875 346.910156 C 408.53125 345.597656 411.15625 342.972656 416.402344 342.972656 C 424.273438 342.972656 429.523438 348.21875 429.523438 356.09375 C 429.523438 363.964844 424.273438 369.210938 416.402344 369.210938 C 408.53125 369.210938 403.285156 363.964844 403.285156 356.09375 C 403.285156 350.84375 405.90625 348.21875 407.21875 346.910156 Z M 407.21875 346.910156 " fill-opacity="1" fill-rule="nonzero"/><g clip-path="url(#a7464c4e83)"><path fill="#000000" d="M 337.6875 251.136719 C 337.6875 251.996094 337.644531 252.855469 337.5625 253.710938 C 337.476562 254.566406 337.351562 255.414062 337.183594 256.257812 C 337.015625 257.101562 336.808594 257.933594 336.558594 258.753906 C 336.308594 259.578125 336.019531 260.386719 335.691406 261.179688 C 335.363281 261.972656 334.996094 262.75 334.589844 263.507812 C 334.183594 264.265625 333.742188 265 333.265625 265.714844 C 332.789062 266.429688 332.277344 267.121094 331.730469 267.785156 C 331.1875 268.449219 330.609375 269.085938 330.003906 269.691406 C 329.394531 270.300781 328.757812 270.875 328.09375 271.421875 C 327.429688 271.964844 326.742188 272.476562 326.027344 272.953125 C 325.3125 273.433594 324.578125 273.875 323.820312 274.277344 C 323.058594 274.683594 322.285156 275.050781 321.492188 275.378906 C 320.695312 275.707031 319.886719 275.996094 319.066406 276.246094 C 318.242188 276.496094 317.410156 276.703125 316.570312 276.871094 C 315.726562 277.039062 314.875 277.167969 314.023438 277.25 C 313.167969 277.335938 312.308594 277.375 311.449219 277.375 C 310.589844 277.375 309.734375 277.335938 308.878906 277.25 C 308.023438 277.167969 307.171875 277.039062 306.332031 276.871094 C 305.488281 276.703125 304.65625 276.496094 303.832031 276.246094 C 303.011719 275.996094 302.203125 275.707031 301.410156 275.378906 C 300.613281 275.050781 299.839844 274.683594 299.082031 274.277344 C 298.324219 273.875 297.585938 273.433594 296.871094 272.953125 C 296.15625 272.476562 295.46875 271.964844 294.804688 271.421875 C 294.140625 270.875 293.503906 270.300781 292.894531 269.691406 C 292.289062 269.085938 291.710938 268.449219 291.167969 267.785156 C 290.621094 267.121094 290.109375 266.429688 289.632812 265.714844 C 289.15625 265 288.714844 264.265625 288.308594 263.507812 C 287.90625 262.75 287.539062 261.972656 287.207031 261.179688 C 286.878906 260.386719 286.589844 259.578125 286.339844 258.753906 C 286.089844 257.933594 285.882812 257.101562 285.714844 256.257812 C 285.546875 255.414062 285.421875 254.566406 285.335938 253.710938 C 285.253906 252.855469 285.210938 251.996094 285.210938 251.136719 C 285.210938 250.277344 285.253906 249.421875 285.335938 248.566406 C 285.421875 247.710938 285.546875 246.863281 285.714844 246.019531 C 285.882812 245.175781 286.089844 244.34375 286.339844 243.523438 C 286.589844 242.699219 286.878906 241.890625 287.207031 241.097656 C 287.539062 240.304688 287.90625 239.527344 288.308594 238.769531 C 288.714844 238.011719 289.15625 237.277344 289.632812 236.5625 C 290.109375 235.847656 290.621094 235.15625 291.167969 234.492188 C 291.710938 233.828125 292.289062 233.191406 292.894531 232.585938 C 293.503906 231.976562 294.140625 231.402344 294.804688 230.855469 C 295.46875 230.3125 296.15625 229.800781 296.871094 229.320312 C 297.585938 228.84375 298.324219 228.402344 299.082031 228 C 299.839844 227.59375 300.613281 227.226562 301.410156 226.898438 C 302.203125 226.570312 303.011719 226.28125 303.832031 226.03125 C 304.65625 225.78125 305.488281 225.570312 306.332031 225.40625 C 307.171875 225.238281 308.023438 225.109375 308.878906 225.027344 C 309.734375 224.941406 310.589844 224.898438 311.449219 224.898438 C 312.308594 224.898438 313.167969 224.941406 314.023438 225.027344 C 314.875 225.109375 315.726562 225.238281 316.570312 225.40625 C 317.410156 225.570312 318.242188 225.78125 319.066406 226.03125 C 319.886719 226.28125 320.695312 226.570312 321.492188 226.898438 C 322.285156 227.226562 323.058594 227.59375 323.820312 228 C 324.578125 228.402344 325.3125 228.84375 326.027344 229.320312 C 326.742188 229.800781 327.429688 230.3125 328.09375 230.855469 C 328.757812 231.402344 329.394531 231.976562 330.003906 232.585938 C 330.609375 233.191406 331.1875 233.828125 331.730469 234.492188 C 332.277344 235.15625 332.789062 235.847656 333.265625 236.5625 C 333.742188 237.277344 334.183594 238.011719 334.589844 238.769531 C 334.996094 239.527344 335.363281 240.304688 335.691406 241.097656 C 336.019531 241.890625 336.308594 242.699219 336.558594 243.523438 C 336.808594 244.34375 337.015625 245.175781 337.183594 246.019531 C 337.351562 246.863281 337.476562 247.710938 337.5625 248.566406 C 337.644531 249.421875 337.6875 250.277344 337.6875 251.136719 Z M 337.6875 251.136719 " fill-opacity="1" fill-rule="nonzero"/></g><g clip-path="url(#57d64172eb)"><path fill="#000000" d="M 1570.890625 723.429688 L 1465.9375 723.429688 C 1437.074219 723.429688 1413.460938 747.042969 1413.460938 775.90625 L 1413.460938 1877.914062 C 1413.460938 1892.347656 1425.265625 1904.152344 1439.699219 1904.152344 L 1597.128906 1904.152344 C 1611.558594 1904.152344 1623.367188 1892.347656 1623.367188 1877.914062 L 1623.367188 775.90625 C 1623.367188 747.042969 1599.753906 723.429688 1570.890625 723.429688 Z M 1570.890625 1851.675781 L 1465.9375 1851.675781 L 1465.9375 775.90625 L 1570.890625 775.90625 Z M 1570.890625 1851.675781 " fill-opacity="1" fill-rule="nonzero"/></g><g clip-path="url(#07216c175a)"><path fill="#000000" d="M 1308.507812 985.8125 L 1203.554688 985.8125 C 1174.691406 985.8125 1151.078125 1009.425781 1151.078125 1038.289062 L 1151.078125 1877.914062 C 1151.078125 1892.347656 1162.882812 1904.152344 1177.316406 1904.152344 L 1334.746094 1904.152344 C 1349.175781 1904.152344 1360.984375 1892.347656 1360.984375 1877.914062 L 1360.984375 1038.289062 C 1360.984375 1009.425781 1337.367188 985.8125 1308.507812 985.8125 Z M 1308.507812 1851.675781 L 1203.554688 1851.675781 L 1203.554688 1038.289062 L 1308.507812 1038.289062 Z M 1308.507812 1851.675781 " fill-opacity="1" fill-rule="nonzero"/></g><g clip-path="url(#d4116e9af0)"><path fill="#000000" d="M 1046.125 1248.195312 L 941.167969 1248.195312 C 912.308594 1248.195312 888.691406 1271.808594 888.691406 1300.671875 L 888.691406 1877.914062 C 888.691406 1892.347656 900.5 1904.152344 914.929688 1904.152344 L 1072.363281 1904.152344 C 1086.792969 1904.152344 1098.601562 1892.347656 1098.601562 1877.914062 L 1098.601562 1300.671875 C 1098.601562 1271.808594 1074.984375 1248.195312 1046.125 1248.195312 Z M 1046.125 1851.675781 L 941.167969 1851.675781 L 941.167969 1300.671875 L 1046.125 1300.671875 Z M 1046.125 1851.675781 " fill-opacity="1" fill-rule="nonzero"/></g><g clip-path="url(#a2ee1ad017)"><path fill="#000000" d="M 783.738281 1510.578125 L 678.785156 1510.578125 C 649.925781 1510.578125 626.308594 1534.191406 626.308594 1563.054688 L 626.308594 1877.914062 C 626.308594 1892.347656 638.117188 1904.152344 652.546875 1904.152344 L 809.976562 1904.152344 C 824.410156 1904.152344 836.214844 1892.347656 836.214844 1877.914062 L 836.214844 1563.054688 C 836.214844 1534.191406 812.601562 1510.578125 783.738281 1510.578125 Z M 783.738281 1851.675781 L 678.785156 1851.675781 L 678.785156 1563.054688 L 783.738281 1563.054688 Z M 783.738281 1851.675781 " fill-opacity="1" fill-rule="nonzero"/></g><path fill="#000000" d="M 757.5 1064.527344 C 757.5 1102.574219 762.75 1137.996094 773.246094 1172.105469 C 787.675781 1161.609375 803.417969 1149.800781 819.160156 1137.996094 C 812.601562 1115.691406 809.976562 1090.765625 809.976562 1064.527344 C 809.976562 903.160156 930.675781 770.65625 1086.792969 752.289062 C 1080.234375 735.234375 1078.921875 716.867188 1084.167969 699.8125 C 900.5 719.492188 757.5 875.609375 757.5 1064.527344 Z M 757.5 1064.527344 " fill-opacity="1" fill-rule="nonzero"/><path fill="#000000" d="M 537.097656 1389.882812 C 541.035156 1400.378906 551.53125 1405.625 560.714844 1405.625 C 564.648438 1405.625 567.273438 1405.625 571.210938 1403 C 726.015625 1338.71875 1092.039062 1148.488281 1240.285156 747.042969 L 1242.910156 760.164062 C 1245.535156 771.96875 1256.03125 781.152344 1267.835938 781.152344 C 1269.148438 781.152344 1271.773438 781.152344 1274.398438 779.839844 C 1288.828125 777.21875 1296.699219 762.785156 1294.074219 748.355469 L 1269.148438 639.464844 C 1266.523438 630.28125 1259.964844 622.410156 1250.78125 619.789062 C 1241.597656 617.164062 1232.414062 619.789062 1225.855469 625.035156 L 1141.894531 702.4375 C 1131.398438 711.621094 1130.085938 728.675781 1140.582031 739.171875 C 1149.765625 749.667969 1166.820312 750.980469 1177.316406 740.484375 L 1191.746094 727.363281 C 1051.371094 1111.757812 699.777344 1292.800781 550.21875 1355.773438 C 537.097656 1361.019531 530.539062 1375.453125 537.097656 1389.882812 Z M 537.097656 1389.882812 " fill-opacity="1" fill-rule="nonzero"/><path fill="#000000" d="M 1319 816.574219 C 1333.433594 828.382812 1347.863281 841.5 1360.984375 857.242188 L 1360.984375 783.777344 C 1355.734375 779.839844 1351.800781 775.90625 1346.550781 771.96875 C 1342.617188 789.023438 1332.121094 804.765625 1319 816.574219 Z M 1319 816.574219 " fill-opacity="1" fill-rule="nonzero"/><path fill="#000000" d="M 1675.84375 1417.433594 L 1675.84375 1492.210938 L 1721.761719 1538.128906 C 1733.566406 1549.9375 1729.632812 1573.550781 1713.890625 1589.292969 L 1675.84375 1627.339844 L 1675.84375 1700.804688 C 1679.777344 1698.183594 1682.402344 1695.558594 1685.027344 1691.625 L 1750.621094 1626.027344 C 1787.355469 1589.292969 1789.980469 1534.191406 1758.492188 1501.394531 Z M 1675.84375 1417.433594 " fill-opacity="1" fill-rule="nonzero"/><path fill="#000000" d="M 560.714844 1458.101562 C 552.84375 1458.101562 544.972656 1456.789062 537.097656 1454.167969 L 491.183594 1500.082031 C 458.382812 1532.882812 462.320312 1587.980469 499.054688 1624.714844 L 564.648438 1690.3125 C 567.273438 1692.933594 571.210938 1695.558594 573.832031 1698.183594 L 573.832031 1624.714844 L 535.789062 1586.667969 C 520.042969 1570.925781 517.421875 1547.3125 527.917969 1536.816406 L 611.878906 1452.855469 C 615.8125 1448.917969 619.75 1443.671875 622.375 1437.109375 C 610.566406 1442.359375 600.070312 1446.292969 590.886719 1450.230469 C 580.394531 1456.789062 571.210938 1458.101562 560.714844 1458.101562 Z M 560.714844 1458.101562 " fill-opacity="1" fill-rule="nonzero"/><g clip-path="url(#288b39d203)"><path fill="#000000" d="M 1881.8125 924.152344 L 1762.429688 924.152344 C 1745.375 848.0625 1715.199219 775.90625 1674.53125 711.621094 L 1758.492188 627.660156 C 1791.292969 594.859375 1787.355469 539.761719 1750.621094 503.027344 L 1685.027344 437.429688 C 1665.347656 417.75 1640.421875 407.257812 1615.496094 407.257812 C 1594.503906 407.257812 1574.824219 415.128906 1560.394531 429.558594 L 1476.433594 513.523438 C 1413.460938 474.164062 1341.304688 443.992188 1265.214844 426.933594 L 1265.214844 307.550781 C 1265.214844 261.632812 1223.230469 224.898438 1172.066406 224.898438 L 1078.921875 224.898438 C 1027.757812 224.898438 985.773438 261.632812 985.773438 307.550781 L 985.773438 426.933594 C 908.371094 443.992188 836.214844 474.164062 773.246094 514.832031 L 689.28125 430.871094 C 674.851562 416.441406 653.859375 408.570312 634.179688 408.570312 C 610.566406 408.570312 584.328125 419.0625 564.648438 438.742188 L 499.054688 504.339844 C 462.320312 541.070312 459.695312 596.171875 491.183594 628.96875 L 575.144531 712.933594 C 534.476562 775.90625 504.300781 848.0625 487.246094 924.152344 L 367.863281 924.152344 C 321.945312 924.152344 285.210938 966.132812 285.210938 1017.296875 L 285.210938 1110.445312 C 285.210938 1161.609375 321.945312 1203.589844 367.863281 1203.589844 L 487.246094 1203.589844 C 495.117188 1240.324219 506.925781 1277.058594 521.355469 1311.167969 C 523.980469 1309.855469 527.914062 1307.230469 531.851562 1305.917969 C 543.660156 1300.671875 555.464844 1295.425781 569.898438 1288.863281 C 556.777344 1257.378906 547.59375 1224.582031 539.722656 1191.78125 C 534.476562 1168.167969 513.484375 1151.113281 488.558594 1151.113281 L 367.863281 1151.113281 C 350.808594 1151.113281 337.6875 1132.746094 337.6875 1110.445312 L 337.6875 1017.296875 C 337.6875 994.996094 352.121094 976.628906 367.863281 976.628906 L 487.246094 976.628906 C 512.171875 976.628906 533.164062 959.574219 538.410156 935.960938 C 552.84375 866.425781 580.394531 800.832031 619.75 740.484375 C 632.871094 719.492188 630.246094 691.941406 613.191406 674.886719 L 529.226562 590.925781 C 517.421875 579.117188 521.355469 555.503906 537.097656 541.070312 L 602.695312 475.476562 C 611.878906 466.292969 623.6875 461.046875 634.179688 461.046875 C 639.429688 461.046875 647.300781 462.355469 652.546875 467.605469 L 736.511719 551.566406 C 747.007812 562.0625 760.125 567.308594 773.246094 567.308594 C 782.429688 567.308594 792.921875 564.6875 802.105469 559.4375 C 862.453125 521.394531 928.050781 493.84375 997.582031 478.101562 C 1021.195312 472.851562 1038.25 451.863281 1038.25 426.933594 L 1038.25 307.550781 C 1038.25 290.496094 1056.617188 277.375 1078.921875 277.375 L 1172.066406 277.375 C 1194.371094 277.375 1212.738281 291.808594 1212.738281 307.550781 L 1212.738281 426.933594 C 1212.738281 451.863281 1229.792969 472.851562 1253.40625 478.101562 C 1322.9375 493.84375 1388.535156 520.082031 1448.882812 559.4375 C 1458.066406 564.6875 1467.25 567.308594 1477.742188 567.308594 C 1490.863281 567.308594 1505.292969 562.0625 1514.476562 551.566406 L 1598.441406 467.605469 C 1603.6875 462.355469 1611.558594 461.046875 1616.808594 461.046875 C 1628.613281 461.046875 1639.109375 466.292969 1648.292969 475.476562 L 1713.890625 541.070312 C 1729.632812 556.816406 1732.253906 580.429688 1721.761719 590.925781 L 1637.796875 674.886719 C 1633.863281 678.824219 1631.238281 682.757812 1628.613281 688.007812 C 1657.476562 706.375 1675.84375 739.171875 1675.84375 775.90625 L 1675.84375 825.757812 C 1691.585938 861.179688 1703.394531 897.914062 1711.265625 935.960938 C 1716.511719 959.574219 1737.503906 976.628906 1762.429688 976.628906 L 1881.8125 976.628906 C 1898.871094 976.628906 1911.988281 994.996094 1911.988281 1017.296875 L 1911.988281 1110.445312 C 1911.988281 1132.746094 1897.558594 1151.113281 1881.8125 1151.113281 L 1762.429688 1151.113281 C 1737.503906 1151.113281 1716.511719 1168.167969 1711.265625 1191.78125 C 1703.394531 1229.828125 1691.585938 1266.5625 1675.84375 1301.984375 L 1675.84375 1413.496094 C 1716.511719 1350.523438 1746.6875 1279.679688 1762.429688 1203.589844 L 1881.8125 1203.589844 C 1927.730469 1203.589844 1964.464844 1161.609375 1964.464844 1110.445312 L 1964.464844 1017.296875 C 1964.464844 966.132812 1927.730469 924.152344 1881.8125 924.152344 Z M 1881.8125 924.152344 " fill-opacity="1" fill-rule="nonzero"/></g></svg>