<svg xmlns="http://www.w3.org/2000/svg" xmlns:xlink="http://www.w3.org/1999/xlink" width="3000" zoomAndPan="magnify" viewBox="0 0 2250 2250.000011" height="3000" preserveAspectRatio="xMidYMid meet" version="1.0"><defs><clipPath id="7cf211da26"><path d="M 104 913.734375 L 447 913.734375 L 447 1238.34375 L 104 1238.34375 Z M 104 913.734375 " clip-rule="nonzero"/></clipPath><clipPath id="6e726730f8"><path d="M 528 913.734375 L 871 913.734375 L 871 1238.34375 L 528 1238.34375 Z M 528 913.734375 " clip-rule="nonzero"/></clipPath><clipPath id="2a98e8414d"><path d="M 953 913.734375 L 1296 913.734375 L 1296 1238.34375 L 953 1238.34375 Z M 953 913.734375 " clip-rule="nonzero"/></clipPath><clipPath id="59473f114e"><path d="M 1377 913.734375 L 1720 913.734375 L 1720 1238.34375 L 1377 1238.34375 Z M 1377 913.734375 " clip-rule="nonzero"/></clipPath><clipPath id="81dc37e4a6"><path d="M 1801 913.734375 L 2144 913.734375 L 2144 1238.34375 L 1801 1238.34375 Z M 1801 913.734375 " clip-rule="nonzero"/></clipPath></defs><g clip-path="url(#7cf211da26)"><path fill="#000000" d="M 328.027344 1020.695312 L 275.171875 913.734375 L 222.371094 1020.695312 L 104.203125 1037.84375 L 189.714844 1121.105469 L 169.515625 1238.613281 L 275.171875 1183.160156 L 380.882812 1238.613281 L 360.683594 1121.105469 L 446.140625 1037.84375 Z M 328.027344 1020.695312 " fill-opacity="1" fill-rule="nonzero"/></g><g clip-path="url(#6e726730f8)"><path fill="#000000" d="M 752.445312 1020.695312 L 699.640625 913.734375 L 646.785156 1020.695312 L 528.621094 1037.84375 L 614.132812 1121.105469 L 593.929688 1238.613281 L 699.640625 1183.160156 L 805.300781 1238.613281 L 785.101562 1121.105469 L 870.613281 1037.84375 Z M 752.445312 1020.695312 " fill-opacity="1" fill-rule="nonzero"/></g><g clip-path="url(#2a98e8414d)"><path fill="#000000" d="M 1176.859375 1020.695312 L 1124.058594 913.734375 L 1071.203125 1020.695312 L 953.089844 1037.84375 L 1038.546875 1121.105469 L 1018.347656 1238.613281 L 1124.058594 1183.160156 L 1229.714844 1238.613281 L 1209.515625 1121.105469 L 1295.027344 1037.84375 Z M 1176.859375 1020.695312 " fill-opacity="1" fill-rule="nonzero"/></g><g clip-path="url(#59473f114e)"><path fill="#000000" d="M 1601.332031 1020.695312 L 1548.476562 913.734375 L 1495.621094 1020.695312 L 1377.507812 1037.84375 L 1462.964844 1121.105469 L 1442.820312 1238.613281 L 1548.476562 1183.160156 L 1654.132812 1238.613281 L 1633.988281 1121.105469 L 1719.445312 1037.84375 Z M 1601.332031 1020.695312 " fill-opacity="1" fill-rule="nonzero"/></g><g clip-path="url(#81dc37e4a6)"><path fill="#000000" d="M 2143.914062 1037.84375 L 2025.75 1020.695312 L 1972.894531 913.734375 L 1920.089844 1020.695312 L 1801.925781 1037.84375 L 1887.433594 1121.105469 L 1867.234375 1238.613281 L 1972.894531 1183.160156 L 2078.605469 1238.613281 L 2058.402344 1121.105469 Z M 2143.914062 1037.84375 " fill-opacity="1" fill-rule="nonzero"/></g></svg>