<svg xmlns="http://www.w3.org/2000/svg" xmlns:xlink="http://www.w3.org/1999/xlink" width="3000" zoomAndPan="magnify" viewBox="0 0 2250 2250.000011" height="3000" preserveAspectRatio="xMidYMid meet" version="1.0"><path fill="#000000" d="M 1031.710938 810.726562 C 1030 808.910156 1027.003906 810.085938 1027.003906 812.546875 L 1027.003906 1380.175781 C 1057.386719 1398.472656 1089.695312 1413.234375 1123.390625 1424.039062 L 1123.390625 906.792969 C 1123.390625 906.152344 1123.070312 905.402344 1122.535156 904.976562 Z M 1031.710938 810.726562 " fill-opacity="1" fill-rule="nonzero"/><path fill="#000000" d="M 1295.949219 987.136719 L 1252.195312 1035.0625 C 1251.125 1036.238281 1249.308594 1036.238281 1248.238281 1035.0625 L 1209.082031 994.519531 C 1207.371094 992.804688 1204.375 993.984375 1204.375 996.441406 L 1204.375 1442.117188 C 1224.59375 1444.792969 1245.027344 1446.183594 1265.78125 1446.183594 C 1277.550781 1446.183594 1289.210938 1445.757812 1300.765625 1444.898438 L 1300.765625 988.953125 C 1300.765625 986.496094 1297.660156 985.316406 1295.949219 987.136719 Z M 1295.949219 987.136719 " fill-opacity="1" fill-rule="nonzero"/><path fill="#000000" d="M 1433.203125 841.429688 C 1432.027344 840.359375 1430.316406 840.359375 1429.246094 841.539062 L 1382.496094 892.566406 C 1382.066406 893.101562 1381.746094 893.742188 1381.746094 894.386719 L 1381.746094 1431.632812 C 1415.339844 1423.078125 1447.539062 1410.773438 1478.136719 1394.941406 L 1478.136719 887.539062 C 1478.136719 886.898438 1477.921875 886.148438 1477.386719 885.613281 Z M 1433.203125 841.429688 " fill-opacity="1" fill-rule="nonzero"/><path fill="#000000" d="M 1563.824219 972.050781 C 1562.113281 970.339844 1559.226562 971.625 1559.226562 973.976562 L 1559.226562 1341.453125 C 1570.886719 1331.929688 1582.121094 1321.765625 1592.925781 1310.960938 C 1616.886719 1287.105469 1637.855469 1260.894531 1655.613281 1233.082031 L 1655.613281 1064.160156 C 1655.613281 1063.414062 1655.292969 1062.769531 1654.757812 1062.234375 Z M 1563.824219 972.050781 " fill-opacity="1" fill-rule="nonzero"/><path fill="#000000" d="M 1676.902344 953.972656 L 1653.902344 930.972656 C 1655.722656 925.730469 1656.898438 920.058594 1656.898438 914.175781 C 1656.898438 886.789062 1634.753906 864.644531 1607.367188 864.644531 C 1601.480469 864.644531 1595.8125 865.714844 1590.570312 867.640625 L 1559.226562 836.296875 L 1478.671875 755.738281 C 1479.203125 752.957031 1479.417969 750.070312 1479.417969 747.179688 C 1479.417969 719.796875 1457.273438 697.648438 1429.996094 697.648438 C 1402.609375 697.648438 1380.464844 719.796875 1380.464844 747.179688 C 1380.464844 750.605469 1380.890625 753.921875 1381.53125 757.238281 L 1300.765625 845.496094 L 1273.269531 875.449219 C 1266.957031 872.5625 1260.003906 870.851562 1252.515625 870.851562 C 1242.675781 870.851562 1233.582031 873.738281 1225.878906 878.765625 L 1204.375 856.515625 L 1123.390625 772.535156 L 1121.464844 770.609375 C 1123.5 765.261719 1124.675781 759.378906 1124.675781 753.386719 C 1124.675781 726 1102.53125 703.855469 1075.144531 703.855469 C 1069.6875 703.855469 1064.445312 704.816406 1059.527344 706.421875 L 1036.953125 682.992188 C 1035.992188 681.925781 1035.992188 680.210938 1037.058594 679.144531 L 1061.773438 655.179688 C 1063.269531 653.789062 1062.628906 651.222656 1060.59375 650.6875 L 972.871094 625.761719 L 953.722656 620.304688 C 951.691406 619.769531 949.765625 621.589844 950.300781 623.621094 L 954.792969 641.484375 L 977.472656 731.347656 C 978.007812 733.382812 980.574219 734.128906 982.074219 732.632812 L 1003.148438 712.199219 C 1004.21875 711.128906 1005.929688 711.128906 1007 712.199219 L 1027.003906 732.953125 L 1029.144531 735.199219 C 1026.898438 740.871094 1025.71875 746.96875 1025.71875 753.386719 C 1025.71875 780.667969 1047.863281 802.8125 1075.144531 802.8125 C 1080.921875 802.8125 1086.484375 801.742188 1091.621094 799.921875 L 1123.390625 832.871094 L 1203.304688 915.675781 C 1203.199219 917.277344 1203.09375 918.777344 1203.09375 920.382812 C 1203.09375 947.660156 1225.238281 969.804688 1252.515625 969.804688 C 1279.902344 969.804688 1302.046875 947.660156 1302.046875 920.382812 C 1302.046875 915.996094 1301.40625 911.929688 1300.441406 907.972656 L 1300.765625 907.542969 L 1381.746094 818.964844 L 1407.316406 791.148438 C 1414.054688 794.574219 1421.757812 796.605469 1429.996094 796.605469 C 1438.660156 796.605469 1446.898438 794.359375 1454.066406 790.402344 L 1478.136719 814.578125 L 1559.226562 895.5625 L 1560.9375 897.273438 C 1559.011719 902.621094 1557.941406 908.183594 1557.941406 914.175781 C 1557.941406 941.457031 1580.085938 963.601562 1607.367188 963.601562 C 1613.25 963.601562 1618.921875 962.53125 1624.164062 960.605469 L 1647.164062 983.605469 C 1648.234375 984.675781 1649.945312 984.675781 1651.015625 983.605469 L 1655.613281 979.113281 L 1676.902344 957.824219 C 1677.867188 956.753906 1677.867188 955.042969 1676.902344 953.972656 Z M 1676.902344 953.972656 " fill-opacity="1" fill-rule="nonzero"/><path fill="#000000" d="M 1716.058594 533.652344 C 1467.757812 285.351562 1063.804688 285.351562 815.507812 533.652344 C 578.011719 771.144531 567.847656 1151.136719 784.804688 1401.039062 L 652.789062 1533.050781 C 608.289062 1514.007812 554.796875 1522.460938 518.425781 1558.832031 L 333.242188 1744.015625 C 285.636719 1791.621094 285.636719 1868.859375 333.242188 1916.464844 C 380.847656 1964.070312 458.089844 1964.070312 505.695312 1916.464844 L 690.875 1731.285156 C 727.25 1694.910156 735.699219 1641.421875 716.65625 1596.917969 L 848.667969 1464.90625 C 1098.574219 1681.859375 1478.457031 1671.804688 1716.058594 1434.203125 C 1964.355469 1185.902344 1964.355469 781.84375 1716.058594 533.652344 Z M 1645.878906 1363.917969 C 1436.304688 1573.488281 1095.363281 1573.488281 885.792969 1363.917969 C 676.21875 1154.34375 676.21875 813.402344 885.792969 603.828125 C 1095.363281 394.257812 1436.304688 394.257812 1645.878906 603.828125 C 1855.34375 813.402344 1855.34375 1154.34375 1645.878906 1363.917969 Z M 1645.878906 1363.917969 " fill-opacity="1" fill-rule="nonzero"/></svg>