<svg xmlns="http://www.w3.org/2000/svg" xmlns:xlink="http://www.w3.org/1999/xlink" width="3000" zoomAndPan="magnify" viewBox="0 0 2250 2250.000011" height="3000" preserveAspectRatio="xMidYMid meet" version="1.0"><defs><clipPath id="28554c767d"><path d="M 441 289.816406 L 1804 289.816406 L 1804 1959.324219 L 441 1959.324219 Z M 441 289.816406 " clip-rule="nonzero"/></clipPath></defs><g clip-path="url(#28554c767d)"><path fill="#000000" d="M 951.875 1023.875 L 951.875 1062.402344 C 951.875 1089.757812 968.742188 1113.222656 992.609375 1123.015625 L 992.609375 1141.253906 C 992.609375 1168.492188 1009.328125 1191.886719 1033.03125 1201.753906 L 1033.03125 1220.109375 C 1033.03125 1256.226562 1062.414062 1285.617188 1098.523438 1285.617188 L 1149.679688 1285.617188 C 1185.792969 1285.617188 1215.171875 1256.226562 1215.171875 1220.109375 L 1215.171875 1201.757812 C 1238.875 1191.890625 1255.59375 1168.496094 1255.59375 1141.257812 L 1255.59375 1121.832031 C 1278.042969 1111.433594 1293.691406 1088.738281 1293.691406 1062.40625 L 1293.691406 1023.832031 C 1299.644531 924.273438 1324.316406 882.078125 1348.1875 841.28125 C 1370.421875 803.277344 1391.421875 767.375 1391.421875 697.675781 C 1391.421875 549.515625 1270.910156 428.980469 1122.78125 428.980469 C 974.652344 428.980469 854.148438 549.515625 854.148438 697.675781 C 854.148438 767.375 875.144531 803.273438 897.378906 841.28125 C 921.253906 882.078125 945.929688 924.28125 951.875 1023.875 Z M 1054.816406 729.75 L 1024.53125 729.75 C 1007.832031 729.75 994.246094 716.160156 994.246094 699.460938 C 994.246094 682.753906 1007.832031 669.167969 1024.53125 669.167969 C 1041.230469 669.167969 1054.816406 682.753906 1054.816406 699.460938 Z M 1138.59375 996.890625 L 1106.980469 996.890625 L 1106.980469 781.921875 L 1138.59375 781.921875 Z M 1241.535156 1049.0625 L 1241.535156 1062.40625 C 1241.535156 1069.636719 1235.429688 1075.746094 1228.203125 1075.746094 L 1017.371094 1075.746094 C 1010.144531 1075.746094 1004.035156 1069.636719 1004.035156 1062.40625 L 1004.035156 1049.0625 Z M 1203.4375 1141.253906 C 1203.4375 1148.484375 1197.328125 1154.59375 1190.105469 1154.59375 L 1058.109375 1154.59375 C 1050.878906 1154.59375 1044.769531 1148.484375 1044.769531 1141.253906 L 1044.769531 1127.914062 L 1203.4375 1127.914062 Z M 1149.679688 1233.445312 L 1098.527344 1233.445312 C 1091.300781 1233.445312 1085.195312 1227.335938 1085.195312 1220.109375 L 1085.195312 1206.765625 L 1163.019531 1206.765625 L 1163.019531 1220.109375 C 1163.015625 1227.335938 1156.910156 1233.445312 1149.679688 1233.445312 Z M 1122.785156 481.148438 C 1242.152344 481.148438 1339.265625 578.28125 1339.265625 697.671875 C 1339.265625 753.230469 1323.335938 780.457031 1303.171875 814.925781 C 1280.535156 853.625 1252.78125 901.066406 1243.480469 996.890625 L 1190.753906 996.890625 L 1190.753906 781.921875 L 1221.039062 781.921875 C 1266.5 781.921875 1303.484375 744.929688 1303.484375 699.460938 C 1303.484375 653.988281 1266.5 616.996094 1221.039062 616.996094 C 1175.578125 616.996094 1138.59375 653.988281 1138.59375 699.460938 L 1138.59375 729.75 L 1106.980469 729.75 L 1106.980469 699.460938 C 1106.980469 653.988281 1069.996094 616.996094 1024.535156 616.996094 C 979.074219 616.996094 942.089844 653.988281 942.089844 699.460938 C 942.089844 744.929688 979.074219 781.921875 1024.535156 781.921875 L 1054.820312 781.921875 L 1054.820312 996.890625 L 1002.089844 996.890625 C 992.792969 901.066406 965.039062 853.625 942.402344 814.925781 C 922.234375 780.457031 906.3125 753.230469 906.3125 697.671875 C 906.3125 578.28125 1003.421875 481.148438 1122.785156 481.148438 Z M 1190.753906 729.75 L 1190.753906 699.460938 C 1190.753906 682.753906 1204.339844 669.167969 1221.039062 669.167969 C 1237.738281 669.167969 1251.324219 682.753906 1251.324219 699.460938 C 1251.324219 716.160156 1237.742188 729.75 1221.039062 729.75 Z M 1096.707031 373.050781 L 1096.707031 315.902344 C 1096.707031 301.496094 1108.382812 289.816406 1122.785156 289.816406 C 1137.1875 289.816406 1148.867188 301.496094 1148.867188 315.902344 L 1148.867188 373.050781 C 1148.867188 387.457031 1137.1875 399.136719 1122.785156 399.136719 C 1108.382812 399.136719 1096.707031 387.457031 1096.707031 373.050781 Z M 888.691406 385.636719 C 881.488281 373.160156 885.761719 357.203125 898.234375 350 C 910.710938 342.796875 926.660156 347.074219 933.863281 359.550781 L 962.429688 409.039062 C 969.628906 421.515625 965.355469 437.472656 952.882812 444.675781 C 948.777344 447.046875 944.292969 448.171875 939.867188 448.171875 C 930.851562 448.171875 922.085938 443.492188 917.253906 435.125 Z M 733.851562 514.417969 C 741.054688 501.941406 757 497.664062 769.476562 504.871094 L 818.957031 533.445312 C 831.433594 540.648438 835.707031 556.601562 828.503906 569.078125 C 823.671875 577.445312 814.90625 582.125 805.894531 582.125 C 801.46875 582.125 796.984375 580.996094 792.875 578.625 L 743.394531 550.050781 C 730.925781 542.847656 726.652344 526.894531 733.851562 514.417969 Z M 1283.144531 409.039062 L 1311.710938 359.550781 C 1318.914062 347.070312 1334.863281 342.796875 1347.335938 350 C 1359.808594 357.203125 1364.082031 373.160156 1356.882812 385.636719 L 1328.3125 435.125 C 1323.484375 443.492188 1314.714844 448.171875 1305.703125 448.171875 C 1301.277344 448.171875 1296.792969 447.042969 1292.683594 444.675781 C 1280.214844 437.46875 1275.941406 421.515625 1283.144531 409.039062 Z M 1417.066406 569.082031 C 1409.867188 556.605469 1414.140625 540.652344 1426.613281 533.449219 L 1476.09375 504.871094 C 1488.570312 497.671875 1504.519531 501.941406 1511.722656 514.417969 C 1518.925781 526.894531 1514.648438 542.847656 1502.175781 550.050781 L 1452.695312 578.628906 C 1448.589844 581.003906 1444.101562 582.128906 1439.679688 582.128906 C 1430.664062 582.128906 1421.894531 577.449219 1417.066406 569.082031 Z M 1789.160156 1413.214844 C 1775.746094 1390.816406 1720.847656 1324.214844 1577.597656 1407.660156 L 1330.863281 1551.40625 C 1321.855469 1556.648438 1312.734375 1560.738281 1303.347656 1563.699219 C 1306.140625 1557.910156 1308.445312 1551.683594 1310.222656 1545.035156 C 1323.414062 1495.796875 1294.222656 1444.414062 1243.773438 1428.050781 C 1242.65625 1427.691406 1241.515625 1427.40625 1240.359375 1427.191406 C 1169.792969 1414.460938 1099.988281 1389.21875 1043.902344 1368.9375 C 1024.332031 1361.859375 1005.84375 1355.175781 990.082031 1350.066406 C 925.316406 1329.046875 867.199219 1354.828125 818.886719 1382.832031 L 639.015625 1487.070312 L 627.828125 1467.296875 C 619.636719 1452.820312 606.261719 1442.390625 590.171875 1437.929688 C 574.074219 1433.460938 557.242188 1435.523438 542.777344 1443.71875 L 473.546875 1482.90625 C 443.597656 1499.855469 433.023438 1538.015625 449.96875 1567.976562 L 653.503906 1927.679688 C 664.972656 1947.949219 686.144531 1959.339844 707.917969 1959.339844 C 718.324219 1959.339844 728.867188 1956.738281 738.554688 1951.257812 L 807.785156 1912.066406 C 837.730469 1895.117188 848.304688 1856.953125 831.355469 1826.996094 L 808.347656 1786.335938 L 845.09375 1765.113281 L 1159.433594 1849.363281 C 1177.242188 1854.136719 1194.957031 1856.507812 1212.382812 1856.507812 C 1247.632812 1856.503906 1281.6875 1846.796875 1312.824219 1827.628906 L 1760.59375 1551.851562 C 1803.257812 1525.574219 1816.871094 1459.496094 1789.160156 1413.214844 Z M 782.089844 1866.660156 L 712.863281 1905.851562 C 708.03125 1908.582031 701.632812 1906.816406 698.898438 1901.980469 L 495.371094 1542.273438 C 493.578125 1539.105469 494.027344 1536.042969 494.453125 1534.496094 C 494.878906 1532.957031 496.074219 1530.09375 499.238281 1528.304688 L 568.472656 1489.117188 C 570.230469 1488.121094 571.953125 1487.820312 573.40625 1487.820312 C 574.566406 1487.820312 575.554688 1488.015625 576.242188 1488.203125 C 577.785156 1488.632812 580.644531 1489.820312 582.433594 1492.992188 L 785.964844 1852.695312 C 788.699219 1857.523438 786.925781 1863.921875 782.089844 1866.660156 Z M 1733.246094 1507.417969 L 1285.480469 1783.195312 C 1250.988281 1804.433594 1213.125 1809.746094 1172.941406 1798.960938 L 848.164062 1711.917969 C 841.480469 1710.128906 834.363281 1711.0625 828.375 1714.527344 L 782.660156 1740.925781 L 664.707031 1532.472656 L 845.035156 1427.96875 C 885.328125 1404.621094 928.835938 1385.03125 973.992188 1399.6875 C 988.929688 1404.535156 1006.183594 1410.773438 1026.167969 1418 C 1083.605469 1438.769531 1154.972656 1464.574219 1229.179688 1478.183594 C 1252.679688 1486.550781 1265.816406 1509.21875 1259.839844 1531.53125 C 1252.601562 1558.558594 1231.0625 1563.824219 1212.296875 1562.757812 C 1172.167969 1554.925781 1136.007812 1544.667969 1098.113281 1533.917969 C 1081.707031 1529.261719 1064.742188 1524.449219 1046.882812 1519.664062 C 1032.964844 1515.945312 1018.671875 1524.195312 1014.941406 1538.109375 C 1011.214844 1552.027344 1019.472656 1566.328125 1033.382812 1570.058594 C 1050.875 1574.75 1067.652344 1579.503906 1083.882812 1584.109375 C 1120.082031 1594.378906 1154.746094 1604.210938 1193.144531 1612.132812 C 1208.152344 1615.316406 1221.5 1617.523438 1229.871094 1618.863281 C 1276.742188 1626.359375 1318.371094 1619.050781 1357.113281 1596.484375 L 1603.851562 1452.742188 C 1672.636719 1412.667969 1725.1875 1407.910156 1744.410156 1440.019531 C 1757.523438 1461.921875 1751.890625 1495.9375 1733.246094 1507.417969 Z M 582.425781 1547.757812 C 584.402344 1561.265625 575.050781 1573.820312 561.542969 1575.796875 C 548.039062 1577.769531 535.488281 1568.417969 533.511719 1554.910156 C 531.535156 1541.402344 540.886719 1528.847656 554.390625 1526.871094 C 567.902344 1524.894531 580.449219 1534.246094 582.425781 1547.757812 Z M 582.425781 1547.757812 " fill-opacity="1" fill-rule="evenodd"/></g></svg>