<svg xmlns="http://www.w3.org/2000/svg" xmlns:xlink="http://www.w3.org/1999/xlink" width="3000" zoomAndPan="magnify" viewBox="0 0 2250 2250.000011" height="3000" preserveAspectRatio="xMidYMid meet" version="1.0"><defs><clipPath id="422398fe0e"><path d="M 1071 345.515625 L 2000.609375 345.515625 L 2000.609375 1903.324219 L 1071 1903.324219 Z M 1071 345.515625 " clip-rule="nonzero"/></clipPath><clipPath id="260733e43b"><path d="M 225.398438 369 L 1391 369 L 1391 1535 L 225.398438 1535 Z M 225.398438 369 " clip-rule="nonzero"/></clipPath></defs><g clip-path="url(#422398fe0e)"><path fill="#acd818" d="M 2000.101562 1213.132812 L 1387.117188 1903.324219 L 1071.3125 1548.472656 C 1300.183594 1447.339844 1459.859375 1218.457031 1459.859375 952.316406 C 1459.859375 698.597656 1313.488281 477.699219 1101.472656 370.355469 L 1101.472656 345.515625 L 1673.652344 345.515625 L 1673.652344 1213.132812 Z M 2000.101562 1213.132812 " fill-opacity="1" fill-rule="nonzero"/></g><g clip-path="url(#260733e43b)"><path fill="#223647" d="M 955.101562 1076.515625 C 955.101562 1089.824219 952.441406 1101.355469 946.230469 1112 C 940.910156 1121.757812 932.925781 1130.632812 923.167969 1136.839844 C 913.410156 1143.9375 901.875 1149.261719 888.570312 1153.695312 C 875.261719 1158.132812 861.070312 1161.679688 846.875 1164.34375 L 846.875 998.449219 C 863.730469 1001.109375 877.925781 1004.65625 891.230469 1009.09375 C 904.539062 1013.527344 916.070312 1017.964844 924.941406 1024.175781 C 934.699219 1030.382812 941.796875 1037.480469 947.117188 1045.464844 C 952.441406 1053.449219 955.101562 1064.097656 955.101562 1076.515625 Z M 662.359375 817.472656 C 662.359375 839.652344 670.34375 857.394531 687.199219 869.8125 C 703.167969 882.234375 728.890625 891.105469 763.488281 897.316406 L 763.488281 732.308594 C 696.070312 740.292969 662.359375 768.679688 662.359375 817.472656 Z M 955.101562 1076.515625 C 955.101562 1089.824219 952.441406 1101.355469 946.230469 1112 C 940.910156 1121.757812 932.925781 1130.632812 923.167969 1136.839844 C 913.410156 1143.9375 901.875 1149.261719 888.570312 1153.695312 C 875.261719 1158.132812 861.070312 1161.679688 846.875 1164.34375 L 846.875 998.449219 C 863.730469 1001.109375 877.925781 1004.65625 891.230469 1009.09375 C 904.539062 1013.527344 916.070312 1017.964844 924.941406 1024.175781 C 934.699219 1030.382812 941.796875 1037.480469 947.117188 1045.464844 C 952.441406 1053.449219 955.101562 1064.097656 955.101562 1076.515625 Z M 762.601562 732.308594 L 762.601562 897.316406 C 728.003906 891.105469 703.167969 881.347656 686.3125 869.8125 C 670.34375 857.394531 661.472656 840.539062 661.472656 817.472656 C 662.359375 768.679688 696.070312 740.292969 762.601562 732.308594 Z M 1390.667969 951.429688 C 1390.667969 1273.460938 1129.859375 1534.277344 807.84375 1534.277344 C 486.714844 1534.277344 225.90625 1273.460938 225.90625 951.429688 C 225.90625 630.289062 486.714844 369.46875 808.730469 369.46875 C 1129.859375 369.46875 1390.667969 630.289062 1390.667969 951.429688 Z M 1054.457031 1075.628906 C 1054.457031 1045.464844 1048.246094 1020.625 1036.714844 1001.109375 C 1024.296875 981.59375 1008.328125 965.625 988.8125 954.089844 C 969.296875 941.671875 947.117188 932.800781 922.277344 925.703125 C 897.441406 919.492188 872.601562 913.28125 846.875 908.847656 L 846.875 729.644531 C 881.472656 731.421875 912.519531 734.96875 940.910156 741.179688 C 969.296875 747.390625 996.796875 754.484375 1023.410156 762.46875 L 1023.410156 673.757812 C 999.457031 665.773438 971.957031 659.5625 942.683594 654.238281 C 913.410156 648.917969 880.585938 646.253906 845.988281 644.480469 L 845.988281 580.609375 L 761.714844 580.609375 L 761.714844 647.144531 C 732.441406 649.804688 705.828125 656.015625 680.988281 665.773438 C 656.148438 674.644531 634.859375 687.0625 617.117188 702.144531 C 599.375 717.226562 586.070312 734.082031 575.425781 755.375 C 565.664062 775.777344 560.34375 797.957031 560.34375 823.683594 C 560.34375 853.84375 565.664062 878.683594 577.199219 898.203125 C 588.730469 917.71875 603.8125 933.6875 622.441406 946.105469 C 641.070312 958.527344 663.246094 967.398438 686.3125 974.496094 C 710.261719 980.707031 735.101562 986.027344 759.941406 990.464844 L 759.941406 1172.328125 L 758.167969 1172.328125 C 731.554688 1172.328125 705.828125 1170.550781 679.214844 1167.003906 C 652.601562 1163.453125 630.425781 1159.019531 611.796875 1153.695312 C 593.164062 1148.375 577.199219 1143.9375 563.890625 1138.613281 L 563.890625 1226.441406 C 572.761719 1230.878906 583.40625 1234.425781 597.601562 1238.863281 C 611.796875 1242.410156 627.761719 1245.957031 645.503906 1248.621094 C 663.246094 1251.28125 681.875 1253.941406 702.277344 1255.71875 C 722.683594 1257.492188 742.199219 1258.378906 762.601562 1258.378906 L 762.601562 1322.253906 L 846.875 1322.253906 L 846.875 1250.394531 C 878.8125 1245.957031 907.199219 1238.863281 932.925781 1229.988281 C 958.648438 1220.230469 979.941406 1208.699219 998.570312 1193.617188 C 1017.199219 1179.421875 1030.503906 1161.679688 1040.261719 1142.164062 C 1050.019531 1121.757812 1054.457031 1099.582031 1054.457031 1075.628906 Z M 947.117188 1045.464844 C 952.441406 1053.449219 955.101562 1064.097656 955.101562 1076.515625 C 955.101562 1089.824219 952.441406 1101.355469 946.230469 1112 C 940.910156 1121.757812 932.925781 1130.632812 923.167969 1136.839844 C 913.410156 1143.9375 901.875 1149.261719 888.570312 1153.695312 C 875.261719 1158.132812 861.070312 1161.679688 846.875 1164.34375 L 846.875 998.449219 C 863.730469 1001.109375 877.925781 1004.65625 891.230469 1009.09375 C 904.539062 1013.527344 916.070312 1017.964844 924.941406 1024.175781 C 934.699219 1030.386719 941.796875 1037.480469 947.117188 1045.464844 Z M 762.601562 732.308594 L 762.601562 897.316406 C 728.003906 891.105469 703.167969 881.347656 686.3125 869.8125 C 670.34375 857.394531 661.472656 840.539062 661.472656 817.472656 C 662.359375 768.679688 696.070312 740.292969 762.601562 732.308594 Z M 762.601562 732.308594 " fill-opacity="1" fill-rule="nonzero"/></g><path fill="#ffffff" d="M 1036.714844 1001.996094 C 1024.296875 982.480469 1008.328125 966.511719 988.8125 954.976562 C 969.296875 942.558594 947.117188 933.6875 922.277344 926.589844 C 897.441406 920.378906 872.601562 914.171875 846.875 909.734375 L 846.875 729.644531 C 881.472656 731.421875 912.519531 734.96875 940.910156 741.179688 C 969.296875 747.390625 996.796875 754.484375 1023.410156 762.46875 L 1023.410156 673.757812 C 999.457031 665.773438 971.957031 659.5625 942.683594 654.238281 C 913.410156 648.917969 880.585938 646.253906 845.988281 644.480469 L 845.988281 580.609375 L 761.714844 580.609375 L 761.714844 647.144531 C 732.441406 649.804688 705.828125 656.015625 680.988281 665.773438 C 656.148438 674.644531 634.859375 687.0625 617.117188 702.144531 C 599.375 717.226562 586.070312 734.082031 575.425781 755.375 C 565.664062 775.777344 560.34375 797.957031 560.34375 823.683594 C 560.34375 853.84375 565.664062 878.683594 577.199219 898.203125 C 588.730469 917.71875 603.8125 933.6875 622.441406 946.105469 C 641.070312 958.527344 663.246094 967.398438 686.3125 974.496094 C 710.261719 980.707031 735.101562 986.027344 759.941406 990.464844 L 759.941406 1172.328125 L 758.167969 1172.328125 C 731.554688 1172.328125 705.828125 1170.550781 679.214844 1167.003906 C 652.601562 1163.453125 630.425781 1159.019531 611.796875 1153.695312 C 593.164062 1148.375 577.199219 1143.9375 563.890625 1138.613281 L 563.890625 1226.441406 C 572.761719 1230.878906 583.40625 1234.425781 597.601562 1238.863281 C 611.796875 1242.410156 627.761719 1245.957031 645.503906 1248.621094 C 663.246094 1251.28125 681.875 1253.941406 702.277344 1255.71875 C 722.683594 1257.492188 742.199219 1258.378906 762.601562 1258.378906 L 762.601562 1322.253906 L 846.875 1322.253906 L 846.875 1250.394531 C 878.8125 1245.957031 907.199219 1238.863281 932.925781 1229.988281 C 958.648438 1220.230469 979.941406 1208.699219 998.570312 1193.617188 C 1017.199219 1179.421875 1030.503906 1161.679688 1040.261719 1142.164062 C 1050.019531 1122.648438 1054.457031 1100.46875 1054.457031 1076.515625 C 1054.457031 1045.464844 1049.132812 1020.625 1036.714844 1001.996094 Z M 762.601562 897.316406 C 728.003906 891.105469 703.167969 881.347656 686.3125 869.8125 C 670.34375 857.394531 661.472656 840.539062 661.472656 817.472656 C 661.472656 769.566406 695.183594 741.179688 761.714844 732.308594 L 761.714844 897.316406 Z M 946.230469 1111.113281 C 940.910156 1120.871094 932.925781 1129.742188 923.167969 1135.953125 C 913.410156 1143.050781 901.875 1148.375 888.570312 1152.808594 C 875.261719 1157.246094 861.070312 1160.792969 846.875 1163.453125 L 846.875 998.449219 C 863.730469 1001.109375 877.925781 1004.65625 891.230469 1009.09375 C 904.539062 1013.527344 916.070312 1017.964844 924.941406 1024.175781 C 934.699219 1030.382812 941.796875 1037.480469 947.117188 1045.464844 C 952.441406 1053.449219 955.101562 1064.097656 955.101562 1076.515625 C 955.101562 1089.824219 951.554688 1101.355469 946.230469 1111.113281 Z M 946.230469 1111.113281 " fill-opacity="1" fill-rule="nonzero"/></svg>