<svg xmlns="http://www.w3.org/2000/svg" xmlns:xlink="http://www.w3.org/1999/xlink" width="3000" zoomAndPan="magnify" viewBox="0 0 2250 2250.000011" height="3000" preserveAspectRatio="xMidYMid meet" version="1.0"><path fill="#079b11" d="M 1907.78125 786.765625 C 1833.9375 658.601562 1734.035156 549.988281 1612.414062 471.785156 C 1584.179688 452.234375 1545.085938 460.921875 1527.710938 489.164062 C 1508.164062 517.402344 1516.851562 556.503906 1545.085938 573.882812 C 1610.242188 617.328125 1668.878906 669.460938 1718.832031 730.285156 C 1951.214844 1010.511719 1957.730469 1403.695312 1762.269531 1690.4375 C 1575.492188 1620.925781 1362.652344 1579.652344 1138.957031 1577.476562 C 1138.957031 1451.484375 1191.078125 1381.972656 1221.484375 1338.527344 C 1290.984375 1360.25 1382.199219 1395.007812 1505.992188 1271.1875 C 1634.128906 1145.195312 1673.222656 995.304688 1686.253906 904.070312 C 1690.597656 864.96875 1658.019531 830.210938 1618.929688 834.554688 C 1523.367188 843.246094 1356.136719 873.65625 1223.65625 1006.167969 C 1102.035156 1129.988281 1121.582031 1206.015625 1145.472656 1240.773438 C 1232.34375 1127.816406 1345.277344 1040.921875 1499.476562 1001.824219 C 1451.699219 1032.234375 1336.589844 1112.609375 1249.71875 1199.5 C 1178.050781 1271.1875 1117.238281 1349.386719 1078.144531 1429.761719 C 1054.253906 1373.285156 1012.992188 1303.769531 947.835938 1234.257812 C 865.308594 1145.195312 754.542969 1062.648438 706.765625 1032.234375 C 871.824219 1071.335938 967.382812 1169.089844 1047.738281 1277.703125 C 1073.800781 1242.945312 1095.519531 1169.089844 978.242188 1043.097656 C 852.277344 908.414062 689.390625 873.65625 596.003906 860.625 C 556.910156 856.28125 522.160156 888.863281 524.332031 927.964844 C 533.019531 1017.027344 567.769531 1164.742188 689.390625 1292.910156 C 793.636719 1403.695312 878.339844 1392.835938 943.492188 1375.457031 C 967.382812 1403.695312 1019.507812 1477.554688 1021.679688 1573.132812 C 815.355469 1581.824219 622.0625 1620.925781 448.320312 1686.09375 C 341.898438 1531.859375 294.121094 1349.386719 311.496094 1160.398438 C 333.210938 954.03125 433.117188 760.699219 598.175781 626.015625 C 752.371094 497.851562 945.664062 434.855469 1143.300781 443.546875 L 1002.132812 569.539062 C 978.242188 591.261719 976.070312 628.191406 997.789062 652.085938 C 1008.648438 665.117188 1026.023438 671.636719 1041.222656 671.636719 C 1054.253906 671.636719 1069.457031 667.289062 1080.316406 656.429688 L 1321.390625 439.199219 C 1345.277344 417.476562 1347.449219 380.546875 1325.734375 356.652344 L 1108.550781 115.53125 C 1086.832031 91.632812 1049.910156 89.460938 1026.023438 111.183594 C 1002.132812 132.90625 999.960938 169.835938 1021.679688 193.730469 L 1136.785156 319.726562 C 913.085938 313.207031 693.734375 384.894531 519.988281 530.4375 C 255.027344 749.835938 133.40625 1090.886719 207.246094 1449.3125 C 215.933594 1492.757812 228.964844 1534.03125 246.339844 1573.132812 C 385.335938 1909.839844 680.703125 2122.722656 1021.679688 2155.308594 C 1049.910156 2157.480469 1080.316406 2159.652344 1108.550781 2159.652344 C 1340.933594 2159.652344 1564.632812 2072.761719 1738.378906 1907.667969 C 2044.605469 1620.925781 2116.273438 1149.539062 1907.78125 786.765625 Z M 1907.78125 786.765625 " fill-opacity="1" fill-rule="nonzero"/></svg>