<svg xmlns="http://www.w3.org/2000/svg" xmlns:xlink="http://www.w3.org/1999/xlink" width="3000" zoomAndPan="magnify" viewBox="0 0 2250 2250.000011" height="3000" preserveAspectRatio="xMidYMid meet" version="1.0"><defs><clipPath id="91145c8534"><path d="M 105.496094 652 L 1982 652 L 1982 1687.871094 L 105.496094 1687.871094 Z M 105.496094 652 " clip-rule="nonzero"/></clipPath><clipPath id="af296db3fb"><path d="M 1703 522.46875 L 2111.605469 522.46875 L 2111.605469 931 L 1703 931 Z M 1703 522.46875 " clip-rule="nonzero"/></clipPath></defs><g clip-path="url(#91145c8534)"><path fill="#404041" d="M 190.355469 1687.871094 C 168.636719 1687.871094 146.917969 1679.585938 130.359375 1663.019531 C 97.210938 1629.894531 97.210938 1576.1875 130.359375 1543.054688 L 825.554688 848.113281 C 858.703125 814.992188 912.429688 814.992188 945.566406 848.113281 L 1305.746094 1208.15625 L 1836.417969 677.691406 C 1869.550781 644.566406 1923.28125 644.566406 1956.414062 677.691406 C 1989.5625 710.828125 1989.5625 764.53125 1956.414062 797.65625 L 1365.746094 1388.097656 C 1332.609375 1421.21875 1278.882812 1421.21875 1245.734375 1388.097656 L 885.566406 1028.070312 L 250.355469 1663.019531 C 233.796875 1679.585938 212.074219 1687.871094 190.355469 1687.871094 " fill-opacity="1" fill-rule="nonzero"/></g><g clip-path="url(#af296db3fb)"><path fill="#404041" d="M 2002.242188 930.980469 L 2111.722656 522.457031 L 1703.039062 631.882812 Z M 2002.242188 930.980469 " fill-opacity="1" fill-rule="nonzero"/></g></svg>