<svg xmlns="http://www.w3.org/2000/svg" xmlns:xlink="http://www.w3.org/1999/xlink" width="3000" zoomAndPan="magnify" viewBox="0 0 2250 2250.000011" height="3000" preserveAspectRatio="xMidYMid meet" version="1.0"><defs><clipPath id="bcb3aaf5bf"><path d="M 459.1875 689 L 1790 689 L 1790 1561 L 459.1875 1561 Z M 459.1875 689 " clip-rule="nonzero"/></clipPath></defs><g clip-path="url(#bcb3aaf5bf)"><path fill="#000000" d="M 1714.316406 689.757812 L 534.335938 689.757812 C 533.097656 689.761719 531.859375 689.792969 530.625 689.855469 C 529.390625 689.914062 528.15625 690.007812 526.925781 690.128906 C 525.695312 690.253906 524.464844 690.40625 523.242188 690.589844 C 522.019531 690.769531 520.800781 690.984375 519.585938 691.226562 C 518.371094 691.46875 517.164062 691.738281 515.964844 692.042969 C 514.765625 692.34375 513.574219 692.675781 512.390625 693.035156 C 511.207031 693.394531 510.03125 693.78125 508.867188 694.199219 C 507.703125 694.617188 506.546875 695.0625 505.40625 695.539062 C 504.261719 696.011719 503.132812 696.515625 502.011719 697.042969 C 500.894531 697.574219 499.789062 698.128906 498.699219 698.714844 C 497.609375 699.296875 496.53125 699.910156 495.472656 700.546875 C 494.410156 701.183594 493.363281 701.84375 492.335938 702.53125 C 491.308594 703.21875 490.296875 703.933594 489.304688 704.671875 C 488.308594 705.40625 487.335938 706.167969 486.378906 706.953125 C 485.421875 707.738281 484.484375 708.546875 483.566406 709.378906 C 482.652344 710.210938 481.753906 711.0625 480.878906 711.9375 C 480.003906 712.8125 479.152344 713.710938 478.320312 714.628906 C 477.488281 715.542969 476.683594 716.480469 475.898438 717.4375 C 475.113281 718.394531 474.351562 719.371094 473.613281 720.363281 C 472.875 721.359375 472.164062 722.367188 471.476562 723.398438 C 470.789062 724.425781 470.125 725.472656 469.488281 726.535156 C 468.851562 727.59375 468.242188 728.671875 467.660156 729.761719 C 467.074219 730.855469 466.519531 731.957031 465.988281 733.078125 C 465.460938 734.195312 464.957031 735.328125 464.484375 736.46875 C 464.007812 737.613281 463.5625 738.769531 463.144531 739.933594 C 462.730469 741.097656 462.339844 742.273438 461.980469 743.457031 C 461.621094 744.640625 461.289062 745.832031 460.988281 747.035156 C 460.6875 748.234375 460.414062 749.441406 460.171875 750.65625 C 459.929688 751.867188 459.71875 753.085938 459.535156 754.3125 C 459.351562 755.535156 459.199219 756.761719 459.078125 757.996094 C 458.953125 759.226562 458.863281 760.460938 458.800781 761.695312 C 458.738281 762.933594 458.707031 764.167969 458.707031 765.40625 L 458.707031 1484.796875 C 458.707031 1486.035156 458.738281 1487.269531 458.800781 1488.507812 C 458.863281 1489.742188 458.953125 1490.976562 459.078125 1492.207031 C 459.199219 1493.441406 459.351562 1494.667969 459.535156 1495.890625 C 459.71875 1497.117188 459.929688 1498.335938 460.171875 1499.546875 C 460.414062 1500.761719 460.6875 1501.96875 460.988281 1503.167969 C 461.289062 1504.371094 461.621094 1505.5625 461.980469 1506.746094 C 462.339844 1507.929688 462.730469 1509.105469 463.144531 1510.269531 C 463.5625 1511.433594 464.007812 1512.589844 464.484375 1513.734375 C 464.957031 1514.875 465.460938 1516.007812 465.988281 1517.125 C 466.519531 1518.246094 467.074219 1519.347656 467.660156 1520.441406 C 468.242188 1521.53125 468.851562 1522.609375 469.488281 1523.667969 C 470.125 1524.730469 470.789062 1525.777344 471.476562 1526.804688 C 472.164062 1527.835938 472.875 1528.84375 473.613281 1529.839844 C 474.351562 1530.832031 475.113281 1531.808594 475.898438 1532.765625 C 476.683594 1533.722656 477.488281 1534.660156 478.320312 1535.574219 C 479.152344 1536.492188 480.003906 1537.390625 480.878906 1538.265625 C 481.753906 1539.140625 482.652344 1539.992188 483.566406 1540.824219 C 484.484375 1541.65625 485.421875 1542.464844 486.378906 1543.25 C 487.332031 1544.035156 488.308594 1544.796875 489.304688 1545.53125 C 490.296875 1546.269531 491.308594 1546.984375 492.335938 1547.671875 C 493.363281 1548.359375 494.410156 1549.019531 495.472656 1549.65625 C 496.53125 1550.292969 497.609375 1550.90625 498.699219 1551.488281 C 499.789062 1552.074219 500.894531 1552.628906 502.011719 1553.160156 C 503.132812 1553.6875 504.261719 1554.191406 505.40625 1554.664062 C 506.546875 1555.140625 507.703125 1555.585938 508.867188 1556.003906 C 510.03125 1556.421875 511.207031 1556.808594 512.390625 1557.167969 C 513.574219 1557.527344 514.765625 1557.859375 515.964844 1558.160156 C 517.164062 1558.464844 518.371094 1558.734375 519.585938 1558.976562 C 520.800781 1559.21875 522.019531 1559.433594 523.242188 1559.613281 C 524.464844 1559.796875 525.695312 1559.949219 526.925781 1560.074219 C 528.15625 1560.195312 529.390625 1560.289062 530.625 1560.347656 C 531.859375 1560.410156 533.097656 1560.441406 534.335938 1560.445312 L 1714.316406 1560.445312 C 1715.554688 1560.441406 1716.792969 1560.410156 1718.027344 1560.351562 C 1719.261719 1560.289062 1720.496094 1560.195312 1721.726562 1560.074219 C 1722.960938 1559.953125 1724.1875 1559.800781 1725.410156 1559.617188 C 1726.636719 1559.433594 1727.855469 1559.222656 1729.066406 1558.980469 C 1730.28125 1558.738281 1731.488281 1558.464844 1732.6875 1558.164062 C 1733.886719 1557.863281 1735.082031 1557.53125 1736.265625 1557.171875 C 1737.449219 1556.8125 1738.625 1556.421875 1739.789062 1556.003906 C 1740.953125 1555.585938 1742.105469 1555.140625 1743.25 1554.667969 C 1744.394531 1554.195312 1745.523438 1553.691406 1746.644531 1553.164062 C 1747.761719 1552.632812 1748.867188 1552.074219 1749.957031 1551.492188 C 1751.046875 1550.90625 1752.125 1550.296875 1753.1875 1549.660156 C 1754.246094 1549.023438 1755.292969 1548.363281 1756.320312 1547.675781 C 1757.351562 1546.988281 1758.359375 1546.273438 1759.355469 1545.535156 C 1760.347656 1544.800781 1761.324219 1544.039062 1762.28125 1543.253906 C 1763.238281 1542.46875 1764.175781 1541.660156 1765.089844 1540.828125 C 1766.007812 1539.996094 1766.902344 1539.144531 1767.777344 1538.269531 C 1768.652344 1537.394531 1769.507812 1536.496094 1770.339844 1535.578125 C 1771.167969 1534.664062 1771.976562 1533.726562 1772.761719 1532.769531 C 1773.546875 1531.8125 1774.308594 1530.835938 1775.046875 1529.84375 C 1775.785156 1528.847656 1776.496094 1527.835938 1777.183594 1526.808594 C 1777.871094 1525.78125 1778.535156 1524.734375 1779.171875 1523.671875 C 1779.808594 1522.613281 1780.417969 1521.535156 1781.003906 1520.445312 C 1781.585938 1519.351562 1782.144531 1518.246094 1782.671875 1517.128906 C 1783.203125 1516.007812 1783.703125 1514.878906 1784.179688 1513.734375 C 1784.652344 1512.59375 1785.097656 1511.4375 1785.515625 1510.273438 C 1785.933594 1509.109375 1786.324219 1507.933594 1786.683594 1506.75 C 1787.042969 1505.5625 1787.375 1504.371094 1787.675781 1503.171875 C 1787.976562 1501.972656 1788.25 1500.765625 1788.492188 1499.550781 C 1788.734375 1498.335938 1788.945312 1497.117188 1789.128906 1495.894531 C 1789.3125 1494.667969 1789.464844 1493.441406 1789.585938 1492.207031 C 1789.707031 1490.976562 1789.800781 1489.742188 1789.863281 1488.507812 C 1789.925781 1487.269531 1789.957031 1486.035156 1789.957031 1484.796875 L 1789.957031 765.40625 C 1789.957031 764.167969 1789.925781 762.933594 1789.863281 761.695312 C 1789.800781 760.460938 1789.707031 759.226562 1789.585938 757.996094 C 1789.464844 756.761719 1789.3125 755.535156 1789.128906 754.308594 C 1788.945312 753.085938 1788.734375 751.867188 1788.492188 750.652344 C 1788.25 749.441406 1787.976562 748.230469 1787.675781 747.03125 C 1787.375 745.832031 1787.042969 744.640625 1786.683594 743.453125 C 1786.324219 742.269531 1785.933594 741.09375 1785.515625 739.929688 C 1785.097656 738.765625 1784.652344 737.609375 1784.179688 736.46875 C 1783.703125 735.324219 1783.203125 734.195312 1782.671875 733.074219 C 1782.144531 731.957031 1781.585938 730.851562 1781.003906 729.757812 C 1780.417969 728.667969 1779.808594 727.589844 1779.171875 726.53125 C 1778.535156 725.46875 1777.875 724.421875 1777.183594 723.394531 C 1776.496094 722.367188 1775.785156 721.355469 1775.046875 720.359375 C 1774.308594 719.367188 1773.546875 718.390625 1772.761719 717.433594 C 1771.976562 716.476562 1771.167969 715.539062 1770.339844 714.625 C 1769.507812 713.707031 1768.652344 712.808594 1767.777344 711.933594 C 1766.902344 711.058594 1766.007812 710.207031 1765.089844 709.375 C 1764.175781 708.542969 1763.238281 707.734375 1762.28125 706.949219 C 1761.324219 706.164062 1760.347656 705.402344 1759.355469 704.667969 C 1758.359375 703.929688 1757.351562 703.214844 1756.320312 702.527344 C 1755.292969 701.839844 1754.246094 701.179688 1753.1875 700.542969 C 1752.125 699.90625 1751.046875 699.292969 1749.957031 698.710938 C 1748.867188 698.128906 1747.761719 697.570312 1746.644531 697.039062 C 1745.523438 696.511719 1744.394531 696.007812 1743.25 695.535156 C 1742.105469 695.0625 1740.953125 694.613281 1739.789062 694.199219 C 1738.625 693.78125 1737.449219 693.390625 1736.265625 693.03125 C 1735.082031 692.671875 1733.886719 692.339844 1732.6875 692.039062 C 1731.488281 691.738281 1730.28125 691.464844 1729.066406 691.222656 C 1727.855469 690.980469 1726.636719 690.769531 1725.410156 690.585938 C 1724.1875 690.402344 1722.960938 690.25 1721.726562 690.128906 C 1720.496094 690.007812 1719.261719 689.914062 1718.027344 689.851562 C 1716.792969 689.792969 1715.554688 689.761719 1714.316406 689.757812 Z M 1333.550781 1125.101562 L 1748.984375 754.6875 C 1750.132812 758.167969 1750.730469 761.742188 1750.777344 765.40625 L 1750.777344 1484.796875 C 1750.730469 1488.460938 1750.132812 1492.035156 1748.984375 1495.515625 Z M 1714.273438 728.960938 C 1715.660156 729.019531 1717.042969 729.15625 1718.414062 729.375 L 1148.453125 1237.542969 C 1147.628906 1238.28125 1146.769531 1238.976562 1145.882812 1239.636719 C 1144.996094 1240.292969 1144.078125 1240.910156 1143.136719 1241.484375 C 1142.191406 1242.058594 1141.222656 1242.589844 1140.230469 1243.074219 C 1139.238281 1243.5625 1138.226562 1244 1137.191406 1244.394531 C 1136.160156 1244.789062 1135.109375 1245.136719 1134.046875 1245.433594 C 1132.984375 1245.734375 1131.90625 1245.980469 1130.820312 1246.183594 C 1129.734375 1246.382812 1128.640625 1246.53125 1127.539062 1246.632812 C 1126.4375 1246.734375 1125.335938 1246.785156 1124.230469 1246.785156 C 1123.125 1246.785156 1122.023438 1246.734375 1120.921875 1246.632812 C 1119.820312 1246.53125 1118.726562 1246.382812 1117.640625 1246.183594 C 1116.554688 1245.980469 1115.480469 1245.734375 1114.414062 1245.433594 C 1113.351562 1245.136719 1112.300781 1244.789062 1111.269531 1244.394531 C 1110.238281 1244 1109.222656 1243.5625 1108.230469 1243.074219 C 1107.238281 1242.589844 1106.269531 1242.058594 1105.328125 1241.484375 C 1104.382812 1240.910156 1103.46875 1240.292969 1102.578125 1239.636719 C 1101.691406 1238.976562 1100.835938 1238.28125 1100.011719 1237.542969 L 530.203125 729.375 C 531.574219 729.15625 532.949219 729.019531 534.335938 728.960938 Z M 499.691406 1495.515625 C 498.542969 1492.035156 497.945312 1488.460938 497.898438 1484.796875 L 497.898438 765.40625 C 497.945312 761.742188 498.542969 758.167969 499.691406 754.6875 L 915.113281 1125.101562 Z M 534.335938 1521.277344 C 532.949219 1521.21875 531.574219 1521.078125 530.203125 1520.863281 L 944.519531 1151.390625 L 1074.042969 1266.8125 C 1075.753906 1268.339844 1077.53125 1269.785156 1079.378906 1271.152344 C 1081.222656 1272.515625 1083.125 1273.792969 1085.082031 1274.988281 C 1087.042969 1276.179688 1089.054688 1277.28125 1091.117188 1278.289062 C 1093.175781 1279.296875 1095.277344 1280.210938 1097.421875 1281.027344 C 1099.566406 1281.84375 1101.742188 1282.5625 1103.953125 1283.183594 C 1106.160156 1283.800781 1108.394531 1284.320312 1110.652344 1284.734375 C 1112.90625 1285.148438 1115.179688 1285.460938 1117.460938 1285.671875 C 1119.746094 1285.878906 1122.039062 1285.984375 1124.332031 1285.984375 C 1126.625 1285.984375 1128.914062 1285.878906 1131.199219 1285.671875 C 1133.484375 1285.460938 1135.757812 1285.148438 1138.011719 1284.734375 C 1140.269531 1284.320312 1142.5 1283.800781 1144.710938 1283.183594 C 1146.921875 1282.5625 1149.097656 1281.84375 1151.242188 1281.027344 C 1153.382812 1280.210938 1155.488281 1279.296875 1157.546875 1278.289062 C 1159.609375 1277.28125 1161.617188 1276.179688 1163.578125 1274.988281 C 1165.539062 1273.792969 1167.441406 1272.515625 1169.285156 1271.152344 C 1171.128906 1269.785156 1172.910156 1268.339844 1174.621094 1266.8125 L 1304.109375 1151.355469 L 1718.425781 1520.828125 C 1717.054688 1521.046875 1715.671875 1521.183594 1714.285156 1521.242188 Z M 534.335938 1521.277344 " fill-opacity="1" fill-rule="nonzero"/></g></svg>