<svg xmlns="http://www.w3.org/2000/svg" xmlns:xlink="http://www.w3.org/1999/xlink" width="3000" zoomAndPan="magnify" viewBox="0 0 2250 2250.000011" height="3000" preserveAspectRatio="xMidYMid meet" version="1.0"><defs><clipPath id="42d34e71c3"><path d="M 263 288 L 1937 288 L 1937 2015.855469 L 263 2015.855469 Z M 263 288 " clip-rule="nonzero"/></clipPath></defs><g clip-path="url(#42d34e71c3)"><path fill="#282828" d="M 1859.914062 1824.144531 L 1860.296875 1824.144531 Z M 548.519531 368.199219 C 531.929688 368.199219 516.242188 375.714844 499.207031 390.640625 C 497.335938 392.40625 472.957031 415.542969 457.097656 430.640625 L 443.246094 443.734375 C 362.347656 519.371094 325.675781 655.515625 349.8125 790.65625 C 357.570312 834.292969 370.105469 879.523438 387.074219 925.03125 C 472.574219 1154.683594 634.886719 1354.34375 756.019531 1481.449219 C 876.601562 1609.382812 1067.308594 1782.171875 1291.988281 1879.835938 C 1336.554688 1899.195312 1381.019531 1914.15625 1424.167969 1924.269531 C 1557.804688 1955.578125 1695.734375 1926.246094 1775.523438 1849.53125 L 1788.820312 1836.890625 C 1804.265625 1822.308594 1828.367188 1799.488281 1831.867188 1796.128906 C 1881.558594 1745.007812 1856.730469 1702.511719 1757.066406 1601.140625 L 1732.132812 1575.546875 C 1669 1510.023438 1563.070312 1400.304688 1473.515625 1411.003906 C 1449.171875 1413.878906 1423.753906 1431.648438 1396.847656 1450.417969 C 1370.144531 1469.050781 1342.546875 1488.308594 1309.441406 1498.800781 C 1220.546875 1526.992188 1130.402344 1508.464844 1055.5 1446.746094 C 1010.722656 1409.828125 965.148438 1366.640625 923.769531 1321.964844 C 881.898438 1278.808594 841.246094 1231.015625 806.824219 1184.367188 C 749.234375 1106.300781 735.589844 1015.285156 768.453125 928.011719 C 780.710938 895.488281 801.421875 868.960938 821.472656 843.296875 C 841.660156 817.425781 860.742188 793.011719 864.898438 768.835938 C 880.308594 679.757812 776.488281 568.34375 714.429688 501.746094 L 690.257812 475.492188 C 624.496094 403.558594 584.5 368.199219 548.519531 368.199219 Z M 1532.007812 2015.839844 C 1487.332031 2015.839844 1444.390625 2010.402344 1406.09375 2001.433594 C 1358.335938 1990.28125 1309.300781 1973.796875 1260.371094 1952.53125 C 1023.363281 1849.53125 824 1669.160156 698.5 1535.996094 C 572.378906 1403.699219 402.96875 1194.929688 312.792969 952.703125 C 294.164062 902.726562 280.378906 852.890625 271.757812 804.578125 C 248.902344 676.539062 267.707031 499.285156 389.117188 385.863281 L 402.519531 373.117188 C 419.417969 357.082031 445.703125 332.109375 446.777344 331.175781 C 568.222656 224.539062 676.890625 343.367188 748.75 422.019531 L 772.433594 447.714844 C 844.5 525.050781 965.117188 654.511719 943.023438 782.34375 C 935.4375 826.085938 908.082031 861.167969 883.945312 892.09375 C 866.800781 914.019531 850.59375 934.765625 842.628906 955.960938 C 819.21875 1018.089844 828.917969 1080.8125 870.609375 1137.300781 C 902.957031 1181.109375 941.222656 1226.097656 981.289062 1267.417969 C 1020.9375 1310.222656 1063.84375 1350.847656 1105.921875 1385.585938 C 1160.117188 1430.261719 1222.207031 1443.25 1285.511719 1423.265625 C 1307.085938 1416.375 1328.625 1401.34375 1351.445312 1385.410156 C 1383.652344 1362.96875 1420.082031 1337.480469 1464.199219 1332.285156 C 1593.40625 1317.046875 1715.855469 1444.425781 1789.203125 1520.550781 L 1813.617188 1545.554688 C 1888.277344 1621.539062 2001.136719 1736.386719 1888.277344 1851.851562 C 1886.511719 1853.550781 1860.019531 1878.691406 1843.292969 1894.484375 L 1830.410156 1906.710938 C 1746.917969 1986.992188 1635.03125 2015.839844 1532.007812 2015.839844 " fill-opacity="1" fill-rule="nonzero"/></g></svg>