<svg xmlns="http://www.w3.org/2000/svg" xmlns:xlink="http://www.w3.org/1999/xlink" width="3000" zoomAndPan="magnify" viewBox="0 0 2250 2250.000011" height="3000" preserveAspectRatio="xMidYMid meet" version="1.0"><path fill="#000000" d="M 1801.984375 1272.730469 C 1719.550781 1283.367188 1642.648438 1271.34375 1572.519531 1236.816406 C 1406.847656 1155.367188 1379.320312 1009.085938 1283.773438 961.804688 C 1238.769531 939.585938 1187.71875 936.308594 1121.160156 951.972656 C 1136.960938 960.496094 1152.035156 970.765625 1166.382812 983.222656 C 1234.109375 1042.742188 1269.9375 1142.546875 1307.152344 1226.105469 C 1317.710938 1250.292969 1311.882812 1277.539062 1292.511719 1295.53125 L 1165.144531 1413.621094 C 1143.734375 1433.4375 1114.898438 1440.210938 1088.242188 1434.09375 C 1089.480469 1437.953125 1090.71875 1441.742188 1092.03125 1445.53125 L 1189.539062 1703.417969 C 1440.5625 1655.773438 1641.335938 1514.445312 1801.984375 1272.730469 Z M 1110.820312 1232.078125 L 1082.199219 1258.816406 L 1082.199219 1192.375 Z M 1242.554688 2012.449219 C 1245.542969 2020.316406 1240.734375 2038.382812 1232.726562 2043.554688 C 1227.699219 2046.832031 1216.632812 2041.003906 1204.324219 2028.691406 C 1145.773438 1970.484375 1042.511719 1709.320312 987.457031 1597.203125 C 951.84375 1524.71875 880.261719 1531.054688 841.152344 1591.15625 C 823.3125 1618.476562 797.679688 1663.640625 768.039062 1716.019531 C 704.972656 1827.480469 618.53125 1980.101562 562.457031 2038.453125 C 553.648438 2047.851562 527.285156 2021.191406 534.566406 2003.996094 L 784.132812 1428.335938 C 797.167969 1397.8125 798.480469 1368.453125 798.480469 1343.394531 C 798.480469 1268.140625 797.824219 1217.289062 782.894531 1141.382812 C 763.304688 1041.722656 730.460938 1021.90625 677.300781 957.144531 C 658.003906 933.394531 614.527344 825.722656 613.726562 799.277344 C 609.503906 657.441406 647.445312 595.371094 647.445312 447.414062 C 647.445312 422.570312 662.519531 401.589844 680.578125 401.589844 C 713.929688 401.589844 727.113281 464.386719 696.164062 487.699219 C 689.171875 492.945312 684.875 500.957031 684.363281 509.628906 L 668.5625 760.15625 C 666.011719 801.535156 691.648438 854.570312 737.160156 901.996094 C 757.988281 923.632812 812.023438 973.609375 869.554688 973.609375 L 920.386719 972.953125 C 995.320312 972.953125 1071.929688 979.507812 1126.695312 1027.953125 C 1176.433594 1071.808594 1210.148438 1150.777344 1239.789062 1220.570312 C 1244.085938 1230.476562 1248.308594 1240.3125 1252.316406 1249.855469 C 1252.824219 1250.800781 1252.605469 1251.167969 1251.804688 1251.820312 L 1124.65625 1369.910156 C 1119.628906 1374.5 1113.367188 1376.832031 1106.59375 1376.613281 C 1083.292969 1375.667969 1074.117188 1347.546875 1090.210938 1332.683594 L 1170.898438 1257.796875 C 1181.96875 1247.523438 1183.714844 1230.621094 1174.683594 1218.382812 L 1076.445312 1083.175781 C 1059.625 1059.933594 1022.628906 1071.808594 1022.628906 1100.730469 L 1022.628906 1350.96875 C 1022.628906 1394.898438 1021.101562 1426.296875 1036.175781 1466.582031 Z M 825.570312 818.511719 C 825.570312 871.472656 868.460938 913.871094 922.644531 913.214844 C 973.621094 911.902344 1015.128906 869.941406 1015.128906 818.511719 C 1015.128906 766.277344 972.382812 723.734375 920.3125 723.734375 C 868.097656 723.734375 825.570312 766.277344 825.570312 818.511719 Z M 1889.664062 1245.121094 C 1729.527344 1513.0625 1509.964844 1699.558594 1210.878906 1759.875 L 1298.339844 1991.320312 C 1310.136719 2022.71875 1299.578125 2071.308594 1265.132812 2093.601562 C 1234.910156 2113.417969 1196.824219 2105.550781 1162.085938 2071.019531 C 1095.746094 2004.871094 994.445312 1748.804688 933.929688 1623.5 C 928.394531 1611.847656 921.332031 1604.414062 915.796875 1604.125 C 910.261719 1603.757812 900.214844 1609.734375 891.183594 1623.5 C 874.359375 1649.4375 849.238281 1693.875 820.109375 1745.453125 C 751.726562 1866.019531 666.523438 2016.089844 605.425781 2079.761719 C 581.828125 2104.382812 546.875 2107.078125 515.996094 2086.679688 C 485.046875 2066.066406 461.960938 2021.773438 480.023438 1980.175781 L 729.371094 1404.660156 C 741.605469 1376.6875 738.910156 1338.441406 738.910156 1305.65625 C 738.910156 1253.714844 734.101562 1202.285156 724.34375 1152.890625 C 711.746094 1088.566406 696.964844 1071.589844 661.5 1030.503906 C 652.46875 1020.378906 642.417969 1008.722656 631.058594 994.953125 C 604.988281 963.042969 555.46875 843.714844 554.15625 801.027344 C 549.859375 651.464844 587.875 589.398438 587.875 447.414062 C 587.875 389.207031 629.308594 341.925781 680.578125 341.925781 C 731.847656 341.925781 773.574219 389.207031 773.574219 447.414062 C 773.574219 477.5 762.285156 505.691406 743.207031 525.507812 L 728.132812 763.875 C 726.820312 784.5625 743.207031 817.636719 768.839844 848.015625 C 749.324219 755.714844 821.929688 664.070312 920.386719 664.070312 C 1005.296875 664.070312 1074.625 733.347656 1074.625 818.511719 C 1074.625 854.28125 1062.320312 887.207031 1041.710938 913.433594 C 1119.046875 886.550781 1216.484375 862.148438 1310.136719 908.40625 C 1426.070312 965.59375 1447.335938 1108.890625 1598.664062 1183.269531 C 1676.074219 1221.371094 1760.476562 1227.199219 1856.53125 1200.972656 C 1881.800781 1194.050781 1903.71875 1221.808594 1889.664062 1245.121094 Z M 488.105469 461.253906 C 488.105469 444.71875 474.777344 431.386719 458.464844 431.386719 L 377.996094 431.386719 C 361.394531 431.386719 348.140625 444.71875 348.140625 461.253906 C 348.140625 477.644531 361.394531 491.050781 377.996094 491.050781 L 458.464844 491.050781 C 474.777344 491.050781 488.105469 477.644531 488.105469 461.253906 Z M 500.414062 330.050781 C 511.992188 341.78125 530.707031 341.707031 542.359375 330.050781 C 554.15625 318.394531 554.15625 299.527344 542.359375 287.871094 L 485.558594 230.976562 C 474.050781 219.320312 455.191406 219.320312 443.390625 230.976562 C 431.8125 242.632812 431.8125 261.574219 443.390625 273.15625 Z M 673.585938 275.777344 C 689.898438 275.777344 703.445312 262.449219 703.445312 245.910156 L 703.445312 165.484375 C 703.445312 149.019531 689.898438 135.617188 673.585938 135.617188 C 657.203125 135.617188 643.65625 149.019531 643.65625 165.484375 L 643.65625 245.910156 C 643.65625 262.449219 657.203125 275.777344 673.585938 275.777344 Z M 858.996094 461.253906 C 858.996094 477.644531 872.320312 491.050781 888.707031 491.050781 L 969.105469 491.050781 C 985.707031 491.050781 999.035156 477.644531 999.035156 461.253906 C 999.035156 444.71875 985.707031 431.386719 969.105469 431.386719 L 888.707031 431.386719 C 872.320312 431.386719 858.996094 444.71875 858.996094 461.253906 Z M 804.742188 330.050781 C 792.945312 318.394531 792.945312 299.527344 804.742188 287.871094 L 861.542969 230.976562 C 873.125 219.320312 891.984375 219.320312 903.78125 230.976562 C 915.289062 242.632812 915.289062 261.574219 903.78125 273.15625 L 846.6875 330.050781 C 834.964844 341.855469 816.175781 341.636719 804.742188 330.050781 Z M 804.742188 330.050781 " fill-opacity="1" fill-rule="evenodd"/></svg>