<svg xmlns="http://www.w3.org/2000/svg" xmlns:xlink="http://www.w3.org/1999/xlink" width="3000" zoomAndPan="magnify" viewBox="0 0 2250 2250.000011" height="3000" preserveAspectRatio="xMidYMid meet" version="1.0"><defs><clipPath id="b1bba8e002"><path d="M 342.851562 108.363281 L 1906.335938 108.363281 L 1906.335938 2140.359375 L 342.851562 2140.359375 Z M 342.851562 108.363281 " clip-rule="nonzero"/></clipPath></defs><g clip-path="url(#b1bba8e002)"><path fill="#000000" d="M 1124.042969 108.363281 C 1298.820312 108.363281 1460.546875 164.753906 1591.921875 260.359375 C 1726.652344 358.414062 1829.476562 497.8125 1881.792969 660.011719 C 1943.34375 850.828125 1883.019531 1081.695312 1769.214844 1308.558594 C 1606.582031 1632.894531 1334.148438 1951.871094 1160.921875 2125.117188 C 1140.578125 2145.464844 1107.507812 2145.464844 1087.164062 2125.117188 L 1086.710938 2124.664062 C 909.804688 1947.605469 635.046875 1627.273438 474.222656 1300.613281 C 361.515625 1071.75 304.292969 838.425781 371.851562 643.605469 C 426.6875 485.667969 529.703125 350.339844 663.207031 255.449219 C 793.417969 162.816406 952.433594 108.363281 1124.042969 108.363281 Z M 1530.753906 344.71875 C 1416.691406 261.714844 1276.085938 212.6875 1124.042969 212.6875 C 974.652344 212.6875 836.367188 259.90625 723.53125 340.199219 C 607.210938 422.882812 517.625 540.445312 470.089844 677.453125 C 412.992188 841.914062 465.957031 1048.300781 567.550781 1254.554688 C 711.648438 1547.175781 952.757812 1836.5 1124.042969 2013.753906 C 1292.230469 1839.40625 1531.011719 1551.890625 1676.335938 1262.113281 C 1779.03125 1057.34375 1834.707031 852.898438 1782.777344 691.792969 C 1737.371094 551.105469 1647.984375 430.050781 1530.753906 344.71875 " fill-opacity="1" fill-rule="nonzero"/></g><path fill="#000000" d="M 1124.042969 415.90625 C 1236.167969 415.90625 1337.703125 461.378906 1411.203125 534.890625 C 1484.703125 608.402344 1530.175781 709.945312 1530.175781 822.085938 C 1530.175781 934.222656 1484.703125 1035.769531 1411.203125 1109.277344 C 1337.703125 1182.789062 1236.167969 1228.199219 1124.042969 1228.199219 C 1011.917969 1228.199219 910.386719 1182.789062 836.886719 1109.277344 C 763.382812 1035.769531 717.914062 934.222656 717.914062 822.085938 C 717.914062 709.945312 763.382812 608.402344 836.886719 534.890625 C 910.386719 461.378906 1011.917969 415.90625 1124.042969 415.90625 Z M 1337.441406 608.660156 C 1282.867188 554.011719 1207.363281 520.226562 1124.042969 520.226562 C 1040.726562 520.226562 965.285156 554.011719 910.644531 608.660156 C 856.066406 663.242188 822.289062 738.757812 822.289062 822.085938 C 822.289062 905.414062 856.066406 980.863281 910.644531 1035.511719 C 965.285156 1090.09375 1040.726562 1123.878906 1124.042969 1123.878906 C 1207.363281 1123.878906 1282.867188 1090.09375 1337.441406 1035.511719 C 1392.085938 980.863281 1425.800781 905.414062 1425.800781 822.085938 C 1425.800781 738.757812 1392.085938 663.242188 1337.441406 608.660156 " fill-opacity="1" fill-rule="nonzero"/></svg>