<svg xmlns="http://www.w3.org/2000/svg" xmlns:xlink="http://www.w3.org/1999/xlink" width="3000" zoomAndPan="magnify" viewBox="0 0 2250 2250.000011" height="3000" preserveAspectRatio="xMidYMid meet" version="1.0"><defs><clipPath id="fcb8a25cf9"><path d="M 231 224.898438 L 2041 224.898438 L 2041 1893.660156 L 231 1893.660156 Z M 231 224.898438 " clip-rule="nonzero"/></clipPath></defs><g clip-path="url(#fcb8a25cf9)"><path fill="#ffffff" d="M 1977.535156 895.253906 C 2018.0625 854.746094 2040.382812 800.871094 2040.382812 743.566406 C 2040.382812 686.257812 2018.058594 632.378906 1977.503906 591.839844 C 1936.984375 551.355469 1883.136719 529.066406 1825.867188 529.066406 C 1768.589844 529.066406 1714.730469 551.363281 1674.179688 591.886719 L 1604.914062 661.15625 C 1596.273438 643.777344 1586.9375 626.730469 1576.929688 610.148438 C 1539.761719 548.527344 1495.597656 495.59375 1446.277344 453.113281 C 1448.40625 442.4375 1449.480469 431.546875 1449.480469 420.523438 C 1449.480469 312.679688 1361.742188 224.941406 1253.898438 224.941406 L 1049.839844 224.941406 C 942 224.941406 854.261719 312.679688 854.261719 420.523438 C 854.261719 431.546875 855.335938 442.429688 857.464844 453.097656 C 807.921875 495.769531 763.597656 548.96875 726.335938 610.921875 C 662.453125 717.144531 625.8125 842.097656 625.8125 953.726562 C 625.8125 976.863281 627.335938 999.304688 630.296875 1021.023438 C 620.707031 1019.414062 609.882812 1017.058594 598.453125 1014.550781 C 581.820312 1010.894531 562.972656 1006.757812 542.566406 1003.757812 L 540.429688 1003.402344 C 532.585938 1002.085938 519.453125 999.882812 502.832031 999.882812 C 498.40625 999.882812 493.953125 1000.042969 489.601562 1000.351562 C 401.3125 1006.730469 325.746094 1073.632812 309.910156 1159.414062 C 301.984375 1202.304688 292.90625 1246.460938 284.132812 1289.167969 C 280.507812 1306.777344 276.890625 1324.390625 273.328125 1342 L 265.492188 1380.730469 C 255.515625 1430.023438 245.535156 1479.328125 235.625 1528.632812 C 226.492188 1574.074219 230.925781 1616.578125 248.792969 1654.910156 C 275.59375 1712.46875 326.097656 1751.878906 391.027344 1765.871094 C 446.972656 1777.914062 497.613281 1788.164062 545.863281 1797.195312 C 559.449219 1799.734375 573.132812 1801.027344 586.550781 1801.027344 C 628.8125 1801.027344 667.683594 1788.699219 699.726562 1766.441406 C 716.335938 1773.207031 731.621094 1779.472656 746.386719 1785.550781 C 765.578125 1793.46875 784.347656 1800.585938 802.503906 1807.472656 C 810.664062 1810.5625 818.828125 1813.660156 826.976562 1816.8125 C 859.277344 1829.308594 891.570312 1841.824219 923.84375 1854.367188 L 928.769531 1856.28125 C 948.226562 1863.871094 970.21875 1872.4375 995.429688 1879.226562 C 996.109375 1879.464844 996.777344 1879.707031 997.457031 1879.9375 C 1007.617188 1883.511719 1026.539062 1890.152344 1050.558594 1892.457031 C 1058.445312 1893.21875 1066.5625 1893.609375 1074.6875 1893.609375 C 1100.097656 1893.609375 1122.144531 1889.929688 1140.792969 1886.492188 C 1181.246094 1879.042969 1222.847656 1868.671875 1267.96875 1854.796875 L 1281.546875 1850.632812 C 1331.351562 1835.351562 1382.851562 1819.539062 1434.339844 1800.753906 C 1452.933594 1793.972656 1471.523438 1787.476562 1491.214844 1780.589844 C 1525.058594 1768.757812 1560.0625 1756.523438 1595.285156 1742.664062 C 1622.59375 1731.914062 1647.082031 1722.890625 1670.140625 1715.082031 C 1720.710938 1697.949219 1763.640625 1662.632812 1791.027344 1615.644531 C 1820.277344 1565.449219 1828.65625 1507.578125 1814.625 1452.679688 C 1798.753906 1390.601562 1760.707031 1340.1875 1704.570312 1306.894531 C 1679.316406 1291.921875 1651.890625 1281.675781 1623.65625 1276.542969 C 1614.433594 1269.355469 1604.636719 1262.886719 1594.34375 1257.121094 C 1621.261719 1244.171875 1646.078125 1226.683594 1667.800781 1204.972656 Z M 1977.535156 895.253906 " fill-opacity="1" fill-rule="nonzero"/></g><path fill="#66142e" d="M 412.339844 1370.132812 C 424.808594 1308.5 437.953125 1247 449.375 1185.183594 C 453.816406 1161.125 478.957031 1143.324219 499.816406 1141.8125 C 507.425781 1141.261719 514.515625 1142.976562 521.871094 1144.058594 C 553.640625 1148.730469 584.492188 1157.929688 616.289062 1162.382812 C 636.929688 1165.28125 657.28125 1170.519531 677.34375 1175.628906 C 705.703125 1182.828125 724.574219 1214.617188 717.339844 1240.089844 C 714.859375 1248.8125 713.582031 1257.886719 711.71875 1266.785156 C 710.777344 1271.277344 712.289062 1273.15625 717.121094 1272.984375 C 749.164062 1271.917969 781.207031 1270.554688 813.257812 1270.230469 C 833.816406 1270.023438 854.414062 1271.1875 874.960938 1272.238281 C 882.730469 1272.640625 890.058594 1275.824219 897.1875 1278.796875 C 950.746094 1301.09375 1002.898438 1326.472656 1055.242188 1351.417969 C 1078.640625 1362.5625 1102.027344 1373.730469 1125.28125 1385.167969 C 1131.8125 1388.386719 1137.96875 1388.175781 1144.65625 1386.101562 C 1192.679688 1371.21875 1240.640625 1356.160156 1288.824219 1341.804688 C 1324.203125 1331.265625 1356.929688 1336.804688 1386.242188 1360.125 C 1392.566406 1365.160156 1398.882812 1369.941406 1403.042969 1377.054688 C 1405.234375 1380.804688 1408.628906 1381.316406 1412.78125 1380.59375 C 1423.90625 1378.652344 1434.433594 1374.617188 1445.246094 1371.605469 C 1459.59375 1367.617188 1474.222656 1365.765625 1488.835938 1368.371094 C 1516.113281 1373.238281 1539.417969 1385.433594 1555.613281 1408.765625 C 1559.308594 1414.089844 1563.597656 1416.015625 1569.8125 1415.253906 C 1592.183594 1412.53125 1613.40625 1417.71875 1632.234375 1428.878906 C 1654.652344 1442.179688 1670.464844 1461.414062 1677.214844 1487.816406 C 1687.195312 1526.855469 1661.472656 1568.285156 1624.636719 1580.765625 C 1597.296875 1590.023438 1570.210938 1600.128906 1543.34375 1610.699219 C 1491.347656 1631.171875 1438.191406 1648.390625 1385.726562 1667.53125 C 1333.238281 1686.679688 1279.714844 1702.828125 1226.296875 1719.25 C 1189.660156 1730.515625 1152.722656 1740.097656 1115.097656 1747.03125 C 1098.328125 1750.117188 1081.417969 1752.964844 1064.15625 1751.304688 C 1053.34375 1750.269531 1043.710938 1745.308594 1033.402344 1742.589844 C 1013.507812 1737.328125 994.398438 1729.636719 975.226562 1722.1875 C 942.878906 1709.621094 910.515625 1697.078125 878.148438 1684.558594 C 852.246094 1674.539062 826.125 1665.046875 800.460938 1654.457031 C 762.910156 1638.988281 725.285156 1623.71875 687.628906 1608.511719 C 676.007812 1603.824219 664.421875 1598.949219 652.84375 1594.101562 C 647.800781 1591.988281 645.613281 1593.539062 644.648438 1598.820312 C 643.203125 1606.691406 642 1614.773438 639.222656 1622.21875 C 628.761719 1650.269531 604.195312 1663.835938 571.949219 1657.804688 C 521.457031 1648.351562 471.109375 1638.054688 420.890625 1627.246094 C 402.082031 1623.1875 386.125 1613.84375 377.375 1595.066406 C 371.472656 1582.402344 372.066406 1569.59375 374.679688 1556.589844 C 387.167969 1494.417969 399.769531 1432.273438 412.339844 1370.132812 M 1191.558594 1415.746094 C 1191.460938 1416.453125 1191.359375 1417.160156 1191.265625 1417.867188 C 1202.648438 1423.566406 1214.207031 1428.933594 1225.378906 1435.011719 C 1249.855469 1448.332031 1271.59375 1464.734375 1286.5625 1489.039062 C 1294.324219 1501.628906 1297.332031 1515.390625 1297.34375 1529.554688 C 1297.390625 1568.53125 1267.953125 1599.734375 1232.117188 1610.78125 C 1210.058594 1617.589844 1188.148438 1617.976562 1165.160156 1611.398438 C 1132.023438 1601.921875 1099.253906 1591.351562 1066.425781 1580.980469 C 1032.8125 1570.347656 999.40625 1559.089844 965.738281 1548.574219 C 954.90625 1545.195312 943.582031 1542.359375 933.648438 1536.300781 C 919.886719 1527.902344 919.339844 1513.160156 932.011719 1503.480469 C 939.628906 1497.65625 947.667969 1498.359375 955.648438 1501.078125 C 975.890625 1507.96875 996.523438 1513.734375 1016.632812 1520.882812 C 1044.824219 1530.902344 1073.855469 1538.210938 1101.9375 1548.542969 C 1125.523438 1557.222656 1149.933594 1563.320312 1173.992188 1570.5 C 1188.074219 1574.707031 1201.542969 1576.449219 1215.605469 1571.832031 C 1234.730469 1565.5625 1247.453125 1553.28125 1250.507812 1532.949219 C 1253.339844 1514.089844 1244.417969 1500.335938 1230.238281 1488.671875 C 1211.402344 1473.164062 1189.152344 1463.695312 1167.78125 1452.929688 C 1117.449219 1427.558594 1066.535156 1403.324219 1015.753906 1378.847656 C 986.636719 1364.808594 957.4375 1350.925781 928.019531 1337.511719 C 910.285156 1329.417969 892.09375 1322.3125 874.070312 1314.855469 C 869.328125 1312.890625 864.261719 1312.472656 859.136719 1312.230469 C 839.910156 1311.304688 820.683594 1312.636719 801.449219 1312.519531 C 772.070312 1312.324219 742.683594 1314.859375 713.296875 1314.992188 C 703.78125 1315.039062 701.058594 1318.386719 699.402344 1326.808594 C 685.402344 1397.664062 671.167969 1468.472656 656.59375 1539.21875 C 654.953125 1547.167969 657.042969 1551.039062 664.226562 1553.878906 C 692.050781 1564.890625 719.933594 1575.78125 747.457031 1587.5 C 786.761719 1604.234375 826.621094 1619.601562 866.316406 1635.34375 C 912.488281 1653.652344 958.589844 1672.152344 1005.394531 1688.855469 C 1024.484375 1695.679688 1043.84375 1701.722656 1062.851562 1708.773438 C 1066.136719 1709.988281 1069.601562 1710.300781 1073.128906 1710.144531 C 1089.203125 1709.382812 1105.207031 1707.6875 1120.753906 1703.636719 C 1169.640625 1690.902344 1218.515625 1678.3125 1266.535156 1662.28125 C 1328.914062 1641.453125 1391.378906 1620.953125 1453.109375 1598.261719 C 1485.214844 1586.472656 1517.476562 1575.09375 1549.621094 1563.402344 C 1568.464844 1556.550781 1587.398438 1549.886719 1605.96875 1542.335938 C 1628.105469 1533.335938 1637.410156 1511.292969 1630.996094 1490.121094 C 1622.574219 1462.316406 1588.699219 1450.75 1562.40625 1459.414062 C 1550 1463.503906 1537.410156 1467.035156 1524.851562 1470.675781 C 1485.847656 1481.953125 1446.839844 1493.21875 1407.796875 1504.371094 C 1392.910156 1508.621094 1378.476562 1514.761719 1362.96875 1516.449219 C 1350.90625 1517.777344 1340.199219 1509.921875 1338.308594 1499.5 C 1336.410156 1489.015625 1342.300781 1480.285156 1354.839844 1476.542969 C 1406.066406 1461.261719 1457.363281 1446.226562 1508.625 1431.085938 C 1510.863281 1430.417969 1514.035156 1430.511719 1514.648438 1427.871094 C 1515.363281 1424.84375 1512.480469 1423.074219 1510.34375 1421.691406 C 1495.304688 1411.933594 1479.234375 1406.09375 1461.078125 1410.824219 C 1453.082031 1412.910156 1445.429688 1416.296875 1437.4375 1418.402344 C 1405.648438 1426.78125 1374.410156 1437.042969 1342.792969 1445.976562 C 1332.824219 1448.785156 1322.855469 1452.359375 1312.351562 1452.898438 C 1301.0625 1453.476562 1291.570312 1445.984375 1289.011719 1434.898438 C 1287.085938 1426.546875 1292.089844 1418.625 1302.476562 1413.847656 C 1304.648438 1412.847656 1306.988281 1412.195312 1309.292969 1411.492188 C 1324.890625 1406.746094 1340.480469 1401.984375 1356.121094 1397.359375 C 1360.515625 1396.054688 1361.566406 1394.667969 1357.578125 1391.234375 C 1345.503906 1380.855469 1331.65625 1376.148438 1315.988281 1379.128906 C 1298.652344 1382.425781 1282.058594 1388.5625 1265.210938 1393.707031 C 1240.6875 1401.203125 1216.109375 1408.410156 1191.558594 1415.746094 " fill-opacity="1" fill-rule="nonzero"/><path fill="#75be83" d="M 510.664062 1591.671875 C 485.421875 1586.574219 459.722656 1581.199219 432.085938 1575.25 C 428.300781 1574.433594 426.542969 1573.523438 425.964844 1573.171875 C 425.988281 1572.242188 426.152344 1570.382812 426.820312 1567.070312 C 436.734375 1517.730469 446.710938 1468.425781 456.695312 1419.117188 L 464.472656 1380.671875 C 467.996094 1363.277344 471.566406 1345.890625 475.144531 1328.5 C 483.984375 1285.496094 493.117188 1241.0625 501.300781 1196.898438 C 501.996094 1196.226562 503.054688 1195.492188 503.964844 1195.042969 C 505.195312 1195.226562 506.859375 1195.5 508.1875 1195.722656 C 510.167969 1196.058594 512.148438 1196.382812 514.140625 1196.679688 C 520.355469 1197.59375 526.976562 1198.773438 534.953125 1200.382812 C 542.1875 1201.84375 549.394531 1203.429688 556.601562 1205.015625 C 564.390625 1206.722656 572.183594 1208.433594 580 1210.015625 C 590.859375 1212.207031 600.039062 1213.808594 608.894531 1215.054688 C 614.015625 1215.765625 619.394531 1216.703125 625.335938 1217.910156 C 637.398438 1220.34375 649.578125 1223.441406 662.46875 1226.714844 L 663.84375 1227.0625 C 664.308594 1227.390625 664.886719 1228.070312 665.304688 1228.730469 C 663.46875 1235.765625 649.597656 1304.449219 647.214844 1316.503906 C 632.378906 1391.597656 618.414062 1460.933594 604.488281 1528.484375 C 602.152344 1539.855469 594.59375 1576.777344 592.320312 1589.269531 L 591.683594 1592.789062 C 590.972656 1596.78125 590.082031 1601.742188 589.378906 1603.648438 C 588.957031 1604.777344 588.570312 1605.507812 588.3125 1605.921875 C 587.285156 1606.074219 585.09375 1606.15625 581.714844 1605.527344 C 558.90625 1601.253906 535 1596.601562 510.664062 1591.671875 Z M 510.664062 1591.671875 " fill-opacity="1" fill-rule="nonzero"/><path fill="#fce6e5" d="M 1191.558594 1415.746094 C 1191.460938 1416.453125 1191.359375 1417.160156 1191.265625 1417.867188 C 1202.648438 1423.566406 1214.207031 1428.933594 1225.378906 1435.011719 C 1249.855469 1448.332031 1271.59375 1464.734375 1286.5625 1489.039062 C 1294.324219 1501.628906 1297.332031 1515.390625 1297.34375 1529.554688 C 1297.390625 1568.53125 1267.953125 1599.734375 1232.117188 1610.78125 C 1210.058594 1617.589844 1188.148438 1617.976562 1165.160156 1611.398438 C 1132.023438 1601.921875 1099.253906 1591.351562 1066.425781 1580.980469 C 1032.8125 1570.347656 999.40625 1559.089844 965.738281 1548.574219 C 954.90625 1545.195312 943.582031 1542.359375 933.648438 1536.300781 C 919.886719 1527.902344 919.339844 1513.160156 932.011719 1503.480469 C 939.628906 1497.65625 947.667969 1498.359375 955.648438 1501.078125 C 975.890625 1507.96875 996.523438 1513.734375 1016.632812 1520.882812 C 1044.824219 1530.902344 1073.855469 1538.210938 1101.9375 1548.542969 C 1125.523438 1557.222656 1149.933594 1563.320312 1173.992188 1570.5 C 1188.074219 1574.707031 1201.542969 1576.449219 1215.605469 1571.832031 C 1234.730469 1565.5625 1247.453125 1553.28125 1250.507812 1532.949219 C 1253.339844 1514.089844 1244.417969 1500.335938 1230.238281 1488.671875 C 1211.402344 1473.164062 1189.152344 1463.695312 1167.78125 1452.929688 C 1117.449219 1427.558594 1066.535156 1403.324219 1015.753906 1378.847656 C 986.636719 1364.808594 957.4375 1350.925781 928.019531 1337.511719 C 910.285156 1329.417969 892.09375 1322.3125 874.070312 1314.855469 C 869.328125 1312.890625 864.261719 1312.472656 859.136719 1312.230469 C 839.910156 1311.304688 820.683594 1312.636719 801.449219 1312.519531 C 772.070312 1312.324219 742.683594 1314.859375 713.296875 1314.992188 C 703.78125 1315.039062 701.058594 1318.386719 699.402344 1326.808594 C 685.402344 1397.664062 671.167969 1468.472656 656.59375 1539.21875 C 654.953125 1547.167969 657.042969 1551.039062 664.226562 1553.878906 C 692.050781 1564.890625 719.933594 1575.78125 747.457031 1587.5 C 786.761719 1604.234375 826.621094 1619.601562 866.316406 1635.34375 C 912.488281 1653.652344 958.589844 1672.152344 1005.394531 1688.855469 C 1024.484375 1695.679688 1043.84375 1701.722656 1062.851562 1708.773438 C 1066.136719 1709.988281 1069.601562 1710.300781 1073.128906 1710.144531 C 1089.203125 1709.382812 1105.207031 1707.6875 1120.753906 1703.636719 C 1169.640625 1690.902344 1218.515625 1678.3125 1266.535156 1662.28125 C 1328.914062 1641.453125 1391.378906 1620.953125 1453.109375 1598.261719 C 1485.214844 1586.472656 1517.476562 1575.09375 1549.621094 1563.402344 C 1568.464844 1556.550781 1587.398438 1549.886719 1605.96875 1542.335938 C 1628.105469 1533.335938 1637.410156 1511.292969 1630.996094 1490.121094 C 1622.574219 1462.316406 1588.699219 1450.75 1562.40625 1459.414062 C 1550 1463.503906 1537.410156 1467.035156 1524.851562 1470.675781 C 1485.847656 1481.953125 1446.839844 1493.21875 1407.796875 1504.371094 C 1392.910156 1508.621094 1378.476562 1514.761719 1362.96875 1516.449219 C 1350.90625 1517.777344 1340.199219 1509.921875 1338.308594 1499.5 C 1336.410156 1489.015625 1342.300781 1480.285156 1354.839844 1476.542969 C 1406.066406 1461.261719 1457.363281 1446.226562 1508.625 1431.085938 C 1510.863281 1430.417969 1514.035156 1430.511719 1514.648438 1427.871094 C 1515.363281 1424.84375 1512.480469 1423.074219 1510.34375 1421.691406 C 1495.304688 1411.933594 1479.234375 1406.09375 1461.078125 1410.824219 C 1453.082031 1412.910156 1445.429688 1416.296875 1437.4375 1418.402344 C 1405.648438 1426.78125 1374.410156 1437.042969 1342.792969 1445.976562 C 1332.824219 1448.785156 1322.855469 1452.359375 1312.351562 1452.898438 C 1301.0625 1453.476562 1291.570312 1445.984375 1289.011719 1434.898438 C 1287.085938 1426.546875 1292.089844 1418.625 1302.476562 1413.847656 C 1304.648438 1412.847656 1306.988281 1412.195312 1309.292969 1411.492188 C 1324.890625 1406.746094 1340.480469 1401.984375 1356.121094 1397.359375 C 1360.515625 1396.054688 1361.566406 1394.667969 1357.578125 1391.234375 C 1345.503906 1380.855469 1331.65625 1376.148438 1315.988281 1379.128906 C 1298.652344 1382.425781 1282.058594 1388.5625 1265.210938 1393.707031 C 1240.6875 1401.203125 1216.109375 1408.410156 1191.558594 1415.746094 " fill-opacity="1" fill-rule="nonzero"/><path fill="#40ae62" d="M 1166.039062 877.027344 L 1166.664062 935.566406 C 1176.972656 933.128906 1184.503906 929.234375 1189.25 923.878906 C 1193.988281 918.519531 1196.335938 912.554688 1196.261719 905.964844 C 1196.203125 900.230469 1194.117188 894.976562 1189.992188 890.195312 C 1185.878906 885.421875 1177.898438 881.035156 1166.039062 877.027344 " fill-opacity="1" fill-rule="nonzero"/><path fill="#40ae62" d="M 1240.425781 519.980469 L 1282.832031 420.523438 C 1282.832031 404.53125 1269.878906 391.582031 1253.898438 391.582031 L 1049.839844 391.582031 C 1033.871094 391.582031 1020.910156 404.53125 1020.910156 420.523438 L 1062.152344 520.417969 C 907.070312 580.542969 792.460938 786.222656 792.460938 953.730469 C 792.460938 1152.222656 953.367188 1221.933594 1151.867188 1221.933594 C 1350.355469 1221.933594 1511.277344 1152.222656 1511.277344 953.730469 C 1511.28125 785.804688 1396.097656 579.527344 1240.425781 519.980469 M 1256.472656 932.382812 C 1250.691406 943.507812 1243.25 952.84375 1234.160156 960.359375 C 1225.050781 967.886719 1215.34375 973.371094 1205.054688 976.824219 C 1194.746094 980.277344 1182.128906 982.394531 1167.175781 983.167969 L 1167.546875 1017.640625 L 1140.910156 1017.929688 L 1140.550781 983.453125 C 1122.652344 982.066406 1108.121094 979.328125 1096.953125 975.253906 C 1085.777344 971.183594 1076.109375 965.480469 1067.941406 958.148438 C 1059.773438 950.816406 1053.453125 942.890625 1048.992188 934.363281 C 1044.519531 925.839844 1041.132812 915.507812 1038.808594 903.367188 L 1112.402344 894.011719 C 1114.714844 906.023438 1117.765625 914.6875 1121.53125 920 C 1125.300781 925.3125 1131.457031 929.984375 1140.019531 934.03125 L 1139.320312 869.582031 C 1114.691406 863.023438 1097.203125 857.3125 1086.875 852.429688 C 1076.539062 847.554688 1067.546875 839.644531 1059.894531 828.71875 C 1052.238281 817.785156 1048.328125 804.414062 1048.15625 788.597656 C 1047.921875 766.9375 1055.296875 748.753906 1070.285156 734.050781 C 1085.261719 719.355469 1107.714844 711.050781 1137.601562 709.144531 L 1137.402344 691.085938 L 1164.039062 690.8125 L 1164.234375 708.863281 C 1191.488281 710.273438 1212.382812 716.492188 1226.910156 727.53125 C 1241.445312 738.558594 1250.996094 753.777344 1255.578125 773.1875 L 1187.847656 784.675781 C 1184.34375 776.078125 1181.214844 770.128906 1178.4375 766.808594 C 1175.675781 763.5 1171.105469 760.167969 1164.746094 756.835938 L 1165.3125 809.601562 C 1202.378906 819.070312 1227.171875 829.214844 1239.703125 840.011719 C 1256.273438 854.566406 1264.667969 873.15625 1264.917969 895.785156 C 1265.066406 909.035156 1262.246094 921.242188 1256.472656 932.382812 " fill-opacity="1" fill-rule="nonzero"/><path fill="#40ae62" d="M 1116.644531 764.132812 C 1113.652344 767.949219 1112.1875 772.421875 1112.234375 777.554688 C 1112.300781 782.9375 1113.886719 787.589844 1117.011719 791.519531 C 1120.144531 795.460938 1125.566406 798.730469 1133.285156 801.328125 L 1132.785156 754.425781 C 1125.03125 757.074219 1119.652344 760.3125 1116.644531 764.132812 " fill-opacity="1" fill-rule="nonzero"/><path fill="#66142e" d="M 1151.871094 1246.753906 C 904.097656 1246.753906 767.640625 1142.6875 767.640625 953.730469 C 767.640625 867.117188 796.890625 768.800781 847.882812 684.015625 C 896.664062 602.898438 960.613281 541.066406 1029.9375 507.417969 L 997.96875 429.984375 C 996.730469 426.984375 996.09375 423.769531 996.09375 420.519531 C 996.09375 390.871094 1020.203125 366.757812 1049.84375 366.757812 L 1253.902344 366.757812 C 1283.539062 366.757812 1307.65625 390.871094 1307.65625 420.519531 C 1307.65625 423.863281 1306.980469 427.175781 1305.667969 430.242188 L 1272.9375 507.007812 C 1342.414062 540.476562 1406.53125 602.21875 1455.488281 683.394531 C 1506.726562 768.335938 1536.105469 866.867188 1536.105469 953.726562 C 1536.101562 1142.6875 1399.644531 1246.753906 1151.871094 1246.753906 Z M 1046.675781 417.882812 L 1085.09375 510.941406 C 1087.640625 517.113281 1087.59375 524.046875 1084.964844 530.183594 C 1082.339844 536.316406 1077.351562 541.140625 1071.121094 543.550781 C 919.277344 602.417969 817.277344 803.167969 817.277344 953.726562 C 817.277344 1154.882812 999.230469 1197.113281 1151.867188 1197.113281 C 1304.507812 1197.113281 1486.457031 1154.882812 1486.457031 953.726562 C 1486.457031 802.535156 1384.03125 601.480469 1231.550781 543.15625 C 1225.25 540.742188 1220.203125 535.875 1217.570312 529.664062 C 1214.933594 523.464844 1214.9375 516.445312 1217.585938 510.242188 L 1256.996094 417.820312 C 1256.242188 416.945312 1255.132812 416.402344 1253.894531 416.402344 L 1049.839844 416.402344 C 1048.566406 416.402344 1047.429688 416.980469 1046.675781 417.882812 Z M 1046.675781 417.882812 " fill-opacity="1" fill-rule="nonzero"/><path fill="#66142e" d="M 1877.253906 692.15625 C 1863.519531 678.4375 1845.273438 670.886719 1825.863281 670.886719 C 1806.457031 670.886719 1788.199219 678.441406 1774.464844 692.171875 L 1477.582031 989.039062 L 1419.792969 932.945312 C 1406.152344 919.714844 1388.171875 912.425781 1369.171875 912.425781 C 1349.628906 912.425781 1330.621094 920.464844 1317.007812 934.484375 C 1289.101562 963.246094 1289.785156 1009.339844 1318.542969 1037.261719 L 1389.398438 1106.023438 C 1413.109375 1129.035156 1444.492188 1141.707031 1477.761719 1141.707031 C 1511.753906 1141.707031 1543.625 1128.570312 1567.507812 1104.699219 L 1877.253906 794.964844 C 1890.988281 781.238281 1898.546875 762.984375 1898.546875 743.566406 C 1898.550781 724.148438 1890.992188 705.894531 1877.253906 692.15625 Z M 1877.253906 692.15625 " fill-opacity="1" fill-rule="nonzero"/><path fill="#ffffff" d="M 1477.765625 1100.9375 C 1456.09375 1100.9375 1434.417969 1092.894531 1417.800781 1076.769531 L 1346.941406 1008.007812 C 1334.300781 995.726562 1333.996094 975.527344 1346.273438 962.882812 C 1358.542969 950.238281 1378.742188 949.933594 1391.402344 962.207031 L 1462.253906 1030.972656 C 1470.9375 1039.402344 1484.976562 1039.304688 1493.550781 1030.738281 L 1803.300781 720.996094 C 1815.773438 708.535156 1835.96875 708.535156 1848.433594 720.996094 C 1860.894531 733.460938 1860.894531 753.667969 1848.433594 766.121094 L 1538.679688 1075.863281 C 1521.96875 1092.5625 1499.871094 1100.9375 1477.765625 1100.9375 " fill-opacity="1" fill-rule="nonzero"/></svg>