<svg xmlns="http://www.w3.org/2000/svg" xmlns:xlink="http://www.w3.org/1999/xlink" width="3000" zoomAndPan="magnify" viewBox="0 0 2250 2250.000011" height="3000" preserveAspectRatio="xMidYMid meet" version="1.0"><defs><clipPath id="0ad445aa32"><path d="M 350 351.316406 L 1898 351.316406 L 1898 1897.878906 L 350 1897.878906 Z M 350 351.316406 " clip-rule="nonzero"/></clipPath></defs><g clip-path="url(#0ad445aa32)"><path fill="#000000" d="M 1875.703125 757.210938 L 1875.640625 757.144531 L 1775.792969 742.898438 C 1761.773438 740.910156 1751.988281 727.914062 1754.007812 713.863281 C 1754.972656 707.125 1758.566406 701.027344 1764.019531 696.953125 L 1844.710938 636.4375 C 1856.066406 627.933594 1858.34375 611.828125 1849.84375 600.5 L 1757.441406 477.289062 C 1748.9375 465.960938 1732.832031 463.652344 1721.507812 472.15625 L 1640.847656 532.671875 C 1629.554688 541.238281 1613.449219 539.023438 1604.882812 527.730469 C 1600.710938 522.242188 1598.945312 515.3125 1599.941406 508.507812 L 1614.21875 408.65625 C 1616.238281 394.632812 1606.488281 381.605469 1592.464844 379.585938 L 1440.097656 357.832031 C 1426.078125 355.808594 1413.054688 365.5625 1411.03125 379.585938 L 1396.753906 479.4375 C 1394.765625 493.460938 1381.769531 503.246094 1367.71875 501.226562 C 1360.980469 500.261719 1354.882812 496.667969 1350.808594 491.214844 L 1290.300781 410.515625 C 1281.796875 399.191406 1265.691406 396.878906 1254.367188 405.382812 L 1177.234375 463.265625 C 1142.328125 459.546875 1107.164062 459.546875 1072.257812 463.265625 C 843.722656 489.386719 664.535156 671.636719 642.269531 900.605469 C 641.5625 907.855469 641.304688 915.074219 640.953125 922.292969 L 633.253906 922.292969 C 621.0625 922.292969 610.570312 930.894531 608.164062 942.828125 L 590.421875 1027.183594 L 519.386719 978.1875 C 509.183594 971.160156 495.421875 972.414062 486.660156 981.171875 L 409.660156 1058.179688 C 400.902344 1066.941406 399.648438 1080.671875 406.675781 1090.875 L 455.445312 1161.789062 L 371.0625 1179.53125 C 359.222656 1182.128906 350.851562 1192.589844 350.851562 1204.6875 L 350.851562 1307.363281 C 350.851562 1319.492188 359.351562 1329.984375 371.222656 1332.488281 L 455.605469 1350.230469 L 406.835938 1421.140625 C 399.808594 1431.34375 401.0625 1445.078125 409.820312 1453.835938 L 486.820312 1530.84375 C 495.582031 1539.605469 509.34375 1540.855469 519.546875 1533.828125 L 590.453125 1484.929688 L 608.195312 1569.316406 C 610.632812 1581.253906 621.125 1589.820312 633.285156 1589.851562 L 735.953125 1589.851562 C 748.082031 1589.851562 758.574219 1581.347656 761.074219 1569.476562 L 778.816406 1485.089844 L 849.722656 1533.859375 C 859.925781 1540.886719 873.65625 1539.636719 882.417969 1530.875 L 922.265625 1490.898438 L 922.265625 1564.054688 C 922.394531 1600.566406 941.933594 1634.257812 973.597656 1652.453125 L 973.597656 1795.074219 C 973.597656 1851.773438 1019.574219 1897.753906 1076.269531 1897.753906 L 1178.9375 1897.753906 C 1235.628906 1897.753906 1281.605469 1851.773438 1281.605469 1795.074219 L 1281.605469 1652.453125 C 1313.273438 1634.257812 1332.8125 1600.566406 1332.9375 1564.054688 L 1332.9375 1462.46875 C 1333.644531 1419.730469 1356.007812 1380.261719 1392.292969 1357.675781 C 1413.597656 1343.84375 1433.777344 1328.410156 1452.707031 1311.46875 L 1418.476562 1273.222656 C 1401.566406 1288.398438 1383.472656 1302.230469 1364.382812 1314.582031 C 1313.398438 1346.574219 1282.214844 1402.273438 1281.574219 1462.46875 L 1281.574219 1564.054688 C 1281.574219 1592.417969 1258.601562 1615.390625 1230.238281 1615.390625 L 1024.902344 1615.390625 C 996.539062 1615.390625 973.566406 1592.417969 973.566406 1564.054688 L 973.566406 1460.320312 C 972.988281 1401.28125 942.253906 1346.636719 892.136719 1315.449219 C 688.695312 1187.617188 627.414062 919.054688 755.234375 715.59375 C 834.546875 589.367188 972.957031 512.519531 1122.050781 512.007812 C 1121.667969 512.90625 1121.34375 513.867188 1121.058594 514.796875 C 1120.09375 521.535156 1121.859375 528.371094 1125.964844 533.824219 L 1186.476562 614.488281 C 1192.859375 622.734375 1193.46875 634.09375 1188.015625 642.984375 C 1182.753906 651.933594 1172.617188 656.8125 1162.347656 655.335938 L 1062.503906 641.058594 C 1048.484375 639.035156 1035.457031 648.789062 1033.46875 662.8125 L 1011.683594 815.285156 C 1009.660156 829.308594 1019.414062 842.335938 1033.433594 844.355469 L 1133.28125 858.636719 C 1147.300781 860.625 1157.054688 873.621094 1155.066406 887.671875 C 1154.101562 894.410156 1150.507812 900.507812 1145.054688 904.582031 L 1064.398438 965.097656 C 1053.039062 973.601562 1050.761719 989.675781 1059.261719 1001.035156 L 1151.664062 1124.246094 C 1160.167969 1135.605469 1176.273438 1137.882812 1187.597656 1129.378906 L 1268.289062 1068.863281 C 1279.648438 1060.363281 1295.722656 1062.703125 1304.222656 1074.0625 C 1308.296875 1079.484375 1310.03125 1086.320312 1309.070312 1093.027344 L 1294.824219 1192.878906 C 1292.800781 1206.902344 1302.554688 1219.925781 1316.578125 1221.949219 L 1469.039062 1243.734375 C 1470.226562 1243.894531 1471.445312 1243.960938 1472.664062 1243.960938 C 1485.433594 1243.960938 1496.277344 1234.589844 1498.105469 1221.949219 L 1512.351562 1122.097656 C 1514.339844 1108.074219 1527.335938 1098.320312 1541.386719 1100.308594 C 1548.125 1101.273438 1554.222656 1104.867188 1558.296875 1110.320312 L 1618.808594 1190.984375 C 1627.308594 1202.34375 1643.414062 1204.621094 1654.742188 1196.121094 L 1777.941406 1103.710938 C 1789.300781 1095.207031 1791.578125 1079.132812 1783.078125 1067.773438 L 1722.566406 987.109375 C 1716.214844 978.832031 1715.605469 967.535156 1721.027344 958.617188 C 1726.160156 949.535156 1736.394531 944.625 1746.691406 946.296875 L 1846.539062 960.542969 C 1860.558594 962.5625 1873.585938 952.808594 1875.605469 938.789062 L 1897.359375 786.3125 C 1899.378906 772.292969 1889.628906 759.265625 1875.605469 757.242188 Z M 1024.964844 1666.730469 L 1230.300781 1666.730469 L 1230.300781 1718.070312 L 1024.964844 1718.070312 Z M 1024.964844 1769.40625 L 1230.300781 1769.40625 L 1230.300781 1795.074219 C 1230.300781 1823.441406 1207.332031 1846.414062 1178.96875 1846.414062 L 1076.300781 1846.414062 C 1047.9375 1846.414062 1024.964844 1823.441406 1024.964844 1795.074219 Z M 820.621094 1326.742188 C 834.644531 1338.199219 849.273438 1348.882812 864.480469 1358.699219 C 888.738281 1374.039062 906.992188 1397.203125 916.199219 1424.382812 L 861.144531 1479.347656 L 807.820312 1442.574219 C 784.464844 1426.5 752.507812 1432.371094 736.433594 1455.730469 C 732.585938 1461.3125 729.859375 1467.632812 728.476562 1474.277344 L 715.035156 1538.386719 L 654.011719 1538.386719 L 640.566406 1474.40625 C 634.730469 1446.648438 607.488281 1428.90625 579.769531 1434.746094 C 573.128906 1436.15625 566.808594 1438.851562 561.222656 1442.703125 L 507.902344 1479.347656 L 461.121094 1432.691406 L 497.859375 1379.398438 C 513.964844 1356.070312 508.09375 1324.078125 484.769531 1307.972656 C 479.152344 1304.121094 472.867188 1301.394531 466.191406 1299.984375 L 402.214844 1286.507812 L 402.214844 1225.511719 L 466.191406 1212.035156 C 493.914062 1206.164062 511.65625 1178.890625 505.75 1151.167969 C 504.339844 1144.589844 501.675781 1138.332031 497.890625 1132.78125 L 461.121094 1079.324219 L 507.902344 1032.671875 L 561.257812 1069.441406 C 584.613281 1085.519531 616.570312 1079.613281 632.644531 1056.253906 C 636.492188 1050.671875 639.1875 1044.351562 640.601562 1037.710938 L 645.089844 1016.339844 C 649.199219 1045.921875 656 1075.058594 665.433594 1103.390625 C 580.988281 1113.464844 520.671875 1190.085938 530.746094 1274.539062 C 540.820312 1358.988281 617.433594 1419.3125 701.914062 1409.238281 C 752.765625 1403.171875 797.265625 1372.242188 820.65625 1326.710938 Z M 780.773438 1290.582031 C 761.621094 1343.878906 702.875 1371.503906 649.617188 1352.347656 C 596.355469 1333.191406 568.699219 1274.441406 587.855469 1221.179688 C 602.515625 1180.429688 641.210938 1153.285156 684.523438 1153.347656 L 685.484375 1153.347656 C 709.097656 1204.238281 741.3125 1250.667969 780.773438 1290.582031 Z M 1828.347656 905.996094 L 1753.914062 895.375 C 1711.816406 889.375 1672.804688 918.605469 1666.804688 960.734375 C 1663.917969 980.949219 1669.179688 1001.484375 1681.433594 1017.816406 L 1726.542969 1077.945312 L 1644.410156 1139.550781 L 1599.300781 1079.421875 C 1573.792969 1045.410156 1525.539062 1038.480469 1491.496094 1064.019531 C 1475.167969 1076.277344 1464.355469 1094.503906 1461.46875 1114.714844 L 1451.070312 1189.253906 L 1349.460938 1174.71875 L 1360.082031 1100.277344 C 1366.113281 1058.179688 1336.886719 1019.164062 1294.757812 1013.132812 C 1274.546875 1010.242188 1253.980469 1015.503906 1237.648438 1027.761719 L 1177.523438 1072.875 L 1115.921875 990.734375 L 1176.046875 945.621094 C 1210.089844 920.113281 1216.988281 871.855469 1191.449219 837.8125 C 1179.191406 821.480469 1160.96875 810.667969 1140.757812 807.777344 L 1066.320312 797.15625 L 1080.855469 695.539062 L 1155.289062 706.160156 C 1197.382812 712.191406 1236.398438 682.929688 1242.429688 640.832031 C 1245.316406 620.585938 1240.054688 600.050781 1227.800781 583.71875 L 1182.5625 523.523438 L 1264.695312 461.917969 L 1309.804688 522.050781 C 1335.3125 556.0625 1383.566406 562.992188 1417.609375 537.449219 C 1433.9375 525.195312 1444.75 506.96875 1447.640625 486.753906 L 1458.257812 412.3125 L 1559.867188 426.816406 L 1549.25 501.257812 C 1543.25 543.355469 1572.476562 582.371094 1614.605469 588.371094 C 1634.816406 591.257812 1655.351562 585.996094 1671.679688 573.742188 L 1731.804688 528.628906 L 1793.40625 610.769531 L 1733.28125 655.882812 C 1699.242188 681.390625 1692.34375 729.679688 1717.882812 763.691406 C 1730.136719 780.023438 1748.363281 790.835938 1768.574219 793.722656 L 1843.007812 804.34375 L 1828.410156 905.929688 Z M 1454.539062 595.398438 C 1341.121094 595.398438 1249.199219 687.324219 1249.199219 800.75 C 1249.199219 914.175781 1341.121094 1006.105469 1454.539062 1006.105469 C 1567.953125 1006.105469 1659.875 914.175781 1659.875 800.75 C 1659.746094 687.390625 1567.890625 595.527344 1454.539062 595.398438 Z M 1454.539062 954.765625 C 1369.484375 954.765625 1300.535156 885.8125 1300.535156 800.75 C 1300.535156 715.691406 1369.484375 646.738281 1454.539062 646.738281 C 1539.589844 646.738281 1608.539062 715.691406 1608.539062 800.75 C 1608.445312 885.78125 1539.558594 954.667969 1454.539062 954.765625 Z M 1101.96875 1487.046875 L 1153.300781 1487.046875 L 1153.300781 1564.054688 L 1101.96875 1564.054688 Z M 1015.371094 1234.945312 C 856.941406 1173.050781 778.65625 994.394531 840.546875 835.949219 C 864.546875 774.535156 907.570312 722.460938 963.363281 687.359375 L 935.933594 643.914062 C 768.003906 749.703125 717.632812 971.609375 823.445312 1139.519531 C 864.417969 1204.558594 925.152344 1254.742188 996.765625 1282.71875 C 1060.128906 1307.011719 1101.96875 1367.847656 1102 1435.707031 L 1153.332031 1435.707031 C 1153.429688 1346.667969 1098.535156 1266.804688 1015.40625 1234.945312 Z M 1615.308594 1307.363281 L 1794.980469 1307.363281 L 1794.980469 1358.699219 L 1615.308594 1358.699219 Z M 1573.214844 1481.078125 L 1606.070312 1441.644531 L 1760.074219 1569.957031 L 1727.21875 1609.390625 Z M 1461.308594 1512.714844 L 1512.640625 1512.714844 L 1512.640625 1692.398438 L 1461.308594 1692.398438 Z M 377.0625 794.71875 L 582.398438 743.382812 L 594.847656 793.148438 L 389.511719 844.484375 Z M 419.703125 532.507812 L 449.507812 490.765625 L 629.179688 619.109375 L 599.371094 660.855469 Z M 639.605469 363.929688 L 689.335938 351.222656 L 741.824219 556.574219 L 692.09375 569.28125 Z M 639.605469 363.929688 " fill-opacity="1" fill-rule="nonzero"/></g></svg>