<svg xmlns="http://www.w3.org/2000/svg" xmlns:xlink="http://www.w3.org/1999/xlink" width="3000" zoomAndPan="magnify" viewBox="0 0 2250 2250.000011" height="3000" preserveAspectRatio="xMidYMid meet" version="1.0"><defs><clipPath id="52a71b673d"><path d="M 340 370 L 1882 370 L 1882 1911.976562 L 340 1911.976562 Z M 340 370 " clip-rule="nonzero"/></clipPath></defs><path fill="#000000" d="M 719.363281 1532.808594 C 708.625 1522.070312 691.277344 1522.070312 680.535156 1532.808594 L 364.960938 1848.367188 C 354.222656 1859.105469 354.222656 1876.453125 364.960938 1887.195312 C 370.46875 1892.699219 377.355469 1895.179688 384.511719 1895.179688 C 391.671875 1895.179688 398.558594 1892.425781 404.066406 1887.195312 L 719.640625 1571.632812 C 730.378906 1560.894531 730.378906 1543.546875 719.640625 1532.808594 Z M 719.363281 1532.808594 " fill-opacity="1" fill-rule="nonzero"/><path fill="#000000" d="M 810.511719 1662.777344 L 624.910156 1848.367188 C 614.171875 1859.105469 614.171875 1876.453125 624.910156 1887.195312 C 630.417969 1892.699219 637.304688 1895.179688 644.464844 1895.179688 C 651.621094 1895.179688 658.507812 1892.425781 664.015625 1887.195312 L 849.613281 1701.601562 C 860.355469 1690.863281 860.355469 1673.515625 849.613281 1662.777344 C 838.875 1652.039062 821.527344 1652.039062 810.789062 1662.777344 Z M 810.511719 1662.777344 " fill-opacity="1" fill-rule="nonzero"/><path fill="#000000" d="M 384.238281 1635.515625 C 391.398438 1635.515625 398.28125 1632.761719 403.789062 1627.53125 L 589.390625 1441.9375 C 600.128906 1431.199219 600.128906 1413.851562 589.390625 1403.113281 C 578.648438 1392.375 561.300781 1392.375 550.5625 1403.113281 L 364.960938 1588.707031 C 354.222656 1599.445312 354.222656 1616.792969 364.960938 1627.53125 C 370.46875 1633.039062 377.355469 1635.515625 384.511719 1635.515625 Z M 384.238281 1635.515625 " fill-opacity="1" fill-rule="nonzero"/><path fill="#000000" d="M 1331.238281 709.761719 C 1274.785156 709.761719 1221.640625 731.789062 1181.710938 771.71875 C 1141.78125 811.644531 1119.753906 864.789062 1119.753906 921.238281 C 1119.753906 977.683594 1141.78125 1030.828125 1181.710938 1070.757812 C 1221.640625 1110.683594 1274.785156 1132.710938 1331.238281 1132.710938 C 1387.6875 1132.710938 1440.835938 1110.683594 1480.765625 1070.757812 C 1520.691406 1030.828125 1542.722656 977.683594 1542.722656 921.238281 C 1542.722656 864.789062 1520.691406 811.644531 1480.765625 771.71875 C 1440.835938 731.789062 1387.6875 709.761719 1331.238281 709.761719 Z M 1441.660156 1031.378906 C 1412.195312 1060.84375 1372.820312 1077.089844 1331.238281 1077.089844 C 1289.65625 1077.089844 1250.277344 1060.84375 1220.8125 1031.378906 C 1191.347656 1001.917969 1175.101562 962.539062 1175.101562 920.960938 C 1175.101562 879.382812 1191.347656 840.007812 1220.8125 810.542969 C 1250.277344 781.078125 1289.65625 764.832031 1331.238281 764.832031 C 1372.820312 764.832031 1412.195312 781.078125 1441.660156 810.542969 C 1471.125 840.007812 1487.371094 879.382812 1487.371094 920.960938 C 1487.371094 962.539062 1471.125 1001.917969 1441.660156 1031.378906 Z M 1441.660156 1031.378906 " fill-opacity="1" fill-rule="nonzero"/><g clip-path="url(#52a71b673d)"><path fill="#000000" d="M 1859.125 412.375 C 1856.644531 403.011719 1849.210938 395.851562 1840.121094 393.375 C 1831.863281 391.171875 1633.320312 337.203125 1388.789062 402.1875 C 1233.207031 443.765625 1094.96875 524.445312 977.660156 641.746094 C 932.226562 687.183594 888.71875 737.023438 848.238281 789.617188 L 634 793.746094 C 613.621094 794.296875 594.347656 802.28125 579.75 816.875 L 363.859375 1032.757812 C 342.105469 1054.511719 334.671875 1085.902344 344.859375 1114.261719 C 354.773438 1141.796875 378.730469 1160.523438 407.921875 1163.550781 L 627.113281 1185.582031 C 617.203125 1243.679688 635.375 1303.710938 678.335938 1346.941406 L 905.238281 1573.835938 C 940.761719 1609.355469 987.851562 1628.355469 1035.765625 1628.355469 C 1045.953125 1628.355469 1056.140625 1627.253906 1066.332031 1625.601562 L 1088.359375 1844.511719 C 1091.390625 1873.703125 1110.113281 1897.933594 1137.652344 1907.570312 C 1146.1875 1910.597656 1155 1911.976562 1163.535156 1911.976562 C 1183.914062 1911.976562 1203.742188 1903.714844 1219.160156 1888.570312 L 1435.050781 1672.691406 C 1449.648438 1658.097656 1457.910156 1638.820312 1458.183594 1618.445312 L 1462.3125 1404.214844 C 1514.910156 1363.460938 1564.753906 1320.230469 1610.1875 1274.796875 C 1727.496094 1157.496094 1808.179688 1018.988281 1849.761719 863.6875 C 1914.75 619.445312 1861.050781 420.910156 1858.574219 412.648438 Z M 644.1875 1132.160156 L 413.425781 1108.753906 C 401.863281 1107.652344 397.730469 1099.394531 396.628906 1095.8125 C 395.527344 1092.785156 392.5 1081.769531 402.6875 1071.582031 L 618.578125 855.703125 C 622.984375 851.296875 629.042969 848.816406 634.824219 848.542969 L 806.65625 845.238281 C 769.207031 898.105469 734.507812 953.179688 703.945312 1009.902344 C 681.914062 1050.105469 662.085938 1091.132812 644.1875 1131.886719 Z M 1087.808594 1562.269531 C 1038.519531 1583.472656 982.066406 1572.734375 944.066406 1534.734375 L 717.160156 1307.839844 C 679.160156 1269.839844 668.421875 1213.667969 689.898438 1164.101562 C 703.394531 1132.4375 718.539062 1100.496094 734.785156 1068.828125 L 1183.089844 1517.113281 C 1151.421875 1533.359375 1119.476562 1548.503906 1087.808594 1561.996094 Z M 1403.660156 1617.34375 C 1403.660156 1623.402344 1400.90625 1629.183594 1396.5 1633.589844 L 1180.609375 1849.46875 C 1170.695312 1859.382812 1159.683594 1856.628906 1156.378906 1855.527344 C 1152.796875 1854.425781 1144.535156 1850.019531 1143.433594 1838.730469 L 1120.027344 1607.980469 C 1160.785156 1590.359375 1201.8125 1570.53125 1242.019531 1548.226562 C 1298.742188 1517.386719 1353.816406 1482.691406 1406.6875 1445.519531 L 1403.386719 1617.34375 Z M 1571.636719 1235.695312 C 1474.429688 1332.898438 1357.949219 1420.460938 1233.757812 1490.128906 L 997.765625 1254.144531 L 761.769531 1018.164062 C 831.441406 893.976562 919.007812 777.5 1016.214844 680.296875 C 1122.78125 573.734375 1247.523438 499.386719 1387.414062 459.183594 L 1792.757812 864.511719 C 1752.554688 1004.394531 1678.203125 1129.132812 1571.636719 1235.695312 Z M 1808.179688 802.007812 L 1450.199219 444.039062 C 1621.203125 408.792969 1763.84375 432.75 1809.558594 442.664062 C 1819.46875 488.648438 1843.425781 631.007812 1808.179688 802.007812 Z M 1808.179688 802.007812 " fill-opacity="1" fill-rule="nonzero"/></g></svg>