<svg xmlns="http://www.w3.org/2000/svg" xmlns:xlink="http://www.w3.org/1999/xlink" width="3000" zoomAndPan="magnify" viewBox="0 0 2250 2250.000011" height="3000" preserveAspectRatio="xMidYMid meet" version="1.0"><defs><clipPath id="54308cd141"><path d="M 748 286.835938 L 1620 286.835938 L 1620 1962.339844 L 748 1962.339844 Z M 748 286.835938 " clip-rule="nonzero"/></clipPath><clipPath id="eb7cec2735"><path d="M 987 472 L 1882.792969 472 L 1882.792969 1808 L 987 1808 Z M 987 472 " clip-rule="nonzero"/></clipPath></defs><g clip-path="url(#54308cd141)"><path fill="#100f0d" d="M 1619.367188 852.226562 L 1265.203125 852.226562 L 1550.792969 286.835938 L 1094 286.835938 L 748.761719 1135 L 1094.296875 1135 L 802.3125 1962.339844 L 1619.367188 852.226562 " fill-opacity="1" fill-rule="nonzero"/></g><g clip-path="url(#eb7cec2735)"><path fill="#100f0d" d="M 987.648438 1782.054688 L 1041.9375 1708.277344 C 1378.398438 1781.460938 1710.398438 1568.15625 1783.578125 1231.6875 C 1843.078125 958.433594 1713.371094 678.9375 1466.160156 548.183594 L 1504.386719 472.621094 C 1850.367188 654.691406 1983.195312 1082.9375 1800.984375 1428.925781 C 1646.289062 1722.855469 1308.042969 1869.816406 987.648438 1782.054688 " fill-opacity="1" fill-rule="nonzero"/></g><path fill="#100f0d" d="M 996.570312 413.714844 L 955.222656 515.609375 C 632.890625 636.691406 469.867188 996.214844 590.945312 1318.554688 C 642.855469 1456.296875 741.625 1571.277344 870.140625 1643.125 L 841.582031 1724.042969 C 496.492188 1540.191406 365.746094 1111.347656 549.59375 766.25 C 642.707031 591.324219 804.839844 463.546875 996.570312 413.714844 " fill-opacity="1" fill-rule="nonzero"/></svg>