<svg xmlns="http://www.w3.org/2000/svg" xmlns:xlink="http://www.w3.org/1999/xlink" width="3000" zoomAndPan="magnify" viewBox="0 0 2250 2250.000011" height="3000" preserveAspectRatio="xMidYMid meet" version="1.0"><defs><clipPath id="65c97ac7e0"><path d="M 440.699219 301 L 1842 301 L 1842 1889 L 440.699219 1889 Z M 440.699219 301 " clip-rule="nonzero"/></clipPath></defs><g clip-path="url(#65c97ac7e0)"><path fill="#000000" d="M 1310.667969 301.605469 L 1106.082031 301.605469 L 1152.59375 444.207031 L 1468.703125 444.207031 L 1515.210938 301.605469 Z M 1470.558594 495.726562 L 1150.773438 495.726562 C 1140.097656 519.085938 1124.539062 548.367188 1106.652344 582.039062 C 1046.570312 695.09375 959.441406 859.0625 963.113281 968.164062 C 963.253906 971.957031 963.515625 975.742188 963.894531 979.519531 C 964.277344 983.296875 964.777344 987.058594 965.398438 990.804688 C 966.023438 994.550781 966.761719 998.273438 967.621094 1001.972656 C 968.480469 1005.671875 969.453125 1009.335938 970.546875 1012.972656 C 971.640625 1016.609375 972.847656 1020.207031 974.167969 1023.765625 C 975.492188 1027.328125 976.925781 1030.839844 978.46875 1034.308594 C 980.015625 1037.777344 981.671875 1041.191406 983.433594 1044.554688 C 985.199219 1047.914062 987.070312 1051.21875 989.042969 1054.460938 C 991.015625 1057.703125 993.09375 1060.882812 995.269531 1063.992188 C 997.445312 1067.105469 999.722656 1070.140625 1002.09375 1073.109375 C 1004.460938 1076.074219 1006.925781 1078.960938 1009.480469 1081.769531 C 1012.035156 1084.578125 1014.675781 1087.304688 1017.40625 1089.941406 C 1020.136719 1092.582031 1022.945312 1095.132812 1025.835938 1097.59375 C 1028.726562 1100.054688 1031.695312 1102.421875 1034.738281 1104.695312 C 1037.777344 1106.964844 1040.890625 1109.140625 1044.070312 1111.214844 C 1047.253906 1113.285156 1050.496094 1115.257812 1053.800781 1117.125 C 1120.660156 1159.386719 1215.226562 1178.601562 1310.667969 1179.226562 C 1406.066406 1178.5625 1500.710938 1159.351562 1567.53125 1117.085938 C 1570.835938 1115.21875 1574.082031 1113.25 1577.261719 1111.175781 C 1580.445312 1109.101562 1583.554688 1106.929688 1586.597656 1104.660156 C 1589.640625 1102.386719 1592.609375 1100.019531 1595.5 1097.558594 C 1598.390625 1095.097656 1601.203125 1092.546875 1603.929688 1089.90625 C 1606.660156 1087.269531 1609.300781 1084.542969 1611.855469 1081.734375 C 1614.410156 1078.925781 1616.875 1076.039062 1619.246094 1073.074219 C 1621.617188 1070.105469 1623.890625 1067.070312 1626.066406 1063.957031 C 1628.246094 1060.847656 1630.320312 1057.671875 1632.296875 1054.425781 C 1634.269531 1051.183594 1636.140625 1047.878906 1637.902344 1044.519531 C 1639.667969 1041.15625 1641.320312 1037.742188 1642.867188 1034.273438 C 1644.414062 1030.804688 1645.847656 1027.289062 1647.167969 1023.730469 C 1648.492188 1020.171875 1649.699219 1016.574219 1650.789062 1012.9375 C 1651.882812 1009.300781 1652.859375 1005.632812 1653.71875 1001.933594 C 1654.574219 998.234375 1655.316406 994.515625 1655.9375 990.769531 C 1656.554688 987.023438 1657.058594 983.261719 1657.4375 979.484375 C 1657.820312 975.703125 1658.078125 971.917969 1658.21875 968.125 C 1661.890625 859.0625 1574.761719 695.09375 1514.699219 582 C 1496.792969 548.328125 1481.234375 519.046875 1470.558594 495.691406 Z M 1205.195312 917.113281 C 1205.171875 916.257812 1205.191406 915.398438 1205.253906 914.542969 C 1205.316406 913.6875 1205.421875 912.835938 1205.570312 911.992188 C 1205.714844 911.144531 1205.90625 910.308594 1206.136719 909.484375 C 1206.367188 908.65625 1206.640625 907.84375 1206.949219 907.042969 C 1207.261719 906.242188 1207.613281 905.460938 1208.003906 904.699219 C 1208.394531 903.933594 1208.824219 903.191406 1209.289062 902.46875 C 1209.753906 901.746094 1210.253906 901.050781 1210.785156 900.378906 C 1211.320312 899.707031 1211.886719 899.0625 1212.484375 898.449219 C 1213.085938 897.832031 1213.710938 897.25 1214.371094 896.699219 C 1215.027344 896.144531 1215.710938 895.628906 1216.417969 895.144531 C 1217.125 894.660156 1217.859375 894.210938 1218.613281 893.800781 C 1219.363281 893.390625 1220.136719 893.015625 1220.929688 892.683594 C 1221.71875 892.347656 1222.523438 892.054688 1223.34375 891.800781 C 1224.164062 891.550781 1224.996094 891.335938 1225.835938 891.167969 C 1226.675781 890.996094 1227.523438 890.867188 1228.378906 890.785156 C 1229.234375 890.699219 1230.089844 890.65625 1230.949219 890.65625 C 1231.804688 890.65625 1232.664062 890.699219 1233.515625 890.785156 C 1234.371094 890.867188 1235.21875 890.996094 1236.058594 891.167969 C 1236.902344 891.335938 1237.730469 891.550781 1238.550781 891.800781 C 1239.371094 892.054688 1240.175781 892.347656 1240.96875 892.683594 C 1241.757812 893.015625 1242.53125 893.390625 1243.285156 893.800781 C 1244.039062 894.210938 1244.769531 894.660156 1245.476562 895.144531 C 1246.1875 895.628906 1246.871094 896.144531 1247.527344 896.699219 C 1248.183594 897.25 1248.8125 897.832031 1249.410156 898.449219 C 1250.007812 899.0625 1250.574219 899.707031 1251.109375 900.378906 C 1251.644531 901.050781 1252.144531 901.746094 1252.609375 902.46875 C 1253.074219 903.191406 1253.5 903.933594 1253.890625 904.699219 C 1254.28125 905.460938 1254.632812 906.242188 1254.945312 907.042969 C 1255.257812 907.84375 1255.527344 908.65625 1255.757812 909.484375 C 1255.992188 910.308594 1256.179688 911.144531 1256.328125 911.992188 C 1256.476562 912.835938 1256.578125 913.6875 1256.640625 914.542969 C 1256.703125 915.398438 1256.722656 916.257812 1256.699219 917.113281 C 1256.699219 918.882812 1256.789062 920.644531 1256.960938 922.402344 C 1257.132812 924.164062 1257.394531 925.910156 1257.738281 927.640625 C 1258.082031 929.375 1258.511719 931.085938 1259.023438 932.777344 C 1259.539062 934.46875 1260.132812 936.132812 1260.808594 937.765625 C 1261.484375 939.398438 1262.238281 940.992188 1263.074219 942.550781 C 1263.90625 944.109375 1264.8125 945.625 1265.796875 947.09375 C 1266.777344 948.5625 1267.828125 949.980469 1268.949219 951.347656 C 1270.070312 952.714844 1271.257812 954.023438 1272.507812 955.273438 C 1273.757812 956.523438 1275.066406 957.707031 1276.429688 958.828125 C 1277.796875 959.949219 1279.214844 961 1280.683594 961.984375 C 1282.15625 962.964844 1283.667969 963.871094 1285.226562 964.707031 C 1286.785156 965.539062 1288.382812 966.292969 1290.015625 966.96875 C 1291.648438 967.644531 1293.308594 968.242188 1295 968.753906 C 1296.691406 969.265625 1298.40625 969.695312 1300.136719 970.039062 C 1301.871094 970.386719 1303.617188 970.644531 1305.378906 970.816406 C 1307.136719 970.992188 1308.898438 971.078125 1310.667969 971.078125 C 1312.464844 971.125 1314.257812 971.082031 1316.050781 970.949219 C 1317.84375 970.820312 1319.625 970.597656 1321.394531 970.289062 C 1323.164062 969.980469 1324.914062 969.582031 1326.648438 969.097656 C 1328.378906 968.613281 1330.078125 968.042969 1331.753906 967.386719 C 1333.425781 966.734375 1335.0625 965.996094 1336.664062 965.179688 C 1338.265625 964.359375 1339.820312 963.464844 1341.332031 962.492188 C 1342.839844 961.519531 1344.300781 960.472656 1345.707031 959.351562 C 1347.113281 958.234375 1348.460938 957.046875 1349.746094 955.792969 C 1351.035156 954.539062 1352.257812 953.222656 1353.414062 951.847656 C 1354.570312 950.472656 1355.652344 949.042969 1356.667969 947.558594 C 1357.679688 946.074219 1358.617188 944.542969 1359.476562 942.964844 C 1360.335938 941.386719 1361.117188 939.769531 1361.816406 938.113281 C 1362.515625 936.457031 1363.128906 934.769531 1363.660156 933.054688 C 1364.191406 931.335938 1364.632812 929.597656 1364.988281 927.835938 C 1365.347656 926.074219 1365.613281 924.300781 1365.792969 922.511719 C 1365.972656 920.722656 1366.0625 918.929688 1366.0625 917.132812 C 1366.0625 915.335938 1365.972656 913.542969 1365.792969 911.753906 C 1365.613281 909.96875 1365.347656 908.191406 1364.988281 906.429688 C 1364.632812 904.667969 1364.191406 902.929688 1363.660156 901.210938 C 1363.128906 899.496094 1362.515625 897.808594 1361.816406 896.152344 C 1361.117188 894.496094 1360.335938 892.878906 1359.476562 891.300781 C 1358.617188 889.722656 1357.679688 888.195312 1356.667969 886.710938 C 1355.652344 885.226562 1354.570312 883.792969 1353.414062 882.417969 C 1352.257812 881.042969 1351.035156 879.726562 1349.746094 878.472656 C 1348.460938 877.21875 1347.113281 876.035156 1345.707031 874.914062 C 1344.300781 873.796875 1342.839844 872.75 1341.332031 871.773438 C 1339.820312 870.800781 1338.265625 869.90625 1336.664062 869.085938 C 1335.0625 868.269531 1333.425781 867.53125 1331.753906 866.878906 C 1330.078125 866.222656 1328.378906 865.652344 1326.648438 865.167969 C 1324.914062 864.683594 1323.164062 864.289062 1321.394531 863.976562 C 1319.625 863.667969 1317.84375 863.449219 1316.050781 863.316406 C 1314.257812 863.183594 1312.464844 863.140625 1310.667969 863.191406 C 1309.074219 863.191406 1307.480469 863.160156 1305.890625 863.089844 C 1304.300781 863.019531 1302.710938 862.914062 1301.125 862.773438 C 1299.539062 862.632812 1297.957031 862.457031 1296.378906 862.242188 C 1294.800781 862.03125 1293.226562 861.78125 1291.660156 861.496094 C 1290.09375 861.214844 1288.53125 860.894531 1286.980469 860.539062 C 1285.429688 860.183594 1283.882812 859.796875 1282.347656 859.371094 C 1280.8125 858.945312 1279.289062 858.488281 1277.777344 857.992188 C 1276.261719 857.5 1274.757812 856.972656 1273.269531 856.410156 C 1271.777344 855.847656 1270.300781 855.253906 1268.839844 854.625 C 1267.375 853.996094 1265.925781 853.332031 1264.492188 852.640625 C 1263.0625 851.945312 1261.644531 851.21875 1260.242188 850.460938 C 1258.84375 849.703125 1257.460938 848.910156 1256.097656 848.089844 C 1254.730469 847.269531 1253.386719 846.417969 1252.058594 845.535156 C 1250.734375 844.652344 1249.429688 843.742188 1248.144531 842.800781 C 1246.859375 841.859375 1245.597656 840.890625 1244.355469 839.890625 C 1243.113281 838.894531 1241.898438 837.867188 1240.703125 836.8125 C 1239.507812 835.761719 1238.339844 834.679688 1237.191406 833.574219 C 1236.046875 832.46875 1234.929688 831.335938 1233.835938 830.179688 C 1232.738281 829.023438 1231.671875 827.839844 1230.632812 826.632812 C 1229.589844 825.429688 1228.578125 824.199219 1227.59375 822.949219 C 1226.609375 821.699219 1225.652344 820.425781 1224.726562 819.128906 C 1223.796875 817.835938 1222.902344 816.519531 1222.03125 815.183594 C 1221.164062 813.847656 1220.328125 812.496094 1219.523438 811.121094 C 1218.714844 809.746094 1217.941406 808.355469 1217.199219 806.949219 C 1216.453125 805.539062 1215.742188 804.117188 1215.0625 802.675781 C 1214.386719 801.234375 1213.738281 799.777344 1213.125 798.308594 C 1212.515625 796.839844 1211.933594 795.355469 1211.390625 793.859375 C 1210.84375 792.363281 1210.332031 790.855469 1209.855469 789.335938 C 1209.375 787.816406 1208.933594 786.289062 1208.527344 784.75 C 1208.117188 783.210938 1207.746094 781.664062 1207.40625 780.105469 C 1207.070312 778.550781 1206.765625 776.988281 1206.5 775.417969 C 1206.230469 773.847656 1206 772.273438 1205.804688 770.691406 C 1205.609375 769.109375 1205.449219 767.527344 1205.324219 765.9375 C 1205.199219 764.351562 1205.113281 762.761719 1205.0625 761.167969 C 1205.007812 759.578125 1204.992188 757.984375 1205.011719 756.394531 C 1205.03125 754.800781 1205.089844 753.210938 1205.179688 751.621094 C 1205.273438 750.03125 1205.402344 748.445312 1205.566406 746.859375 C 1205.730469 745.277344 1205.929688 743.695312 1206.164062 742.121094 C 1206.402344 740.546875 1206.671875 738.976562 1206.980469 737.414062 C 1207.285156 735.851562 1207.628906 734.296875 1208.003906 732.75 C 1208.382812 731.203125 1208.792969 729.664062 1209.242188 728.136719 C 1209.6875 726.605469 1210.167969 725.089844 1210.683594 723.582031 C 1211.199219 722.074219 1211.75 720.582031 1212.332031 719.101562 C 1212.914062 717.617188 1213.53125 716.148438 1214.183594 714.695312 C 1214.832031 713.242188 1215.515625 711.804688 1216.230469 710.378906 C 1216.945312 708.957031 1217.691406 707.550781 1218.46875 706.164062 C 1219.246094 704.773438 1220.058594 703.402344 1220.898438 702.050781 C 1221.738281 700.695312 1222.609375 699.363281 1223.511719 698.050781 C 1224.414062 696.738281 1225.34375 695.445312 1226.300781 694.175781 C 1227.261719 692.902344 1228.25 691.65625 1229.265625 690.429688 C 1230.28125 689.203125 1231.324219 688 1232.394531 686.820312 C 1233.46875 685.644531 1234.5625 684.488281 1235.6875 683.359375 C 1236.808594 682.230469 1237.957031 681.128906 1239.132812 680.050781 C 1240.304688 678.972656 1241.5 677.921875 1242.722656 676.898438 C 1243.941406 675.875 1245.183594 674.882812 1246.449219 673.914062 C 1247.714844 672.949219 1249.003906 672.011719 1250.3125 671.101562 C 1251.617188 670.195312 1252.945312 669.316406 1254.292969 668.46875 C 1255.644531 667.617188 1257.007812 666.800781 1258.394531 666.015625 C 1259.777344 665.230469 1261.179688 664.472656 1262.601562 663.75 C 1264.019531 663.027344 1265.453125 662.335938 1266.902344 661.679688 C 1268.355469 661.023438 1269.820312 660.398438 1271.296875 659.804688 C 1272.777344 659.214844 1274.265625 658.65625 1275.773438 658.132812 C 1277.277344 657.609375 1278.789062 657.117188 1280.316406 656.664062 C 1281.84375 656.207031 1283.378906 655.789062 1284.921875 655.402344 L 1284.921875 614.402344 C 1284.945312 613.574219 1285.007812 612.75 1285.109375 611.925781 C 1285.210938 611.105469 1285.355469 610.289062 1285.535156 609.480469 C 1285.714844 608.667969 1285.9375 607.871094 1286.195312 607.082031 C 1286.453125 606.296875 1286.746094 605.523438 1287.082031 604.761719 C 1287.414062 604.003906 1287.78125 603.261719 1288.1875 602.539062 C 1288.589844 601.8125 1289.027344 601.109375 1289.5 600.429688 C 1289.972656 599.746094 1290.476562 599.089844 1291.011719 598.457031 C 1291.546875 597.824219 1292.113281 597.21875 1292.707031 596.640625 C 1293.300781 596.0625 1293.921875 595.515625 1294.570312 594.996094 C 1295.21875 594.476562 1295.886719 593.992188 1296.582031 593.539062 C 1297.277344 593.085938 1297.988281 592.664062 1298.722656 592.28125 C 1299.460938 591.894531 1300.210938 591.546875 1300.980469 591.234375 C 1301.746094 590.921875 1302.527344 590.648438 1303.324219 590.414062 C 1304.117188 590.175781 1304.921875 589.976562 1305.734375 589.820312 C 1306.550781 589.660156 1307.367188 589.539062 1308.195312 589.460938 C 1309.019531 589.378906 1309.847656 589.339844 1310.675781 589.339844 C 1311.503906 589.339844 1312.332031 589.378906 1313.15625 589.460938 C 1313.984375 589.539062 1314.804688 589.660156 1315.617188 589.820312 C 1316.429688 589.976562 1317.234375 590.175781 1318.03125 590.414062 C 1318.824219 590.648438 1319.605469 590.921875 1320.375 591.234375 C 1321.140625 591.546875 1321.894531 591.894531 1322.628906 592.28125 C 1323.363281 592.664062 1324.078125 593.085938 1324.769531 593.539062 C 1325.464844 593.992188 1326.136719 594.476562 1326.78125 594.996094 C 1327.429688 595.515625 1328.050781 596.0625 1328.644531 596.640625 C 1329.238281 597.21875 1329.804688 597.824219 1330.339844 598.457031 C 1330.875 599.089844 1331.378906 599.746094 1331.851562 600.429688 C 1332.324219 601.109375 1332.761719 601.8125 1333.167969 602.539062 C 1333.570312 603.261719 1333.941406 604.003906 1334.273438 604.761719 C 1334.605469 605.523438 1334.902344 606.296875 1335.160156 607.082031 C 1335.417969 607.871094 1335.636719 608.667969 1335.816406 609.480469 C 1336 610.289062 1336.140625 611.105469 1336.242188 611.925781 C 1336.34375 612.75 1336.40625 613.574219 1336.429688 614.402344 L 1336.429688 655.363281 C 1339.25 656.074219 1342.039062 656.902344 1344.789062 657.84375 C 1347.542969 658.785156 1350.253906 659.839844 1352.917969 661.007812 C 1355.582031 662.171875 1358.195312 663.445312 1360.757812 664.828125 C 1363.316406 666.210938 1365.816406 667.695312 1368.253906 669.285156 C 1370.691406 670.875 1373.058594 672.5625 1375.355469 674.347656 C 1377.652344 676.128906 1379.875 678.007812 1382.015625 679.976562 C 1384.15625 681.945312 1386.214844 683.996094 1388.1875 686.136719 C 1390.160156 688.273438 1392.042969 690.492188 1393.832031 692.785156 C 1395.621094 695.078125 1397.3125 697.445312 1398.90625 699.878906 C 1400.5 702.3125 1401.988281 704.808594 1403.375 707.367188 C 1404.761719 709.921875 1406.042969 712.535156 1407.214844 715.195312 C 1408.382812 717.859375 1409.445312 720.566406 1410.390625 723.316406 C 1411.339844 726.070312 1412.171875 728.855469 1412.886719 731.675781 C 1413.605469 734.492188 1414.203125 737.339844 1414.683594 740.207031 C 1415.164062 743.078125 1415.527344 745.960938 1415.769531 748.859375 C 1416.011719 751.757812 1416.136719 754.664062 1416.136719 757.574219 C 1416.160156 758.429688 1416.140625 759.289062 1416.078125 760.144531 C 1416.015625 761 1415.910156 761.851562 1415.765625 762.695312 C 1415.617188 763.542969 1415.429688 764.378906 1415.195312 765.203125 C 1414.964844 766.03125 1414.695312 766.84375 1414.382812 767.644531 C 1414.070312 768.441406 1413.71875 769.222656 1413.328125 769.988281 C 1412.9375 770.753906 1412.507812 771.496094 1412.042969 772.21875 C 1411.582031 772.9375 1411.082031 773.636719 1410.546875 774.308594 C 1410.011719 774.980469 1409.445312 775.621094 1408.847656 776.238281 C 1408.25 776.851562 1407.621094 777.4375 1406.964844 777.988281 C 1406.304688 778.539062 1405.625 779.058594 1404.914062 779.542969 C 1404.207031 780.027344 1403.476562 780.472656 1402.722656 780.886719 C 1401.96875 781.296875 1401.195312 781.667969 1400.40625 782.003906 C 1399.613281 782.335938 1398.808594 782.628906 1397.988281 782.882812 C 1397.167969 783.136719 1396.339844 783.347656 1395.496094 783.519531 C 1394.65625 783.6875 1393.808594 783.816406 1392.953125 783.902344 C 1392.101562 783.988281 1391.242188 784.03125 1390.386719 784.03125 C 1389.527344 784.03125 1388.671875 783.988281 1387.816406 783.902344 C 1386.964844 783.816406 1386.117188 783.6875 1385.273438 783.519531 C 1384.433594 783.347656 1383.601562 783.136719 1382.78125 782.882812 C 1381.960938 782.628906 1381.15625 782.335938 1380.367188 782.003906 C 1379.574219 781.667969 1378.804688 781.296875 1378.050781 780.886719 C 1377.296875 780.472656 1376.566406 780.027344 1375.855469 779.542969 C 1375.148438 779.058594 1374.464844 778.539062 1373.808594 777.988281 C 1373.152344 777.4375 1372.523438 776.851562 1371.925781 776.238281 C 1371.324219 775.621094 1370.757812 774.980469 1370.226562 774.308594 C 1369.691406 773.636719 1369.191406 772.9375 1368.726562 772.21875 C 1368.261719 771.496094 1367.832031 770.753906 1367.441406 769.988281 C 1367.054688 769.222656 1366.703125 768.441406 1366.390625 767.644531 C 1366.078125 766.84375 1365.804688 766.03125 1365.574219 765.203125 C 1365.34375 764.378906 1365.152344 763.542969 1365.007812 762.695312 C 1364.859375 761.851562 1364.753906 761 1364.691406 760.144531 C 1364.628906 759.289062 1364.609375 758.429688 1364.632812 757.574219 C 1364.632812 755.804688 1364.546875 754.042969 1364.371094 752.285156 C 1364.199219 750.523438 1363.941406 748.777344 1363.597656 747.046875 C 1363.25 745.3125 1362.820312 743.601562 1362.308594 741.910156 C 1361.796875 740.21875 1361.203125 738.554688 1360.523438 736.921875 C 1359.847656 735.289062 1359.09375 733.695312 1358.261719 732.136719 C 1357.425781 730.578125 1356.519531 729.0625 1355.539062 727.59375 C 1354.554688 726.125 1353.503906 724.707031 1352.382812 723.339844 C 1351.261719 721.972656 1350.078125 720.664062 1348.828125 719.414062 C 1347.578125 718.167969 1346.269531 716.980469 1344.902344 715.859375 C 1343.535156 714.738281 1342.117188 713.6875 1340.648438 712.703125 C 1339.179688 711.722656 1337.664062 710.816406 1336.105469 709.980469 C 1334.546875 709.148438 1332.953125 708.394531 1331.320312 707.71875 C 1329.6875 707.042969 1328.023438 706.445312 1326.332031 705.933594 C 1324.640625 705.421875 1322.929688 704.992188 1321.195312 704.648438 C 1319.460938 704.300781 1317.714844 704.042969 1315.957031 703.871094 C 1314.199219 703.695312 1312.433594 703.609375 1310.667969 703.609375 C 1308.871094 703.5625 1307.074219 703.605469 1305.28125 703.738281 C 1303.492188 703.867188 1301.710938 704.089844 1299.9375 704.398438 C 1298.167969 704.707031 1296.417969 705.105469 1294.6875 705.589844 C 1292.957031 706.074219 1291.253906 706.644531 1289.578125 707.296875 C 1287.90625 707.953125 1286.269531 708.691406 1284.667969 709.507812 C 1283.070312 710.324219 1281.511719 711.222656 1280.003906 712.195312 C 1278.492188 713.167969 1277.03125 714.214844 1275.625 715.335938 C 1274.21875 716.453125 1272.875 717.640625 1271.585938 718.894531 C 1270.296875 720.148438 1269.078125 721.464844 1267.921875 722.839844 C 1266.765625 724.214844 1265.679688 725.644531 1264.664062 727.128906 C 1263.652344 728.613281 1262.714844 730.144531 1261.855469 731.722656 C 1260.996094 733.300781 1260.214844 734.917969 1259.515625 736.574219 C 1258.816406 738.230469 1258.203125 739.917969 1257.671875 741.632812 C 1257.144531 743.351562 1256.699219 745.089844 1256.34375 746.851562 C 1255.988281 748.613281 1255.71875 750.386719 1255.539062 752.175781 C 1255.359375 753.964844 1255.269531 755.757812 1255.269531 757.554688 C 1255.269531 759.351562 1255.359375 761.144531 1255.539062 762.933594 C 1255.71875 764.722656 1255.988281 766.496094 1256.34375 768.257812 C 1256.699219 770.019531 1257.144531 771.757812 1257.671875 773.476562 C 1258.203125 775.191406 1258.816406 776.878906 1259.515625 778.535156 C 1260.214844 780.191406 1260.996094 781.808594 1261.855469 783.386719 C 1262.714844 784.964844 1263.652344 786.496094 1264.664062 787.980469 C 1265.679688 789.464844 1266.765625 790.894531 1267.921875 792.269531 C 1269.078125 793.644531 1270.296875 794.960938 1271.585938 796.214844 C 1272.875 797.46875 1274.21875 798.652344 1275.625 799.773438 C 1277.03125 800.894531 1278.492188 801.9375 1280.003906 802.914062 C 1281.511719 803.886719 1283.070312 804.78125 1284.667969 805.601562 C 1286.269531 806.417969 1287.90625 807.15625 1289.578125 807.808594 C 1291.253906 808.464844 1292.957031 809.035156 1294.6875 809.519531 C 1296.417969 810.003906 1298.167969 810.398438 1299.9375 810.710938 C 1301.710938 811.019531 1303.492188 811.242188 1305.28125 811.371094 C 1307.074219 811.503906 1308.871094 811.546875 1310.667969 811.496094 C 1312.265625 811.488281 1313.863281 811.511719 1315.460938 811.574219 C 1317.058594 811.632812 1318.652344 811.730469 1320.246094 811.867188 C 1321.839844 812 1323.429688 812.167969 1325.015625 812.375 C 1326.601562 812.582031 1328.179688 812.824219 1329.753906 813.101562 C 1331.328125 813.378906 1332.898438 813.691406 1334.457031 814.042969 C 1336.015625 814.390625 1337.570312 814.773438 1339.113281 815.195312 C 1340.65625 815.613281 1342.1875 816.070312 1343.707031 816.558594 C 1345.230469 817.046875 1346.742188 817.570312 1348.238281 818.128906 C 1349.738281 818.6875 1351.222656 819.277344 1352.695312 819.902344 C 1354.164062 820.527344 1355.621094 821.1875 1357.0625 821.878906 C 1358.503906 822.570312 1359.929688 823.296875 1361.335938 824.050781 C 1362.746094 824.808594 1364.136719 825.597656 1365.507812 826.417969 C 1366.882812 827.234375 1368.234375 828.085938 1369.570312 828.96875 C 1370.902344 829.847656 1372.214844 830.757812 1373.507812 831.699219 C 1374.800781 832.640625 1376.070312 833.613281 1377.320312 834.609375 C 1378.570312 835.609375 1379.792969 836.636719 1380.996094 837.691406 C 1382.199219 838.742188 1383.375 839.824219 1384.527344 840.933594 C 1385.679688 842.042969 1386.808594 843.175781 1387.90625 844.332031 C 1389.007812 845.492188 1390.082031 846.675781 1391.128906 847.882812 C 1392.175781 849.09375 1393.195312 850.324219 1394.1875 851.578125 C 1395.179688 852.832031 1396.140625 854.109375 1397.074219 855.40625 C 1398.007812 856.703125 1398.910156 858.023438 1399.785156 859.363281 C 1400.65625 860.703125 1401.5 862.058594 1402.3125 863.4375 C 1403.125 864.8125 1403.902344 866.210938 1404.652344 867.621094 C 1405.398438 869.035156 1406.113281 870.464844 1406.796875 871.910156 C 1407.480469 873.355469 1408.128906 874.816406 1408.746094 876.289062 C 1409.363281 877.765625 1409.949219 879.253906 1410.496094 880.753906 C 1411.046875 882.257812 1411.558594 883.769531 1412.039062 885.292969 C 1412.519531 886.820312 1412.964844 888.355469 1413.375 889.898438 C 1413.785156 891.445312 1414.160156 893 1414.5 894.558594 C 1414.839844 896.121094 1415.144531 897.691406 1415.414062 899.269531 C 1415.683594 900.84375 1415.914062 902.425781 1416.113281 904.011719 C 1416.308594 905.597656 1416.46875 907.1875 1416.59375 908.78125 C 1416.714844 910.375 1416.804688 911.972656 1416.855469 913.570312 C 1416.90625 915.167969 1416.921875 916.765625 1416.902344 918.363281 C 1416.882812 919.964844 1416.824219 921.558594 1416.730469 923.15625 C 1416.636719 924.753906 1416.507812 926.34375 1416.339844 927.933594 C 1416.175781 929.523438 1415.972656 931.109375 1415.734375 932.691406 C 1415.496094 934.273438 1415.222656 935.847656 1414.914062 937.414062 C 1414.601562 938.984375 1414.257812 940.542969 1413.878906 942.097656 C 1413.496094 943.648438 1413.082031 945.191406 1412.628906 946.726562 C 1412.179688 948.261719 1411.695312 949.785156 1411.171875 951.296875 C 1410.652344 952.808594 1410.097656 954.304688 1409.511719 955.792969 C 1408.921875 957.277344 1408.300781 958.75 1407.644531 960.210938 C 1406.988281 961.667969 1406.300781 963.109375 1405.582031 964.539062 C 1404.859375 965.964844 1404.109375 967.375 1403.324219 968.765625 C 1402.539062 970.160156 1401.722656 971.535156 1400.875 972.890625 C 1400.027344 974.246094 1399.148438 975.582031 1398.242188 976.898438 C 1397.332031 978.210938 1396.394531 979.507812 1395.429688 980.78125 C 1394.460938 982.054688 1393.464844 983.304688 1392.441406 984.53125 C 1391.417969 985.757812 1390.367188 986.964844 1389.289062 988.144531 C 1388.210938 989.324219 1387.105469 990.476562 1385.972656 991.609375 C 1384.84375 992.738281 1383.6875 993.839844 1382.503906 994.917969 C 1381.324219 995.996094 1380.117188 997.046875 1378.890625 998.070312 C 1377.660156 999.089844 1376.410156 1000.085938 1375.132812 1001.050781 C 1373.859375 1002.015625 1372.566406 1002.953125 1371.246094 1003.859375 C 1369.929688 1004.765625 1368.59375 1005.640625 1367.238281 1006.488281 C 1365.882812 1007.332031 1364.503906 1008.148438 1363.113281 1008.933594 C 1361.71875 1009.714844 1360.308594 1010.464844 1358.878906 1011.183594 C 1357.453125 1011.90625 1356.007812 1012.589844 1354.550781 1013.246094 C 1353.089844 1013.898438 1351.617188 1014.519531 1350.128906 1015.105469 C 1348.644531 1015.691406 1347.144531 1016.246094 1345.628906 1016.761719 C 1344.117188 1017.28125 1342.59375 1017.765625 1341.058594 1018.214844 C 1339.527344 1018.664062 1337.980469 1019.078125 1336.429688 1019.457031 L 1336.429688 1060.414062 C 1336.40625 1061.246094 1336.34375 1062.070312 1336.242188 1062.894531 C 1336.140625 1063.714844 1336 1064.53125 1335.816406 1065.339844 C 1335.636719 1066.148438 1335.417969 1066.949219 1335.160156 1067.738281 C 1334.902344 1068.523438 1334.605469 1069.296875 1334.273438 1070.058594 C 1333.941406 1070.816406 1333.570312 1071.558594 1333.167969 1072.28125 C 1332.761719 1073.007812 1332.324219 1073.710938 1331.851562 1074.390625 C 1331.378906 1075.074219 1330.875 1075.730469 1330.339844 1076.363281 C 1329.804688 1076.996094 1329.238281 1077.601562 1328.644531 1078.179688 C 1328.050781 1078.757812 1327.429688 1079.304688 1326.78125 1079.824219 C 1326.136719 1080.34375 1325.464844 1080.828125 1324.769531 1081.28125 C 1324.078125 1081.734375 1323.363281 1082.15625 1322.628906 1082.539062 C 1321.894531 1082.925781 1321.140625 1083.273438 1320.375 1083.585938 C 1319.605469 1083.898438 1318.824219 1084.171875 1318.03125 1084.40625 C 1317.234375 1084.644531 1316.429688 1084.84375 1315.617188 1085 C 1314.804688 1085.160156 1313.984375 1085.28125 1313.15625 1085.359375 C 1312.332031 1085.4375 1311.503906 1085.480469 1310.675781 1085.480469 C 1309.847656 1085.480469 1309.019531 1085.4375 1308.195312 1085.359375 C 1307.367188 1085.28125 1306.550781 1085.160156 1305.734375 1085 C 1304.921875 1084.84375 1304.117188 1084.644531 1303.324219 1084.40625 C 1302.527344 1084.171875 1301.746094 1083.898438 1300.980469 1083.585938 C 1300.210938 1083.273438 1299.460938 1082.925781 1298.722656 1082.539062 C 1297.988281 1082.15625 1297.277344 1081.734375 1296.582031 1081.28125 C 1295.886719 1080.828125 1295.214844 1080.34375 1294.570312 1079.824219 C 1293.921875 1079.304688 1293.300781 1078.757812 1292.707031 1078.179688 C 1292.113281 1077.601562 1291.546875 1076.996094 1291.011719 1076.363281 C 1290.476562 1075.730469 1289.972656 1075.074219 1289.5 1074.390625 C 1289.027344 1073.710938 1288.589844 1073.007812 1288.1875 1072.28125 C 1287.78125 1071.558594 1287.414062 1070.816406 1287.082031 1070.058594 C 1286.746094 1069.296875 1286.453125 1068.523438 1286.195312 1067.738281 C 1285.9375 1066.949219 1285.714844 1066.148438 1285.535156 1065.339844 C 1285.355469 1064.53125 1285.210938 1063.714844 1285.109375 1062.894531 C 1285.007812 1062.070312 1284.945312 1061.246094 1284.921875 1060.414062 L 1284.921875 1019.457031 C 1282.101562 1018.746094 1279.3125 1017.917969 1276.558594 1016.976562 C 1273.808594 1016.035156 1271.097656 1014.984375 1268.429688 1013.816406 C 1265.765625 1012.652344 1263.152344 1011.378906 1260.589844 1009.996094 C 1258.027344 1008.617188 1255.53125 1007.128906 1253.089844 1005.542969 C 1250.652344 1003.953125 1248.285156 1002.265625 1245.988281 1000.480469 C 1243.6875 998.695312 1241.46875 996.820312 1239.324219 994.851562 C 1237.183594 992.882812 1235.125 990.832031 1233.152344 988.691406 C 1231.175781 986.554688 1229.296875 984.335938 1227.507812 982.042969 C 1225.714844 979.746094 1224.023438 977.382812 1222.429688 974.949219 C 1220.835938 972.515625 1219.347656 970.019531 1217.957031 967.460938 C 1216.570312 964.902344 1215.292969 962.292969 1214.121094 959.628906 C 1212.949219 956.964844 1211.890625 954.257812 1210.941406 951.507812 C 1209.996094 948.753906 1209.164062 945.96875 1208.445312 943.148438 C 1207.730469 940.328125 1207.128906 937.484375 1206.648438 934.613281 C 1206.167969 931.746094 1205.804688 928.859375 1205.5625 925.960938 C 1205.320312 923.0625 1205.199219 920.15625 1205.195312 917.246094 Z M 664.71875 1412.601562 L 856.355469 1735.300781 L 878.425781 1772.457031 L 682.628906 1888.730469 L 440.792969 1481.519531 L 636.59375 1365.246094 Z M 919.597656 1296.3125 C 985.808594 1287.476562 1050.054688 1308.929688 1112.332031 1360.664062 C 1115.320312 1363.148438 1118.703125 1364.859375 1122.476562 1365.796875 L 1389.203125 1432.667969 L 1390.1875 1432.929688 C 1393.898438 1433.902344 1397.476562 1435.230469 1400.921875 1436.914062 C 1404.367188 1438.597656 1407.617188 1440.601562 1410.664062 1442.929688 C 1413.710938 1445.257812 1416.5 1447.863281 1419.03125 1450.746094 C 1421.5625 1453.628906 1423.785156 1456.730469 1425.695312 1460.054688 C 1427.644531 1463.355469 1429.261719 1466.808594 1430.546875 1470.417969 C 1431.832031 1474.027344 1432.761719 1477.722656 1433.339844 1481.511719 C 1433.917969 1485.296875 1434.128906 1489.105469 1433.976562 1492.933594 C 1433.824219 1496.761719 1433.3125 1500.539062 1432.4375 1504.269531 L 1432.191406 1505.140625 C 1431.710938 1506.992188 1431.144531 1508.820312 1430.484375 1510.617188 C 1429.828125 1512.414062 1429.085938 1514.175781 1428.253906 1515.898438 C 1427.425781 1517.625 1426.511719 1519.304688 1425.519531 1520.941406 C 1424.523438 1522.578125 1423.453125 1524.160156 1422.304688 1525.691406 C 1421.15625 1527.222656 1419.933594 1528.691406 1418.640625 1530.105469 C 1417.347656 1531.515625 1415.988281 1532.859375 1414.5625 1534.136719 C 1413.140625 1535.417969 1411.65625 1536.621094 1410.113281 1537.753906 C 1408.570312 1538.886719 1406.976562 1539.945312 1405.332031 1540.921875 C 1403.683594 1541.898438 1401.996094 1542.792969 1400.261719 1543.605469 C 1398.527344 1544.414062 1396.757812 1545.140625 1394.953125 1545.777344 C 1393.148438 1546.417969 1391.316406 1546.96875 1389.460938 1547.425781 C 1387.601562 1547.886719 1385.726562 1548.253906 1383.832031 1548.53125 C 1381.9375 1548.804688 1380.035156 1548.988281 1378.121094 1549.078125 C 1376.210938 1549.167969 1374.296875 1549.164062 1372.386719 1549.066406 C 1370.476562 1548.96875 1368.570312 1548.777344 1366.679688 1548.492188 C 1364.785156 1548.210938 1362.910156 1547.835938 1361.054688 1547.367188 L 1238.152344 1516.042969 C 1237.335938 1515.847656 1236.515625 1515.6875 1235.6875 1515.574219 C 1234.859375 1515.457031 1234.027344 1515.378906 1233.191406 1515.34375 C 1232.355469 1515.308594 1231.519531 1515.316406 1230.683594 1515.359375 C 1229.847656 1515.40625 1229.015625 1515.492188 1228.1875 1515.621094 C 1227.359375 1515.746094 1226.542969 1515.914062 1225.730469 1516.121094 C 1224.921875 1516.328125 1224.121094 1516.574219 1223.335938 1516.859375 C 1222.546875 1517.144531 1221.777344 1517.46875 1221.019531 1517.828125 C 1220.265625 1518.1875 1219.53125 1518.582031 1218.8125 1519.015625 C 1218.097656 1519.445312 1217.402344 1519.914062 1216.730469 1520.410156 C 1216.058594 1520.910156 1215.414062 1521.441406 1214.792969 1522.003906 C 1214.175781 1522.566406 1213.582031 1523.160156 1213.023438 1523.777344 C 1212.460938 1524.398438 1211.929688 1525.046875 1211.429688 1525.71875 C 1210.933594 1526.390625 1210.46875 1527.082031 1210.035156 1527.800781 C 1209.605469 1528.519531 1209.210938 1529.253906 1208.851562 1530.011719 C 1208.492188 1530.765625 1208.167969 1531.539062 1207.886719 1532.324219 C 1207.601562 1533.113281 1207.355469 1533.910156 1207.148438 1534.722656 C 1206.945312 1535.53125 1206.777344 1536.351562 1206.652344 1537.179688 C 1206.523438 1538.007812 1206.4375 1538.839844 1206.394531 1539.671875 C 1206.347656 1540.507812 1206.34375 1541.34375 1206.378906 1542.179688 C 1206.417969 1543.015625 1206.492188 1543.847656 1206.609375 1544.679688 C 1206.730469 1545.507812 1206.886719 1546.328125 1207.082031 1547.140625 C 1207.28125 1547.953125 1207.519531 1548.753906 1207.792969 1549.546875 C 1208.070312 1550.335938 1208.382812 1551.109375 1208.734375 1551.871094 C 1209.085938 1552.628906 1209.472656 1553.371094 1209.898438 1554.089844 C 1210.320312 1554.8125 1210.777344 1555.511719 1211.269531 1556.191406 C 1211.761719 1556.867188 1212.285156 1557.519531 1212.839844 1558.144531 C 1213.394531 1558.769531 1213.980469 1559.367188 1214.59375 1559.9375 C 1215.207031 1560.507812 1215.847656 1561.042969 1216.511719 1561.550781 C 1217.179688 1562.058594 1217.867188 1562.53125 1218.582031 1562.96875 C 1219.292969 1563.410156 1220.023438 1563.8125 1220.777344 1564.179688 C 1221.527344 1564.550781 1222.296875 1564.878906 1223.078125 1565.171875 C 1223.863281 1565.464844 1224.660156 1565.71875 1225.46875 1565.9375 L 1348.390625 1597.242188 C 1350.136719 1597.679688 1351.890625 1598.074219 1353.65625 1598.429688 C 1355.417969 1598.78125 1357.191406 1599.089844 1358.96875 1599.355469 C 1360.75 1599.621094 1362.53125 1599.84375 1364.324219 1600.023438 C 1366.113281 1600.199219 1367.90625 1600.335938 1369.703125 1600.425781 C 1371.5 1600.515625 1373.296875 1600.5625 1375.09375 1600.566406 C 1376.894531 1600.570312 1378.691406 1600.527344 1380.488281 1600.441406 C 1382.285156 1600.359375 1384.078125 1600.230469 1385.871094 1600.054688 C 1387.660156 1599.882812 1389.445312 1599.667969 1391.226562 1599.40625 C 1393.003906 1599.144531 1394.777344 1598.84375 1396.542969 1598.496094 C 1398.308594 1598.148438 1400.0625 1597.757812 1401.808594 1597.324219 C 1403.554688 1596.894531 1405.289062 1596.417969 1407.011719 1595.902344 C 1408.734375 1595.382812 1410.445312 1594.824219 1412.140625 1594.222656 C 1413.835938 1593.621094 1415.515625 1592.980469 1417.179688 1592.296875 C 1418.84375 1591.613281 1420.488281 1590.890625 1422.117188 1590.125 C 1423.746094 1589.359375 1425.355469 1588.558594 1426.945312 1587.714844 C 1428.53125 1586.871094 1430.101562 1585.992188 1431.648438 1585.074219 C 1433.191406 1584.152344 1434.714844 1583.195312 1436.214844 1582.203125 C 1437.714844 1581.210938 1439.1875 1580.179688 1440.636719 1579.113281 C 1442.085938 1578.046875 1443.507812 1576.949219 1444.902344 1575.8125 C 1446.296875 1574.675781 1447.664062 1573.507812 1449.003906 1572.304688 C 1450.339844 1571.105469 1451.648438 1569.871094 1452.925781 1568.601562 C 1454.203125 1567.335938 1455.449219 1566.039062 1456.664062 1564.714844 C 1457.878906 1563.386719 1459.058594 1562.03125 1460.207031 1560.644531 C 1461.355469 1559.261719 1462.46875 1557.847656 1463.546875 1556.410156 C 1464.625 1554.96875 1465.667969 1553.503906 1466.675781 1552.015625 C 1467.683594 1550.523438 1468.652344 1549.011719 1469.585938 1547.472656 C 1470.519531 1545.933594 1471.414062 1544.375 1472.269531 1542.792969 C 1473.128906 1541.210938 1473.945312 1539.609375 1474.722656 1537.988281 C 1475.5 1536.367188 1476.238281 1534.726562 1476.9375 1533.070312 C 1477.636719 1531.410156 1478.292969 1529.738281 1478.910156 1528.046875 C 1479.527344 1526.359375 1480.101562 1524.652344 1480.632812 1522.9375 C 1481.167969 1521.21875 1481.65625 1519.488281 1482.105469 1517.746094 C 1482.21875 1517.3125 1482.3125 1516.875 1482.40625 1516.441406 C 1483.542969 1511.710938 1484.363281 1506.929688 1484.867188 1502.089844 C 1485.371094 1497.253906 1485.554688 1492.402344 1485.414062 1487.542969 C 1485.273438 1482.679688 1484.816406 1477.847656 1484.039062 1473.046875 C 1483.257812 1468.246094 1482.167969 1463.519531 1480.761719 1458.863281 L 1739.214844 1270.171875 L 1740.691406 1269.167969 C 1741.203125 1268.789062 1742.074219 1268.183594 1743.304688 1267.390625 C 1746.691406 1265.179688 1750.253906 1263.296875 1753.988281 1261.746094 C 1757.726562 1260.191406 1761.570312 1258.992188 1765.527344 1258.144531 C 1769.480469 1257.296875 1773.480469 1256.820312 1777.527344 1256.710938 C 1781.570312 1256.601562 1785.589844 1256.859375 1789.585938 1257.492188 C 1793.304688 1258.027344 1796.941406 1258.914062 1800.488281 1260.144531 C 1804.039062 1261.375 1807.445312 1262.929688 1810.699219 1264.808594 C 1813.953125 1266.683594 1817 1268.855469 1819.84375 1271.3125 C 1822.683594 1273.773438 1825.269531 1276.476562 1827.59375 1279.429688 C 1827.859375 1279.84375 1828.144531 1280.261719 1828.445312 1280.65625 C 1828.75 1281.054688 1829.261719 1281.851562 1830 1282.984375 C 1832.339844 1286.480469 1834.332031 1290.164062 1835.984375 1294.03125 C 1837.632812 1297.902344 1838.90625 1301.890625 1839.808594 1306 C 1840.710938 1310.109375 1841.226562 1314.265625 1841.347656 1318.46875 C 1841.46875 1322.671875 1841.203125 1326.851562 1840.542969 1331.003906 C 1839.800781 1335.324219 1838.679688 1339.542969 1837.175781 1343.660156 C 1835.675781 1347.777344 1833.816406 1351.726562 1831.601562 1355.507812 C 1829.386719 1359.289062 1826.855469 1362.84375 1824 1366.167969 C 1821.144531 1369.492188 1818.011719 1372.535156 1814.609375 1375.296875 L 1411.007812 1711.09375 L 965.441406 1647.269531 C 962.550781 1646.84375 959.675781 1646.917969 956.808594 1647.484375 C 953.945312 1648.054688 951.257812 1649.085938 948.746094 1650.582031 L 887.417969 1686.996094 L 719.5 1404.160156 C 789.308594 1340.753906 856.007812 1304.804688 919.597656 1296.3125 Z M 919.597656 1296.3125 " fill-opacity="1" fill-rule="evenodd"/></g></svg>