<svg xmlns="http://www.w3.org/2000/svg" xmlns:xlink="http://www.w3.org/1999/xlink" width="3000" zoomAndPan="magnify" viewBox="0 0 2250 2250.000011" height="3000" preserveAspectRatio="xMidYMid meet" version="1.0"><path fill="#079b11" d="M 1899.492188 751.324219 C 1826.433594 624.503906 1727.585938 517.027344 1607.253906 439.644531 C 1579.316406 420.300781 1540.640625 428.898438 1523.449219 456.84375 C 1504.109375 484.785156 1512.703125 523.476562 1540.640625 540.671875 C 1605.105469 583.660156 1663.121094 635.25 1712.546875 695.4375 C 1942.46875 972.71875 1948.917969 1361.777344 1755.523438 1645.511719 C 1570.722656 1576.726562 1360.136719 1535.886719 1138.808594 1533.738281 C 1138.808594 1409.066406 1190.378906 1340.28125 1220.464844 1297.292969 C 1289.226562 1318.789062 1379.476562 1353.179688 1501.960938 1230.660156 C 1628.742188 1105.988281 1667.417969 957.671875 1680.3125 867.394531 C 1684.609375 828.703125 1652.378906 794.3125 1613.699219 798.609375 C 1519.152344 807.210938 1353.691406 837.300781 1222.613281 968.421875 C 1102.277344 1090.941406 1121.617188 1166.175781 1145.253906 1200.566406 C 1231.207031 1088.792969 1342.949219 1002.8125 1495.515625 964.121094 C 1448.238281 994.214844 1334.351562 1073.746094 1248.398438 1159.726562 C 1177.488281 1230.660156 1117.320312 1308.039062 1078.640625 1387.570312 C 1055.003906 1331.683594 1014.175781 1262.902344 949.710938 1194.117188 C 868.058594 1105.988281 758.464844 1024.308594 711.191406 994.214844 C 874.503906 1032.90625 969.050781 1129.632812 1048.558594 1237.109375 C 1074.34375 1202.714844 1095.832031 1129.632812 979.796875 1004.960938 C 855.164062 871.695312 694 837.300781 601.601562 824.40625 C 562.921875 820.105469 528.542969 852.347656 530.691406 891.039062 C 539.285156 979.167969 573.667969 1125.332031 694 1252.152344 C 797.144531 1361.777344 880.949219 1351.03125 945.414062 1333.835938 C 969.050781 1361.777344 1020.625 1434.859375 1022.773438 1529.4375 C 818.632812 1538.035156 627.386719 1576.726562 455.480469 1641.210938 C 350.191406 1488.597656 302.914062 1308.039062 320.105469 1121.035156 C 341.59375 916.832031 440.441406 725.527344 603.75 592.261719 C 756.316406 465.441406 947.5625 403.105469 1143.105469 411.703125 L 1003.433594 536.375 C 979.796875 557.867188 977.648438 594.410156 999.136719 618.054688 C 1009.878906 630.949219 1027.070312 637.398438 1042.113281 637.398438 C 1055.003906 637.398438 1070.046875 633.101562 1080.789062 622.351562 L 1319.308594 407.402344 C 1342.945312 385.910156 1345.097656 349.367188 1323.609375 325.722656 L 1108.726562 87.128906 C 1087.238281 63.484375 1050.707031 61.335938 1027.070312 82.832031 C 1003.433594 104.324219 1001.285156 140.867188 1022.773438 164.511719 L 1136.660156 289.183594 C 915.332031 282.734375 698.300781 353.667969 526.394531 497.683594 C 264.238281 714.78125 143.902344 1052.25 216.960938 1406.917969 C 225.558594 1449.90625 238.449219 1490.746094 255.640625 1529.4375 C 393.167969 1862.609375 685.40625 2073.261719 1022.773438 2105.503906 C 1050.707031 2107.652344 1080.789062 2109.800781 1108.726562 2109.800781 C 1338.648438 2109.800781 1559.980469 2023.820312 1731.882812 1860.460938 C 2034.867188 1576.726562 2105.78125 1110.289062 1899.492188 751.324219 Z M 1899.492188 751.324219 " fill-opacity="1" fill-rule="nonzero"/></svg>