<svg xmlns="http://www.w3.org/2000/svg" xmlns:xlink="http://www.w3.org/1999/xlink" width="3000" zoomAndPan="magnify" viewBox="0 0 2250 2250.000011" height="3000" preserveAspectRatio="xMidYMid meet" version="1.0"><defs><clipPath id="6cc29d89c3"><path d="M 274 67.917969 L 1978 67.917969 L 1978 2068.027344 L 274 2068.027344 Z M 274 67.917969 " clip-rule="nonzero"/></clipPath></defs><g clip-path="url(#6cc29d89c3)"><path fill="#34a853" d="M 1975.636719 610.589844 L 1975.578125 609.035156 C 1974.699219 589.820312 1974.113281 569.496094 1973.777344 546.882812 C 1972.128906 436.601562 1884.441406 345.378906 1774.136719 339.214844 C 1544.113281 326.378906 1366.175781 251.394531 1214.140625 103.238281 L 1212.84375 102.003906 C 1163.253906 56.546875 1088.449219 56.546875 1038.847656 102.003906 L 1037.546875 103.238281 C 885.511719 251.394531 707.574219 326.378906 477.5625 339.230469 C 367.257812 345.378906 279.554688 436.601562 277.921875 546.898438 C 277.585938 569.359375 276.988281 589.683594 276.121094 609.035156 L 276.027344 612.648438 C 271.554688 847.144531 266 1138.984375 363.652344 1403.875 C 417.347656 1549.542969 498.671875 1676.160156 605.34375 1780.257812 C 726.835938 1898.789062 885.96875 1992.902344 1078.316406 2059.949219 C 1084.574219 2062.136719 1091.074219 2063.90625 1097.699219 2065.226562 C 1107.039062 2067.089844 1116.441406 2068.011719 1125.84375 2068.011719 C 1135.246094 2068.011719 1144.664062 2067.089844 1153.988281 2065.226562 C 1160.613281 2063.90625 1167.164062 2062.121094 1173.449219 2059.921875 C 1365.566406 1992.746094 1524.53125 1898.585938 1645.917969 1780.074219 C 1752.542969 1675.960938 1833.875 1549.300781 1887.613281 1403.601562 C 1985.625 1137.917969 1980.085938 845.527344 1975.636719 610.589844 Z M 1777.476562 1362.996094 C 1674.476562 1642.1875 1464.226562 1833.921875 1134.714844 1949.128906 C 1133.539062 1949.527344 1132.285156 1949.882812 1130.988281 1950.144531 C 1127.585938 1950.804688 1124.121094 1950.804688 1120.671875 1950.128906 C 1119.386719 1949.867188 1118.136719 1949.527344 1116.976562 1949.128906 C 787.113281 1834.136719 576.726562 1642.511719 473.804688 1363.300781 C 383.800781 1119.128906 388.898438 851.234375 393.402344 614.894531 L 393.429688 613.582031 C 394.347656 593.269531 394.957031 572 395.292969 548.621094 C 396.027344 499.652344 435.039062 459.140625 484.109375 456.40625 C 614.273438 449.144531 728.625 423.996094 833.695312 379.53125 C 938.628906 335.125 1031.824219 272.53125 1118.578125 188.175781 C 1122.992188 184.449219 1128.714844 184.4375 1133.109375 188.175781 C 1219.878906 272.53125 1313.078125 335.125 1417.996094 379.53125 C 1523.066406 423.996094 1637.417969 449.144531 1767.59375 456.40625 C 1816.671875 459.140625 1855.679688 499.652344 1856.390625 548.636719 C 1856.742188 572.136719 1857.359375 593.40625 1858.265625 613.582031 C 1862.761719 850.195312 1867.730469 1118.308594 1777.476562 1362.996094 Z M 1777.476562 1362.996094 " fill-opacity="1" fill-rule="nonzero"/></g><path fill="#34a853" d="M 1125.816406 569.542969 C 850.898438 569.542969 627.246094 793.160156 627.246094 1068 C 627.246094 1342.855469 850.898438 1566.472656 1125.816406 1566.472656 C 1400.71875 1566.472656 1624.386719 1342.855469 1624.386719 1068 C 1624.386719 793.160156 1400.71875 569.542969 1125.816406 569.542969 Z M 1125.816406 1449.09375 C 915.628906 1449.09375 744.636719 1278.140625 744.636719 1068 C 744.636719 857.859375 915.628906 686.90625 1125.816406 686.90625 C 1335.988281 686.90625 1506.980469 857.859375 1506.980469 1068 C 1506.980469 1278.140625 1335.988281 1449.09375 1125.816406 1449.09375 Z M 1125.816406 1449.09375 " fill-opacity="1" fill-rule="nonzero"/><path fill="#34a853" d="M 1269.109375 913.25 L 1037.535156 1144.769531 L 974.683594 1081.933594 C 951.757812 1059.011719 914.59375 1059.011719 891.667969 1081.933594 C 868.757812 1104.851562 868.757812 1142.007812 891.667969 1164.914062 L 996.035156 1269.257812 C 1007.5 1280.71875 1022.519531 1286.441406 1037.535156 1286.441406 C 1052.554688 1286.441406 1067.574219 1280.71875 1079.039062 1269.257812 L 1352.125 996.234375 C 1375.035156 973.3125 1375.035156 936.15625 1352.125 913.25 C 1329.199219 890.316406 1292.03125 890.316406 1269.109375 913.25 Z M 1269.109375 913.25 " fill-opacity="1" fill-rule="nonzero"/></svg>